{"glyphs":{"0":{"ha":534,"x_min":43,"x_max":490,"o":"m 490 347 q 485 262 490 305 q 469 179 480 219 q 440 104 458 139 q 398 42 422 68 q 340 0 373 16 q 267 -15 308 -15 q 194 0 227 -15 q 136 42 161 16 q 94 104 111 68 q 65 179 76 139 q 48 262 54 219 q 43 347 43 305 q 48 431 43 388 q 65 514 54 474 q 94 589 76 554 q 136 651 111 625 q 194 693 161 677 q 267 708 226 708 q 340 693 308 708 q 398 651 373 677 q 440 589 422 625 q 469 514 458 554 q 485 431 480 474 q 490 347 490 388 m 334 367 q 331 473 334 421 q 321 566 328 526 q 301 632 314 607 q 267 657 288 657 q 243 643 254 657 q 224 604 232 628 q 211 546 216 579 q 203 476 206 513 q 199 401 200 439 q 197 326 197 362 q 200 220 197 272 q 211 127 203 168 q 233 61 219 86 q 267 36 246 36 q 291 51 281 36 q 309 90 302 65 q 321 147 316 114 q 329 217 326 180 q 333 292 332 254 q 334 367 334 330 z "},"1":{"ha":534,"x_min":69,"x_max":449,"o":"m 85 0 l 85 41 q 138 45 116 41 q 173 59 159 49 q 192 86 186 69 q 197 130 197 104 l 197 487 q 197 519 197 504 q 191 546 196 534 q 176 564 186 557 q 147 570 166 570 q 120 567 136 570 q 85 553 104 563 l 69 591 l 307 708 l 348 708 l 348 130 q 352 86 348 104 q 367 59 356 69 q 398 45 378 49 q 449 41 418 41 l 449 0 l 85 0 z "},"2":{"ha":534,"x_min":35,"x_max":505,"o":"m 433 0 l 37 0 l 37 41 q 156 175 105 117 q 242 282 208 233 q 294 378 277 332 q 312 476 312 424 q 303 523 312 502 q 280 557 295 543 q 245 579 265 572 q 202 587 225 587 q 124 563 156 587 q 76 486 93 539 l 35 486 q 59 570 43 530 q 102 641 76 610 q 165 690 129 671 q 251 708 202 708 q 333 693 296 708 q 397 653 370 678 q 438 595 423 628 q 452 526 452 562 q 441 445 452 482 q 412 376 430 408 q 370 315 393 343 q 323 259 347 286 q 255 192 290 221 q 189 134 220 163 l 315 134 q 362 136 340 134 q 404 145 385 138 q 438 166 423 153 q 464 201 454 179 l 505 201 l 433 0 z "},"3":{"ha":534,"x_min":33,"x_max":479,"o":"m 479 243 q 457 139 479 186 q 398 58 436 92 q 308 4 359 24 q 195 -15 256 -15 q 140 -12 168 -15 q 87 1 111 -8 q 48 25 63 9 q 33 64 33 41 q 46 106 33 88 q 90 124 60 124 q 128 113 111 124 q 163 88 145 102 q 203 63 181 74 q 258 52 226 52 q 324 76 299 52 q 349 142 349 101 q 335 218 349 184 q 293 278 320 253 q 229 319 267 304 q 143 338 191 334 l 143 379 q 205 390 176 382 q 257 414 235 399 q 293 451 279 429 q 307 502 307 473 q 299 543 307 524 q 277 575 291 562 q 244 597 263 589 q 204 606 226 606 q 169 598 186 606 q 136 579 151 591 q 107 551 121 567 q 83 516 94 534 l 52 530 q 85 594 66 562 q 130 652 104 627 q 190 692 155 677 q 270 708 224 708 q 334 698 302 708 q 390 670 366 688 q 430 624 414 651 q 445 564 445 597 q 438 519 445 540 q 418 481 431 498 q 390 449 406 463 q 355 423 374 435 q 402 397 380 412 q 441 359 424 381 q 469 308 458 337 q 479 243 479 279 z "},"4":{"ha":534,"x_min":18,"x_max":513,"o":"m 437 156 l 437 0 l 296 0 l 296 156 l 18 156 l 18 262 l 329 708 l 437 708 l 437 262 l 513 262 l 513 156 l 437 156 m 296 548 l 94 262 l 296 262 l 296 548 z "},"5":{"ha":534,"x_min":28,"x_max":504,"o":"m 452 562 l 206 562 l 179 492 q 296 477 241 492 q 390 434 350 463 q 452 364 429 406 q 475 264 475 321 q 450 154 475 205 q 386 65 426 103 q 293 6 345 28 q 186 -15 241 -15 q 132 -11 159 -15 q 81 5 104 -6 q 43 35 58 16 q 28 81 28 53 q 32 101 28 91 q 43 120 36 112 q 62 134 51 129 q 89 140 73 140 q 131 127 113 140 q 168 99 149 114 q 211 71 187 83 q 272 58 235 58 q 307 68 290 58 q 336 96 323 79 q 357 131 349 112 q 365 166 365 150 q 339 256 365 219 q 271 317 314 294 q 169 352 227 341 q 47 363 111 363 l 193 693 l 504 693 l 452 562 z "},"6":{"ha":534,"x_min":40,"x_max":496,"o":"m 496 668 q 378 638 427 663 q 294 577 328 613 q 238 498 259 541 q 208 412 218 454 q 313 442 252 442 q 389 425 356 442 q 446 380 422 408 q 480 315 469 352 q 492 239 492 278 q 477 143 492 189 q 433 62 462 98 q 362 6 404 27 q 265 -15 319 -15 q 171 11 212 -15 q 100 76 129 36 q 55 167 71 117 q 40 267 40 217 q 54 380 40 325 q 94 484 68 435 q 159 574 121 533 q 247 645 198 615 q 355 691 296 675 q 481 708 414 708 l 496 708 l 496 668 m 348 175 q 344 247 348 212 q 330 311 340 283 q 301 356 319 339 q 256 373 283 373 q 237 371 246 373 q 220 365 228 368 q 201 357 210 361 q 199 318 200 336 q 198 286 199 302 q 198 260 198 270 q 205 155 198 199 q 225 85 213 112 q 254 45 237 58 q 289 33 271 33 q 310 40 300 33 q 329 63 321 47 q 343 107 338 80 q 348 175 348 134 z "},"7":{"ha":534,"x_min":30,"x_max":484,"o":"m 260 -15 l 180 -15 l 370 558 l 214 558 q 158 555 179 558 q 123 543 138 552 q 98 515 109 533 q 68 467 86 497 l 30 479 l 117 693 l 484 693 l 484 652 l 260 -15 z "},"8":{"ha":534,"x_min":41,"x_max":492,"o":"m 492 184 q 475 103 492 140 q 426 41 457 67 q 352 0 395 14 q 258 -15 309 -15 q 171 -3 211 -15 q 103 32 132 9 q 58 87 74 54 q 41 160 41 119 q 77 272 41 226 q 172 345 113 318 q 122 387 144 367 q 85 427 100 406 q 62 473 70 448 q 54 529 54 497 q 70 600 54 568 q 116 655 87 632 q 183 692 144 679 q 267 705 222 705 q 359 693 319 705 q 426 661 399 681 q 467 614 453 640 q 481 561 481 588 q 449 464 481 503 q 366 397 417 425 q 416 354 393 376 q 456 306 439 332 q 483 250 473 280 q 492 184 492 219 m 361 564 q 355 606 361 586 q 336 641 348 626 q 308 665 324 656 q 272 674 291 674 q 240 667 254 674 q 214 648 225 660 q 197 620 203 635 q 191 587 191 604 q 203 532 191 556 q 233 489 215 508 q 272 456 251 470 q 310 432 292 441 q 347 488 332 454 q 361 564 361 521 m 354 130 q 343 183 354 159 q 314 229 332 208 q 272 271 296 251 q 221 311 248 290 q 197 280 207 298 q 182 242 188 262 q 174 200 176 222 q 171 160 171 179 q 177 111 171 134 q 194 71 182 88 q 224 43 206 54 q 267 33 243 33 q 303 41 287 33 q 331 64 319 50 q 348 95 342 78 q 354 130 354 113 z "},"9":{"ha":534,"x_min":45,"x_max":500,"o":"m 500 426 q 470 260 500 340 q 382 119 439 180 q 244 22 325 58 q 62 -15 163 -15 l 45 -15 l 45 26 q 160 52 112 30 q 243 110 209 75 q 299 189 277 144 q 334 281 321 233 q 229 251 289 251 q 152 268 185 251 q 95 313 118 285 q 60 378 72 341 q 48 454 48 414 q 61 550 48 504 q 102 631 75 595 q 173 687 130 666 q 276 708 216 708 q 371 683 329 708 q 441 617 412 657 q 485 526 470 576 q 500 426 500 476 m 345 428 q 337 531 345 487 q 318 603 330 574 q 288 646 305 632 q 252 661 271 661 q 230 653 241 661 q 212 630 220 646 q 198 586 203 613 q 193 518 193 559 q 199 440 193 476 q 217 377 205 404 q 245 335 229 351 q 285 320 262 320 q 303 322 294 320 q 321 328 313 324 q 339 336 330 331 q 342 371 340 353 q 344 401 343 386 q 345 428 345 416 z "}," ":{"ha":347,"x_min":0,"x_max":0,"o":""},"!":{"ha":349,"x_min":96,"x_max":252,"o":"m 252 568 q 243 478 252 526 q 226 378 235 431 q 216 333 221 351 q 208 291 212 315 q 202 233 205 268 q 200 139 200 198 q 193 131 200 134 q 175 128 186 128 q 155 131 163 128 q 147 139 147 134 q 146 207 147 178 q 143 256 145 235 q 139 292 142 277 q 134 320 137 307 q 129 347 132 334 q 123 376 125 359 q 104 478 113 431 q 96 568 96 524 q 99 602 96 585 q 112 634 103 620 q 136 656 121 648 q 174 665 151 665 q 211 656 196 665 q 235 634 227 648 q 248 602 244 620 q 252 568 252 585 m 247 24 q 241 -4 247 9 q 226 -27 235 -17 q 203 -43 216 -37 q 174 -49 189 -49 q 145 -43 159 -49 q 122 -27 132 -37 q 106 -4 112 -17 q 100 24 100 9 q 106 53 100 39 q 122 76 112 66 q 145 91 132 85 q 174 97 159 97 q 203 91 189 97 q 226 76 216 85 q 241 53 235 66 q 247 24 247 39 z "},"\"":{"ha":578,"x_min":90,"x_max":488,"o":"m 488 633 q 486 613 488 627 q 479 579 483 599 q 470 536 475 559 q 459 490 465 513 q 431 369 447 435 l 393 369 q 365 490 377 435 q 354 536 359 513 q 345 579 349 559 q 339 613 341 599 q 336 633 336 627 q 342 662 336 648 q 358 686 348 676 q 382 702 368 696 q 412 708 396 708 q 442 702 428 708 q 466 686 456 696 q 482 662 476 676 q 488 633 488 648 m 242 633 q 239 613 242 627 q 233 579 237 599 q 223 536 229 559 q 213 490 218 513 q 184 369 200 435 l 146 369 q 118 490 130 435 q 107 536 113 513 q 98 579 102 559 q 92 613 94 599 q 90 633 90 627 q 95 662 90 648 q 111 686 101 676 q 135 702 121 696 q 165 708 149 708 q 195 702 181 708 q 219 686 209 696 q 236 662 230 676 q 242 633 242 648 z "},"#":{"ha":523,"x_min":20,"x_max":503,"o":"m 376 203 l 332 -15 l 260 -15 l 304 203 l 161 203 l 116 -15 l 45 -15 l 89 203 l 20 203 l 20 273 l 104 273 l 131 417 l 20 417 l 20 488 l 146 488 l 191 708 l 262 708 l 218 488 l 361 488 l 405 708 l 477 708 l 433 488 l 503 488 l 503 417 l 418 417 l 390 273 l 503 273 l 503 203 l 376 203 m 205 417 l 176 273 l 318 273 l 348 417 l 205 417 z "},"$":{"ha":534,"x_min":44,"x_max":500,"o":"m 500 186 q 483 99 500 136 q 438 38 466 62 q 374 0 410 14 q 298 -16 338 -13 l 298 -79 l 238 -79 l 238 -16 q 146 -3 192 -13 q 58 26 100 7 l 58 198 l 107 198 q 122 133 110 162 q 153 83 135 104 q 194 49 172 62 q 238 33 216 36 l 238 290 q 171 333 205 311 q 108 383 136 355 q 62 446 80 411 q 44 526 44 480 q 61 595 44 564 q 106 651 79 627 q 169 688 134 674 q 238 705 203 703 l 238 753 l 298 753 l 298 705 q 342 700 321 704 q 384 689 363 696 q 425 675 404 683 q 467 660 445 668 l 467 480 l 420 480 q 407 546 416 515 q 382 600 397 576 q 345 638 366 623 q 298 657 324 654 l 298 438 q 341 409 319 423 q 387 378 364 395 q 429 343 409 362 q 466 301 450 324 q 491 250 481 278 q 500 186 500 221 m 238 657 q 180 627 195 651 q 164 571 164 604 q 169 543 164 557 q 184 513 174 528 q 207 485 193 498 q 238 460 220 471 l 238 657 m 378 147 q 359 208 378 176 q 298 267 339 239 l 298 33 q 331 44 317 35 q 356 69 346 54 q 373 104 367 84 q 378 147 378 124 z "},"%":{"ha":886,"x_min":44,"x_max":841,"o":"m 841 255 q 833 195 841 227 q 812 134 826 164 q 777 77 798 104 q 729 29 756 50 q 669 -4 702 8 q 597 -16 636 -16 q 496 20 533 -16 q 459 135 459 56 q 479 223 459 178 q 534 308 500 269 q 614 370 568 346 q 709 395 659 395 q 777 382 751 395 q 817 349 802 369 q 836 303 831 328 q 841 255 841 279 m 284 -15 l 187 -15 l 571 635 q 518 614 541 622 q 473 606 496 606 q 417 616 448 606 q 424 589 422 604 q 425 557 425 574 q 408 464 425 512 q 359 376 390 416 q 284 312 328 337 q 189 286 241 286 q 83 326 121 286 q 44 437 44 366 q 65 536 44 489 q 123 620 87 584 q 205 676 159 655 q 301 697 251 697 q 354 689 334 697 q 390 670 374 680 q 423 651 406 660 q 469 643 441 643 q 551 660 513 643 q 616 711 589 677 l 711 711 l 284 -15 m 802 244 q 797 295 802 274 q 783 329 792 316 q 762 349 774 342 q 735 355 750 355 q 703 344 721 355 q 666 315 685 334 q 629 272 647 297 q 596 218 610 248 q 573 156 582 189 q 564 90 564 123 q 584 44 564 62 q 637 26 603 26 q 673 36 654 26 q 710 62 692 45 q 745 101 728 79 q 774 147 762 123 q 794 196 787 172 q 802 244 802 221 m 388 546 q 383 597 388 576 q 369 631 378 618 q 356 642 361 637 q 346 650 351 646 q 336 655 341 653 q 326 656 332 656 q 283 644 306 656 q 238 608 260 631 q 204 567 220 590 q 176 517 188 544 q 156 461 163 490 q 149 401 149 432 q 169 351 149 372 q 224 329 189 329 q 261 340 242 329 q 299 368 281 351 q 333 409 317 386 q 361 455 349 431 q 381 503 374 479 q 388 546 388 526 z "},"&":{"ha":870,"x_min":42,"x_max":828,"o":"m 828 128 q 809 76 821 102 q 777 31 797 51 q 727 -2 757 10 q 656 -15 698 -15 q 607 -9 629 -15 q 566 8 585 -3 q 528 34 546 20 q 492 66 510 49 q 444 36 470 51 q 389 10 418 22 q 326 -8 359 -1 q 256 -15 292 -15 q 167 -2 206 -15 q 100 35 127 12 q 57 91 72 59 q 42 162 42 123 q 63 243 42 206 q 117 309 84 279 q 188 360 149 338 q 264 397 227 382 q 247 433 254 413 q 235 472 240 450 q 230 521 230 495 q 245 596 230 562 q 287 655 260 630 q 350 694 313 680 q 431 708 387 708 q 497 699 468 708 q 547 673 527 689 q 579 635 568 656 q 590 589 590 613 q 575 522 590 552 q 535 467 559 492 q 480 425 511 443 q 419 396 450 407 q 452 342 438 364 q 481 300 467 319 q 513 261 496 281 q 557 214 531 241 q 585 246 570 228 q 610 282 599 264 q 629 318 622 300 q 637 349 637 335 q 626 389 637 371 q 583 412 615 407 l 583 446 l 823 446 l 823 412 q 806 410 815 411 q 789 406 798 408 q 773 401 781 404 q 761 395 766 399 q 745 378 752 389 q 730 354 737 368 q 715 325 723 340 q 699 295 707 310 q 660 238 683 269 q 604 168 637 207 q 668 116 638 134 q 726 98 699 98 q 743 100 734 98 q 761 108 752 102 q 778 124 769 114 q 793 152 786 135 l 828 128 m 484 578 q 463 644 484 623 q 404 666 441 666 q 360 646 376 666 q 345 594 345 625 q 351 552 345 575 q 366 508 357 529 q 382 469 374 486 q 393 445 390 452 q 420 463 404 450 q 450 493 435 475 q 474 533 464 511 q 484 578 484 555 m 442 113 q 390 180 412 150 q 352 238 369 211 q 320 291 335 264 q 288 345 305 317 q 252 323 269 338 q 220 288 234 308 q 198 245 206 269 q 190 198 190 222 q 200 142 190 167 q 227 99 210 117 q 265 72 243 81 q 309 62 286 62 q 360 70 336 62 q 402 87 384 78 q 442 113 424 98 z "},"'":{"ha":238,"x_min":43,"x_max":195,"o":"m 195 633 q 192 602 195 625 q 180 547 188 578 l 140 369 l 97 369 l 59 545 q 48 601 52 576 q 43 633 43 625 q 49 662 43 648 q 65 686 55 676 q 89 702 75 696 q 119 708 103 708 q 149 702 135 708 q 173 686 163 696 q 189 662 183 676 q 195 633 195 648 z "},"(":{"ha":359,"x_min":40,"x_max":334,"o":"m 334 -210 q 248 -166 289 -194 q 172 -100 207 -138 q 76 56 111 -34 q 40 249 40 146 q 50 349 40 300 q 77 443 59 398 q 119 528 94 488 q 175 601 144 568 q 250 665 210 637 q 334 708 290 692 l 334 686 q 260 622 290 661 q 213 531 231 583 q 186 403 193 473 q 178 249 178 333 q 187 87 178 160 q 217 -43 195 15 q 263 -125 235 -90 q 334 -184 292 -161 l 334 -210 l 334 -210 z "},")":{"ha":359,"x_min":40,"x_max":334,"o":"m 40 -184 q 111 -125 83 -161 q 157 -43 140 -90 q 188 87 179 15 q 196 249 196 160 q 189 403 196 333 q 161 531 181 473 q 114 622 144 583 q 40 686 85 661 l 40 708 q 125 665 85 692 q 199 601 165 637 q 255 528 230 568 q 298 443 280 488 q 325 349 315 398 q 334 249 334 300 q 299 56 334 146 q 202 -100 263 -34 q 126 -166 168 -138 q 40 -210 85 -194 l 40 -184 z "},"*":{"ha":531,"x_min":18,"x_max":490,"o":"m 399 333 q 418 327 410 333 q 426 309 426 320 q 419 285 426 298 q 397 256 413 272 q 368 231 387 245 q 329 206 349 218 q 293 186 309 194 q 272 178 277 178 q 270 180 270 178 q 278 201 270 184 q 298 236 286 217 q 323 275 310 256 q 348 304 337 294 q 377 327 363 320 q 399 333 390 333 m 288 332 q 287 293 288 317 q 282 245 286 269 q 272 203 279 221 q 254 186 265 186 q 244 202 250 186 q 233 242 239 219 q 222 291 227 266 q 218 332 218 315 q 229 381 218 366 q 254 397 240 397 q 277 381 267 397 q 288 332 288 366 m 490 161 q 473 138 490 148 q 425 127 457 127 q 383 132 408 127 q 335 141 358 136 q 295 152 312 146 q 279 161 279 158 q 295 170 279 164 q 335 181 312 176 q 383 191 358 187 q 425 195 408 195 q 473 185 457 195 q 490 161 490 175 m 237 180 q 235 178 237 178 q 214 186 230 178 q 178 206 198 194 q 139 232 159 218 q 109 257 120 245 q 87 285 94 272 q 81 309 81 298 q 88 326 81 319 q 106 333 95 333 q 130 327 117 333 q 159 304 144 320 q 184 275 170 294 q 209 236 197 256 q 229 200 220 216 q 237 180 237 184 m 426 15 q 419 -3 426 4 q 399 -11 412 -11 q 377 -4 390 -11 q 348 18 363 2 q 323 47 337 28 q 298 86 310 66 q 278 122 286 106 q 270 142 270 138 q 272 144 270 144 q 293 136 277 144 q 329 116 309 128 q 368 91 349 104 q 397 66 387 77 q 419 38 413 51 q 426 15 426 24 m 229 161 q 213 152 229 158 q 173 141 196 146 q 124 132 149 136 q 83 127 99 127 q 33 138 48 127 q 18 161 18 148 q 33 185 18 175 q 83 195 48 195 q 124 191 99 195 q 173 181 149 187 q 213 170 196 176 q 229 161 229 164 m 288 -9 q 277 -59 288 -44 q 254 -75 267 -75 q 229 -59 240 -75 q 218 -9 218 -44 q 222 32 218 7 q 233 80 227 56 q 244 120 239 103 q 254 136 250 136 q 261 120 256 136 q 273 80 267 103 q 283 32 279 56 q 288 -9 288 7 m 235 144 q 237 142 237 144 q 229 122 237 138 q 209 87 220 106 q 184 48 197 67 q 159 18 170 28 q 130 -4 144 2 q 106 -11 117 -11 q 89 -4 97 -11 q 81 14 81 2 q 87 37 81 24 q 109 65 94 50 q 139 91 120 77 q 178 116 159 104 q 214 136 198 128 q 235 144 230 144 z "},"+":{"ha":659,"x_min":27,"x_max":631,"o":"m 363 264 l 363 0 l 295 0 l 295 264 l 27 264 l 27 334 l 295 334 l 295 604 l 363 604 l 363 334 l 631 334 l 631 264 l 363 264 z "},",":{"ha":272,"x_min":40,"x_max":235,"o":"m 235 29 q 222 -45 235 -11 q 186 -106 210 -79 q 131 -153 163 -133 q 60 -184 99 -172 l 60 -161 q 115 -128 93 -148 q 150 -87 137 -109 q 167 -47 162 -66 q 172 -14 172 -27 q 170 -2 172 -8 q 161 5 168 5 q 148 -1 155 5 q 125 -7 140 -7 q 92 -1 107 -7 q 65 15 77 5 q 47 40 54 26 q 40 73 40 55 q 47 105 40 90 q 65 132 54 121 q 92 150 77 144 q 125 157 107 157 q 167 149 147 157 q 202 124 187 140 q 226 85 217 109 q 235 29 235 61 z "},"-":{"ha":359,"x_min":20,"x_max":338,"o":"m 20 189 l 20 291 l 338 291 l 338 189 l 20 189 z "},".":{"ha":470,"x_min":161,"x_max":331,"o":"m 331 73 q 324 40 331 55 q 306 13 317 24 q 279 -5 294 1 q 245 -12 263 -12 q 213 -5 228 -12 q 186 13 197 1 q 168 40 174 24 q 161 73 161 55 q 168 105 161 90 q 186 132 174 121 q 213 150 197 144 q 245 157 228 157 q 279 150 263 157 q 306 132 294 144 q 324 105 317 121 q 331 73 331 90 z "},"/":{"ha":301,"x_min":4,"x_max":299,"o":"m 71 -15 l 4 -15 l 233 708 l 299 708 l 71 -15 z "},":":{"ha":475,"x_min":153,"x_max":323,"o":"m 323 407 q 316 374 323 389 q 298 347 309 359 q 271 329 286 336 q 237 322 255 322 q 204 329 220 322 q 178 347 189 336 q 159 374 166 359 q 153 407 153 389 q 159 440 153 425 q 178 467 166 455 q 204 485 189 478 q 237 492 220 492 q 271 485 255 492 q 298 467 286 478 q 316 440 309 455 q 323 407 323 425 m 323 73 q 316 40 323 55 q 298 13 309 24 q 271 -5 286 1 q 237 -12 255 -12 q 204 -5 220 -12 q 178 13 189 1 q 159 40 166 24 q 153 73 153 55 q 159 105 153 90 q 178 132 166 121 q 204 150 189 144 q 237 157 220 157 q 271 150 255 157 q 298 132 286 144 q 316 105 309 121 q 323 73 323 90 z "},";":{"ha":313,"x_min":78,"x_max":273,"o":"m 260 407 q 253 374 260 389 q 235 347 246 359 q 208 329 223 336 q 175 322 193 322 q 142 329 157 322 q 115 347 127 336 q 97 374 104 359 q 90 407 90 389 q 97 440 90 425 q 115 467 104 455 q 142 485 127 478 q 175 492 157 492 q 208 485 193 492 q 235 467 223 478 q 253 440 246 455 q 260 407 260 425 m 273 29 q 260 -45 273 -11 q 224 -106 248 -79 q 169 -153 201 -133 q 98 -184 137 -172 l 98 -161 q 153 -128 131 -148 q 188 -87 175 -109 q 205 -47 200 -66 q 210 -14 210 -27 q 208 -2 210 -8 q 199 5 206 5 q 186 -1 193 5 q 163 -7 178 -7 q 130 -1 145 -7 q 103 15 115 5 q 85 40 92 26 q 78 73 78 55 q 85 105 78 90 q 103 132 92 121 q 130 150 115 144 q 163 157 145 157 q 205 149 185 157 q 240 124 225 140 q 264 85 255 109 q 273 29 273 61 z "},"<":{"ha":984,"x_min":190,"x_max":794,"o":"m 190 271 l 190 334 l 794 566 l 794 503 l 254 302 l 794 102 l 794 39 l 190 271 z "},"=":{"ha":618,"x_min":24,"x_max":591,"o":"m 24 363 l 24 425 l 591 425 l 591 363 l 24 363 m 24 180 l 24 242 l 591 242 l 591 180 l 24 180 z "},">":{"ha":1007,"x_min":201,"x_max":806,"o":"m 201 39 l 201 102 l 741 302 l 201 503 l 201 565 l 806 334 l 806 271 l 201 39 z "},"?":{"ha":488,"x_min":47,"x_max":447,"o":"m 447 546 q 433 487 447 515 q 397 431 418 458 q 350 376 375 404 q 303 322 325 349 q 267 266 281 294 q 253 206 253 237 l 212 206 q 215 253 212 231 q 225 296 218 275 q 241 341 231 318 q 264 392 251 364 q 293 470 286 435 q 301 541 301 505 q 216 661 301 661 q 192 658 203 661 q 171 650 180 655 q 156 638 161 645 q 151 622 151 631 q 155 603 151 614 q 166 579 160 592 q 177 551 172 566 q 182 524 182 537 q 167 483 182 500 q 126 465 152 465 q 69 487 91 465 q 47 543 47 509 q 58 599 47 570 q 93 652 68 628 q 156 692 117 677 q 252 708 195 708 q 328 699 292 708 q 390 669 363 689 q 432 618 416 649 q 447 546 447 588 m 310 62 q 303 33 310 47 q 287 8 297 18 q 262 -9 276 -3 q 231 -15 248 -15 q 201 -9 215 -15 q 177 8 187 -3 q 160 33 166 18 q 154 62 154 47 q 160 93 154 79 q 177 118 166 107 q 201 135 187 129 q 231 141 215 141 q 262 135 248 141 q 287 118 276 129 q 303 93 297 107 q 310 62 310 79 z "},"@":{"ha":974,"x_min":47,"x_max":951,"o":"m 951 85 q 880 -43 924 14 q 778 -142 836 -101 q 650 -204 720 -182 q 498 -227 579 -227 q 323 -195 405 -227 q 180 -105 241 -163 q 83 37 119 -46 q 47 222 47 119 q 82 412 47 323 q 179 566 116 500 q 334 670 243 632 q 539 708 425 708 q 699 682 630 708 q 815 609 768 655 q 886 498 862 562 q 909 359 909 435 q 887 224 909 289 q 824 109 865 159 q 727 30 783 59 q 603 0 671 0 q 562 5 581 0 q 529 21 543 10 q 507 50 515 32 q 498 92 498 67 q 502 124 498 107 q 511 161 506 142 q 474 103 493 132 q 434 51 455 74 q 387 14 412 28 q 332 0 362 0 q 293 10 309 0 q 268 37 277 20 q 253 74 258 53 q 248 115 248 94 q 260 204 248 159 q 291 291 271 249 q 337 369 311 332 q 393 433 363 406 q 454 476 422 460 q 515 492 485 492 q 551 483 538 492 q 572 460 565 473 q 582 435 580 448 q 585 415 585 422 l 604 473 l 730 485 q 691 356 708 412 q 662 260 674 301 q 641 190 650 219 q 628 141 633 161 q 621 105 623 120 q 618 78 618 90 q 629 50 618 63 q 662 37 640 37 q 688 42 673 37 q 722 58 704 47 q 760 85 741 69 q 798 123 779 102 q 830 169 814 144 q 856 223 845 194 q 874 287 867 253 q 880 361 880 321 q 857 485 880 427 q 791 585 833 543 q 689 652 749 627 q 556 676 629 676 q 367 637 451 676 q 223 533 282 599 q 132 381 163 467 q 100 198 100 294 q 132 34 100 107 q 219 -91 164 -39 q 348 -170 274 -142 q 504 -197 421 -197 q 643 -177 577 -197 q 763 -119 709 -156 q 857 -30 817 -81 q 920 85 897 22 l 951 85 m 562 386 q 561 410 562 397 q 555 432 559 422 q 544 449 551 442 q 527 456 537 456 q 491 438 509 456 q 456 391 473 420 q 426 327 440 362 q 402 256 412 291 q 386 190 392 220 q 380 140 380 159 q 382 125 380 133 q 387 110 384 117 q 396 99 391 103 q 407 95 401 95 q 437 108 420 95 q 472 143 454 121 q 505 195 489 165 q 534 256 522 224 q 554 322 547 288 q 562 386 562 355 z "},"A":{"ha":757,"x_min":8,"x_max":751,"o":"m 404 0 l 404 41 q 467 48 449 41 q 485 73 485 56 q 484 85 485 77 q 477 108 482 93 q 463 148 472 123 q 436 211 453 173 l 214 211 q 194 159 203 182 q 180 120 186 138 q 174 96 174 101 q 196 57 174 70 q 266 41 218 44 l 266 0 l 8 0 l 8 41 q 40 49 26 44 q 66 65 54 54 q 90 96 79 77 q 115 146 102 115 l 346 708 l 387 708 l 644 123 q 667 84 654 100 q 694 59 680 69 q 723 45 708 50 q 751 41 737 41 l 751 0 l 404 0 m 318 475 l 236 271 l 410 271 l 318 475 z "},"B":{"ha":699,"x_min":21,"x_max":662,"o":"m 662 189 q 640 107 662 142 q 582 48 618 72 q 498 12 545 24 q 403 0 452 0 l 21 0 l 21 41 q 72 46 52 41 q 101 62 91 51 q 116 92 112 73 q 119 137 119 111 l 119 556 q 116 601 119 583 q 101 631 112 620 q 72 647 91 642 q 21 652 52 652 l 21 693 l 408 693 q 509 677 467 693 q 577 638 551 662 q 616 586 604 614 q 629 531 629 557 q 624 481 629 505 q 601 437 618 457 q 552 399 584 416 q 465 368 519 382 q 615 302 569 347 q 662 189 662 257 m 458 518 q 451 568 458 547 q 427 604 444 589 q 382 625 410 618 q 313 632 355 632 q 301 631 307 632 q 291 630 296 631 q 280 629 286 629 l 280 391 q 291 390 286 390 q 301 389 296 389 q 313 389 307 389 q 422 424 387 389 q 458 518 458 459 m 481 184 q 437 298 481 262 q 313 334 393 334 q 301 333 307 334 q 291 332 296 333 q 280 332 286 332 l 280 121 q 294 72 280 84 q 336 60 308 60 q 386 65 361 60 q 433 83 412 70 q 468 121 454 97 q 481 184 481 145 z "},"C":{"ha":757,"x_min":48,"x_max":716,"o":"m 716 168 q 675 109 700 141 q 615 49 651 77 q 529 3 578 22 q 414 -15 479 -15 q 253 14 321 -15 q 138 91 184 43 q 71 202 93 140 q 48 333 48 265 q 58 424 48 378 q 88 511 68 469 q 138 588 108 552 q 208 651 168 625 q 296 693 247 677 q 405 708 346 708 q 477 700 444 708 q 534 683 509 692 q 575 666 559 673 q 600 658 592 658 q 616 662 610 658 q 626 673 623 666 q 632 690 630 680 q 638 709 635 699 l 677 709 l 693 442 l 652 442 q 618 530 641 491 q 565 595 595 568 q 499 635 534 621 q 429 650 464 650 q 338 625 376 650 q 274 557 299 600 q 237 456 249 514 q 224 333 224 399 q 241 214 224 267 q 287 123 257 161 q 357 66 316 86 q 448 46 398 46 q 524 60 489 46 q 587 95 558 73 q 638 143 616 116 q 679 197 661 170 l 716 168 z "},"D":{"ha":749,"x_min":14,"x_max":707,"o":"m 707 347 q 683 209 707 273 q 615 99 660 146 q 507 26 571 53 q 361 0 442 0 l 14 0 l 14 41 q 65 46 45 41 q 95 62 84 51 q 109 92 105 73 q 112 137 112 111 l 112 556 q 109 601 112 583 q 95 631 105 620 q 65 647 84 642 q 14 652 45 652 l 14 693 l 361 693 q 507 666 442 693 q 615 591 571 638 q 683 481 660 544 q 707 347 707 418 m 522 347 q 513 447 522 396 q 479 539 503 498 q 415 607 455 581 q 313 633 374 633 q 297 632 304 633 q 284 631 290 632 q 273 630 278 631 l 273 69 q 299 61 282 64 q 338 59 317 59 q 427 84 392 59 q 484 151 463 110 q 513 243 505 192 q 522 347 522 295 z "},"E":{"ha":688,"x_min":22,"x_max":640,"o":"m 569 0 l 22 0 l 22 41 q 74 46 55 41 q 104 63 94 51 q 117 97 114 76 q 121 150 121 118 l 121 545 q 118 598 121 578 q 105 631 115 619 q 75 648 95 644 q 22 653 56 653 l 22 693 l 576 693 l 584 507 l 545 507 q 528 564 536 540 q 507 603 520 588 q 471 626 494 618 q 410 633 448 633 l 280 633 l 280 382 l 342 382 q 394 390 374 382 q 425 412 413 397 q 443 450 437 427 q 452 503 448 472 l 493 503 l 493 213 l 452 213 q 443 264 448 243 q 425 299 437 286 q 394 318 414 312 q 342 323 375 323 l 280 323 l 280 143 q 281 107 280 123 q 288 81 282 92 q 305 64 294 70 q 338 58 317 58 l 393 58 q 469 67 439 58 q 520 93 498 75 q 559 137 542 110 q 598 201 577 164 l 640 201 l 569 0 z "},"F":{"ha":637,"x_min":21,"x_max":584,"o":"m 544 507 q 528 564 535 540 q 507 603 520 588 q 470 626 493 618 q 409 633 448 633 l 280 633 l 280 382 l 344 382 q 394 390 375 382 q 425 412 414 397 q 443 450 437 427 q 452 503 448 472 l 493 503 l 493 213 l 452 213 q 442 264 448 243 q 426 299 437 286 q 395 318 414 312 q 344 323 376 323 l 280 323 l 280 137 q 283 94 280 112 q 296 64 286 75 q 326 46 307 52 q 379 41 346 41 l 379 0 l 21 0 l 21 41 q 72 46 52 41 q 101 62 91 51 q 116 92 112 73 q 119 137 119 111 l 119 556 q 116 601 119 583 q 101 631 112 620 q 72 647 91 642 q 21 652 52 652 l 21 693 l 576 693 l 584 507 l 544 507 z "},"G":{"ha":815,"x_min":39,"x_max":801,"o":"m 801 338 q 758 333 774 338 q 733 317 742 328 q 722 287 724 306 q 719 242 719 269 l 719 58 q 581 2 654 19 q 417 -15 507 -15 q 250 16 321 -15 q 132 98 178 47 q 62 214 85 149 q 39 347 39 279 q 65 479 39 414 q 141 595 92 545 q 261 677 190 646 q 421 708 332 708 q 497 700 463 708 q 558 683 531 692 q 604 666 585 673 q 635 658 623 658 q 647 664 643 658 q 654 679 652 671 q 657 696 656 688 q 659 709 658 705 l 699 709 l 719 460 l 679 460 q 644 542 667 506 q 590 603 621 578 q 525 641 560 628 q 452 654 490 654 q 349 631 392 654 q 278 566 306 608 q 236 469 250 525 q 223 347 223 412 q 233 233 223 288 q 267 134 242 178 q 334 65 291 91 q 444 39 377 39 q 507 45 480 39 q 558 68 533 51 l 558 242 q 554 287 558 269 q 541 317 551 306 q 514 333 531 328 q 469 338 496 338 l 469 379 l 801 379 l 801 338 z "},"H":{"ha":814,"x_min":20,"x_max":795,"o":"m 438 0 l 438 41 q 489 46 469 41 q 519 62 508 51 q 533 92 530 73 q 536 137 536 111 l 536 313 l 279 313 l 279 137 q 282 92 279 111 q 296 62 286 73 q 326 46 307 51 q 377 41 345 41 l 377 0 l 20 0 l 20 41 q 71 46 52 41 q 101 62 90 51 q 115 92 111 73 q 118 137 118 111 l 118 556 q 115 601 118 583 q 101 631 111 620 q 71 647 90 642 q 20 652 52 652 l 20 693 l 377 693 l 377 652 q 326 647 345 652 q 296 631 307 642 q 282 601 286 620 q 279 556 279 583 l 279 378 l 536 378 l 536 556 q 533 601 536 583 q 519 631 530 620 q 489 647 508 642 q 438 652 469 652 l 438 693 l 795 693 l 795 652 q 744 647 764 652 q 714 631 725 642 q 701 601 704 620 q 697 556 697 583 l 697 137 q 701 92 697 111 q 714 62 704 73 q 744 46 725 51 q 795 41 764 41 l 795 0 l 438 0 z "},"I":{"ha":399,"x_min":21,"x_max":378,"o":"m 21 0 l 21 41 q 72 45 52 41 q 101 59 91 49 q 116 86 112 69 q 119 130 119 104 l 119 556 q 116 601 119 583 q 101 631 112 620 q 72 647 91 642 q 21 652 52 652 l 21 693 l 378 693 l 378 652 q 327 647 347 652 q 297 631 308 642 q 283 601 287 620 q 280 556 280 583 l 280 130 q 283 86 280 104 q 297 59 287 69 q 327 45 308 49 q 378 41 347 41 l 378 0 l 21 0 z "},"J":{"ha":524,"x_min":25,"x_max":518,"o":"m 518 652 q 467 647 486 652 q 437 631 448 642 q 423 601 427 620 q 420 556 420 583 l 420 277 q 398 138 420 194 q 342 48 376 83 q 267 0 309 14 q 187 -15 226 -15 q 119 -6 149 -15 q 68 19 89 3 q 36 56 47 35 q 25 101 25 77 q 43 154 25 135 q 87 174 61 174 q 128 164 113 174 q 151 139 143 154 q 163 106 159 123 q 173 74 168 89 q 186 48 178 58 q 212 39 195 39 q 247 66 234 39 q 259 140 259 94 l 259 556 q 254 601 259 583 q 238 631 250 620 q 205 647 226 642 q 154 652 185 652 l 154 693 l 518 693 l 518 652 z "},"K":{"ha":813,"x_min":21,"x_max":826,"o":"m 444 0 l 444 41 q 486 49 473 41 q 498 71 498 58 q 495 91 498 80 q 483 113 492 101 l 298 308 l 280 292 l 280 137 q 283 92 280 111 q 296 62 287 73 q 321 46 305 51 q 364 41 338 41 l 364 0 l 21 0 l 21 41 q 72 46 52 41 q 101 62 91 51 q 116 92 112 73 q 119 137 119 111 l 119 556 q 116 601 119 583 q 101 631 112 620 q 72 647 91 642 q 21 652 52 652 l 21 693 l 361 693 l 361 652 q 319 647 335 652 q 295 631 304 642 q 283 601 286 620 q 280 556 280 583 l 280 393 q 393 497 343 450 q 434 537 414 517 q 470 575 454 557 q 495 605 486 592 q 505 623 505 617 q 489 648 505 643 q 439 652 473 652 l 439 693 l 728 693 l 728 652 q 689 650 705 652 q 660 643 673 648 q 635 629 647 637 q 608 609 623 621 l 408 403 l 675 125 q 720 84 698 100 q 761 58 741 68 q 797 45 780 49 q 826 41 813 41 l 826 0 l 444 0 z "},"L":{"ha":688,"x_min":20,"x_max":673,"o":"m 600 0 l 20 0 l 20 41 q 71 46 52 41 q 101 62 90 51 q 115 92 111 73 q 118 137 118 111 l 118 556 q 115 601 118 583 q 101 631 111 620 q 71 647 90 642 q 20 652 52 652 l 20 693 l 385 693 l 385 652 q 333 647 353 652 q 300 631 313 642 q 283 601 288 620 q 279 556 279 583 l 279 137 q 282 99 279 114 q 296 76 285 84 q 331 64 308 67 q 392 60 353 60 l 446 60 q 497 68 473 60 q 545 97 522 77 q 590 153 568 118 q 633 243 612 189 l 673 243 l 600 0 z "},"M":{"ha":984,"x_min":7,"x_max":965,"o":"m 594 0 l 594 41 q 647 44 625 41 q 681 56 668 47 q 700 81 694 64 q 705 123 705 97 l 705 569 l 453 0 l 420 0 l 170 587 l 170 123 q 177 78 170 95 q 196 54 183 62 q 227 43 208 45 q 271 41 246 41 l 271 0 l 7 0 l 7 41 q 50 43 32 41 q 81 54 68 45 q 99 78 93 62 q 106 123 106 95 l 106 563 q 104 607 106 589 q 95 634 103 624 q 70 648 87 644 q 21 652 52 652 l 21 693 l 300 693 l 486 237 l 694 693 l 965 693 l 965 652 q 915 648 934 652 q 884 634 895 644 q 870 607 873 624 q 866 563 866 589 l 866 123 q 870 81 866 97 q 884 56 873 64 q 915 44 895 47 q 965 41 934 41 l 965 0 l 594 0 z "},"N":{"ha":732,"x_min":17,"x_max":713,"o":"m 713 652 q 674 649 689 652 q 650 638 659 646 q 638 615 642 630 q 635 578 635 601 l 635 -11 l 575 -11 l 170 513 l 170 115 q 175 77 170 92 q 191 54 180 62 q 220 43 202 46 q 263 41 237 41 l 263 0 l 17 0 l 17 41 q 58 43 41 41 q 85 54 75 46 q 101 77 96 62 q 106 115 106 92 l 106 595 q 81 627 90 615 q 63 644 71 638 q 44 651 54 650 q 17 653 34 653 l 17 693 l 245 693 l 570 271 l 570 578 q 566 615 570 601 q 553 638 562 630 q 526 649 543 646 q 484 652 509 652 l 484 693 l 713 693 l 713 652 l 713 652 z "},"O":{"ha":811,"x_min":37,"x_max":774,"o":"m 774 347 q 748 208 774 274 q 675 93 723 142 q 560 13 628 43 q 406 -16 492 -16 q 252 13 321 -16 q 136 92 184 42 q 63 207 88 141 q 37 347 37 273 q 65 488 37 422 q 141 603 92 554 q 258 680 191 652 q 405 708 326 708 q 559 679 490 708 q 675 601 627 650 q 748 486 723 551 q 774 347 774 420 m 589 343 q 586 414 589 378 q 574 486 582 451 q 552 552 566 521 q 517 606 538 583 q 469 643 496 629 q 405 656 441 656 q 341 643 369 656 q 293 606 313 629 q 259 553 273 583 q 237 488 245 522 q 225 419 229 454 q 222 351 222 383 q 225 286 222 321 q 237 215 229 250 q 259 148 245 180 q 293 91 273 116 q 341 52 313 66 q 405 37 368 37 q 495 66 459 37 q 551 141 530 96 q 581 240 572 186 q 589 343 589 294 z "},"P":{"ha":637,"x_min":24,"x_max":606,"o":"m 606 505 q 590 428 606 465 q 542 364 575 392 q 455 320 508 336 q 327 304 402 304 q 309 304 317 304 q 294 305 301 304 q 280 307 287 306 l 280 124 q 284 83 280 99 q 298 58 288 67 q 327 44 308 48 q 376 41 345 41 l 376 0 l 24 0 l 24 41 q 74 44 56 41 q 103 58 93 48 q 116 85 113 68 q 119 129 119 102 l 119 578 q 116 617 119 602 q 103 639 113 631 q 74 650 93 647 q 24 652 56 652 l 24 693 l 355 693 q 461 680 414 693 q 539 642 507 666 q 589 582 572 617 q 606 505 606 547 m 435 505 q 429 557 435 533 q 408 597 423 581 q 368 624 393 614 q 303 633 342 633 q 295 632 299 633 q 288 631 291 632 q 280 630 283 631 l 280 366 q 288 364 284 365 q 295 363 291 363 q 303 363 298 363 q 368 374 342 363 q 408 404 393 385 q 429 449 423 423 q 435 505 435 475 z "},"Q":{"ha":811,"x_min":37,"x_max":774,"o":"m 774 347 q 752 228 774 286 q 694 124 730 171 q 610 43 657 77 q 511 -5 562 9 q 555 -66 530 -37 q 611 -119 579 -96 q 682 -158 642 -142 q 771 -179 721 -174 l 771 -220 q 622 -203 692 -220 q 490 -159 551 -187 q 380 -91 429 -130 q 295 -4 331 -51 q 194 44 241 12 q 112 122 146 77 q 57 223 77 167 q 37 347 37 280 q 64 488 37 422 q 139 603 90 554 q 255 680 187 652 q 405 708 322 708 q 557 680 489 708 q 673 603 625 652 q 748 488 722 554 q 774 347 774 422 m 589 347 q 587 420 589 383 q 576 491 584 457 q 556 556 569 526 q 522 608 543 586 q 473 644 502 631 q 405 656 444 656 q 314 628 349 656 q 258 556 278 600 q 230 456 237 511 q 222 347 222 401 q 231 237 222 292 q 261 137 239 182 q 317 65 282 93 q 405 37 353 37 q 468 50 440 37 q 515 85 495 62 q 550 137 536 107 q 573 202 564 168 q 586 273 582 236 q 589 347 589 310 z "},"R":{"ha":753,"x_min":19,"x_max":803,"o":"m 530 0 l 305 313 q 291 312 301 312 q 282 312 287 312 q 275 313 278 313 l 275 131 q 278 89 275 106 q 293 61 282 71 q 322 45 303 50 q 371 41 340 41 l 371 0 l 19 0 l 19 41 q 69 45 50 41 q 98 61 88 50 q 111 91 108 73 q 114 136 114 109 l 114 571 q 111 611 114 595 q 98 636 108 627 q 69 649 88 645 q 19 652 50 652 l 19 693 l 307 693 q 422 688 366 693 q 523 665 479 683 q 594 611 567 646 q 621 515 621 575 q 610 441 621 473 q 581 387 600 410 q 538 349 563 363 q 484 329 513 335 l 633 151 q 679 101 658 122 q 720 67 700 81 q 759 48 739 54 q 803 41 779 41 l 803 0 l 530 0 m 452 505 q 448 551 452 528 q 431 592 444 574 q 392 622 418 610 q 323 633 366 633 q 301 632 310 633 q 286 631 292 632 q 275 630 279 631 l 275 373 q 299 371 282 372 q 331 370 315 370 q 376 379 354 370 q 415 406 398 389 q 442 449 432 424 q 452 505 452 474 z "},"S":{"ha":583,"x_min":48,"x_max":541,"o":"m 541 196 q 522 110 541 149 q 471 43 503 71 q 394 0 438 16 q 298 -15 349 -15 q 236 -9 260 -15 q 197 5 213 -3 q 168 19 180 13 q 138 25 155 25 q 107 14 119 25 q 86 -15 96 3 l 48 -15 l 48 246 l 88 246 q 107 172 92 210 q 149 103 122 134 q 213 52 175 72 q 301 33 251 33 q 345 39 323 33 q 381 58 366 45 q 407 89 397 71 q 416 129 416 106 q 401 183 416 159 q 360 227 385 207 q 302 265 334 247 q 236 301 269 283 q 170 339 202 319 q 112 384 137 359 q 71 440 86 409 q 55 511 55 471 q 71 591 55 555 q 116 653 87 627 q 184 693 144 679 q 272 708 224 708 q 330 701 305 708 q 374 685 355 694 q 408 669 393 676 q 437 662 422 662 q 457 675 450 662 q 467 708 464 689 l 507 708 l 507 450 l 464 450 q 441 536 459 498 q 398 602 424 575 q 340 644 372 629 q 275 659 308 659 q 236 652 254 659 q 203 633 217 646 q 180 604 189 621 q 172 567 172 587 q 188 519 172 541 q 230 479 204 498 q 289 444 256 460 q 357 409 322 427 q 425 370 391 391 q 484 325 458 350 q 525 268 509 300 q 541 196 541 237 z "},"T":{"ha":698,"x_min":24,"x_max":667,"o":"m 627 486 q 583 597 619 562 q 473 633 546 633 l 429 633 l 429 130 q 432 86 429 104 q 447 59 436 69 q 478 45 458 49 q 529 41 497 41 l 529 0 l 168 0 l 168 41 q 219 45 199 41 q 250 59 239 49 q 264 86 260 69 q 268 130 268 104 l 268 633 l 217 633 q 154 625 181 633 q 109 600 127 617 q 79 554 90 583 q 65 486 68 526 l 24 486 l 31 693 l 661 693 l 667 486 l 627 486 z "},"U":{"ha":757,"x_min":-2,"x_max":741,"o":"m 741 652 q 693 648 712 652 q 663 634 674 644 q 647 608 652 624 q 643 570 643 592 l 643 276 q 629 161 643 214 q 584 69 615 108 q 501 7 552 30 q 375 -15 450 -15 q 229 6 284 -15 q 143 67 173 27 q 102 166 113 108 q 92 299 92 224 l 92 563 q 89 607 92 589 q 76 634 86 624 q 48 648 66 644 q -2 652 29 652 l -2 693 l 353 693 l 353 652 q 302 648 322 652 q 272 634 283 644 q 257 607 261 624 q 253 563 253 589 l 253 258 q 261 161 253 201 q 288 96 270 121 q 332 60 305 71 q 396 49 359 49 q 469 60 437 49 q 525 97 501 71 q 566 175 553 127 q 578 296 578 222 l 578 570 q 574 612 578 596 q 559 637 570 629 q 529 649 548 646 q 478 652 509 652 l 478 693 l 741 693 l 741 652 z "},"V":{"ha":757,"x_min":-2,"x_max":746,"o":"m 746 652 q 709 640 724 647 q 682 623 693 633 q 661 598 670 612 q 644 564 652 583 l 410 -15 l 359 -15 l 96 571 q 78 607 86 593 q 60 630 70 621 q 35 643 50 638 q -2 652 21 648 l -2 693 l 340 693 l 340 652 q 300 650 317 652 q 274 644 284 648 q 260 634 264 640 q 256 620 256 628 q 258 608 256 616 q 263 590 260 600 q 270 572 267 581 q 277 557 274 563 l 432 214 l 561 529 q 571 562 567 545 q 576 590 576 578 q 567 616 576 605 q 546 635 559 627 q 519 647 534 643 q 492 652 504 651 l 492 693 l 746 693 l 746 652 l 746 652 z "},"W":{"ha":1065,"x_min":-2,"x_max":1054,"o":"m 1054 652 q 1026 648 1038 652 q 1004 631 1015 643 q 985 598 994 618 q 963 547 975 578 l 742 -15 l 701 -15 l 537 399 l 362 -15 l 321 -15 l 106 549 q 86 597 94 578 q 66 629 77 617 q 40 647 56 642 q -2 652 24 652 l -2 693 l 340 693 l 340 652 q 310 650 324 652 q 285 643 296 648 q 268 631 274 638 q 261 613 261 623 q 264 589 261 603 q 273 559 267 576 l 396 236 l 503 486 q 473 564 486 532 q 447 615 460 595 q 418 644 434 635 q 378 652 401 652 l 378 693 l 722 693 l 722 652 q 685 651 702 652 q 655 646 667 649 q 635 636 642 642 q 627 621 627 629 q 637 581 627 606 l 768 245 l 886 521 q 895 544 890 531 q 904 569 899 556 q 911 592 908 581 q 913 610 913 604 q 898 645 913 637 q 854 652 882 652 l 854 693 l 1054 693 l 1054 652 z "},"X":{"ha":757,"x_min":0,"x_max":783,"o":"m 390 0 l 390 41 q 439 52 423 41 q 455 79 455 62 q 447 105 455 87 q 425 145 439 122 q 391 197 410 169 q 348 256 371 226 l 268 164 q 245 137 254 149 q 232 116 237 125 q 225 99 227 107 q 224 83 224 92 q 227 68 224 76 q 239 55 231 61 q 263 45 248 49 q 300 41 278 41 l 300 0 l 0 0 l 0 41 q 45 50 24 45 q 84 65 66 56 q 120 89 103 75 q 153 124 137 103 l 306 320 q 229 432 263 382 q 172 516 195 481 q 121 588 144 557 q 94 622 107 609 q 68 641 80 634 q 44 650 56 648 q 22 652 33 652 l 22 693 l 380 693 l 380 652 q 327 645 343 652 q 310 623 310 638 q 310 617 310 619 q 313 609 310 614 q 321 592 315 603 q 340 563 328 582 q 371 513 352 543 q 420 439 391 484 q 491 527 465 494 q 530 576 517 559 q 546 601 543 594 q 549 614 549 608 q 543 630 549 623 q 525 642 536 637 q 498 650 513 647 q 467 652 484 652 l 467 693 l 728 693 l 728 652 q 693 647 708 652 q 664 631 677 642 q 636 605 650 621 q 605 567 623 589 l 463 391 l 663 105 q 682 83 671 94 q 708 62 693 71 q 742 47 723 53 q 783 41 761 41 l 783 0 l 390 0 z "},"Y":{"ha":757,"x_min":9,"x_max":744,"o":"m 744 652 q 712 649 726 652 q 683 634 698 646 q 650 598 667 622 q 608 533 632 574 l 458 280 l 458 130 q 464 86 458 104 q 483 59 470 69 q 518 45 496 49 q 571 41 540 41 l 571 0 l 182 0 l 182 41 q 235 45 214 41 q 271 59 257 49 q 291 86 285 69 q 297 130 297 104 l 297 253 l 123 547 q 92 597 105 576 q 65 629 78 617 q 39 647 52 642 q 9 652 26 652 l 9 693 l 341 693 l 341 652 q 285 646 304 652 q 266 625 266 640 q 274 599 266 616 q 301 550 282 582 q 350 471 319 519 q 427 353 381 422 l 549 562 q 565 595 560 579 q 570 623 570 611 q 555 645 570 637 q 504 652 541 652 l 504 693 l 744 693 l 744 652 l 744 652 z "},"Z":{"ha":699,"x_min":24,"x_max":659,"o":"m 626 0 l 24 0 l 24 41 l 421 633 l 285 633 q 175 594 216 633 q 119 470 134 555 l 78 470 l 94 693 l 652 693 l 229 60 l 353 60 q 451 68 408 60 q 528 98 494 77 q 584 159 561 120 q 619 258 606 197 l 659 252 l 626 0 z "},"[":{"ha":359,"x_min":83,"x_max":300,"o":"m 291 -164 l 83 -136 l 83 710 l 291 737 l 300 684 l 199 664 l 199 -89 l 300 -110 l 291 -164 z "},"\\":{"ha":301,"x_min":6,"x_max":299,"o":"m 234 -15 l 6 708 l 71 708 l 299 -15 l 234 -15 z "},"]":{"ha":359,"x_min":63,"x_max":280,"o":"m 63 -110 l 165 -89 l 165 664 l 63 684 l 73 737 l 280 710 l 280 -136 l 73 -164 l 63 -110 z "},"^":{"ha":1007,"x_min":234,"x_max":774,"o":"m 691 10 l 504 517 l 317 10 l 234 10 l 473 635 l 534 635 l 774 10 l 691 10 z "},"_":{"ha":565,"x_min":0,"x_max":565,"o":"m 0 -148 l 0 -74 l 565 -74 l 565 -148 l 0 -148 z "},"`":{"ha":359,"x_min":9,"x_max":271,"o":"m 205 543 l 60 629 q 21 659 34 644 q 9 690 9 673 q 22 728 9 713 q 58 744 35 744 q 98 734 79 744 q 135 704 117 724 l 271 543 l 205 543 z "},"a":{"ha":519,"x_min":37,"x_max":519,"o":"m 519 68 q 498 47 513 60 q 463 21 483 34 q 419 0 443 9 q 370 -9 395 -9 q 339 -4 353 -9 q 314 12 325 2 q 298 34 304 22 q 292 61 292 47 q 258 34 275 47 q 224 11 241 21 q 187 -4 206 1 q 146 -9 168 -9 q 65 22 94 -9 q 37 111 37 54 q 64 181 37 150 q 130 237 91 212 q 213 279 169 261 q 292 310 257 298 l 292 329 q 288 373 292 353 q 277 407 284 393 q 257 430 269 422 q 229 438 245 438 q 191 423 203 438 q 180 364 180 408 q 176 340 180 353 q 165 317 173 328 q 144 300 157 307 q 112 294 132 294 q 66 311 83 294 q 49 357 49 328 q 67 411 49 387 q 115 450 86 434 q 177 474 143 466 q 240 482 210 482 q 332 474 294 482 q 394 446 370 465 q 428 396 418 427 q 439 322 439 366 l 439 183 q 439 142 439 163 q 441 108 439 121 q 448 91 443 98 q 464 83 452 83 q 477 87 469 83 q 494 96 486 91 q 509 107 502 102 q 519 117 516 113 l 519 68 m 292 261 q 238 232 259 247 q 204 201 216 216 q 186 169 191 185 q 181 135 181 152 q 192 97 181 113 q 223 81 203 81 q 258 93 240 81 q 292 122 276 105 l 292 261 z "},"b":{"ha":581,"x_min":-3,"x_max":551,"o":"m 551 273 q 531 163 551 216 q 476 71 511 111 q 394 8 441 31 q 292 -16 347 -16 q 233 -9 262 -16 q 176 9 203 -2 q 124 33 149 20 q 82 60 100 46 l 82 570 q 76 625 82 610 q 54 639 70 639 q 31 637 44 639 q 9 631 18 635 l -3 669 l 187 726 l 228 726 l 228 387 q 304 460 264 438 q 381 482 343 482 q 447 468 416 482 q 501 426 477 453 q 538 359 524 398 q 551 273 551 321 m 309 37 q 353 54 336 37 q 381 96 370 70 q 396 155 392 122 q 401 222 401 188 q 396 281 401 252 q 382 331 392 309 q 355 367 372 353 q 315 380 338 380 q 272 366 296 380 q 228 326 248 351 l 228 89 q 266 51 244 64 q 309 37 288 37 z "},"c":{"ha":487,"x_min":46,"x_max":456,"o":"m 456 173 q 434 104 449 138 q 394 43 418 70 q 335 1 369 17 q 256 -16 300 -16 q 170 2 208 -16 q 103 52 131 20 q 61 125 76 83 q 46 216 46 168 q 64 326 46 277 q 113 410 83 375 q 182 463 143 444 q 263 482 221 482 q 347 469 313 482 q 404 438 382 456 q 435 397 425 419 q 446 358 446 376 q 430 312 446 330 q 384 294 415 294 q 345 304 358 294 q 324 330 331 315 q 313 363 317 345 q 302 396 309 381 q 281 422 295 412 q 241 432 268 432 q 183 402 204 432 q 163 315 163 372 q 174 228 163 268 q 206 157 186 187 q 255 111 227 127 q 317 94 283 94 q 344 97 330 94 q 372 110 358 100 q 400 138 387 119 q 427 186 414 156 l 456 173 z "},"d":{"ha":577,"x_min":28,"x_max":588,"o":"m 398 -16 l 357 -16 l 357 46 q 294 -1 326 14 q 221 -16 262 -16 q 153 -1 187 -16 q 91 43 119 14 q 45 117 63 73 q 28 220 28 161 q 47 329 28 280 q 99 411 67 377 q 171 464 131 445 q 251 482 210 482 q 307 473 280 482 q 357 441 334 463 l 357 570 q 351 625 357 610 q 329 639 345 639 q 307 637 319 639 q 285 631 294 635 l 273 669 l 463 726 l 503 726 l 503 141 q 509 86 503 101 q 532 72 515 72 q 553 74 540 72 q 576 79 566 76 l 588 41 l 398 -16 m 357 323 q 349 367 357 347 q 328 402 341 387 q 298 427 315 418 q 264 435 281 435 q 232 427 248 435 q 203 398 216 418 q 184 346 191 378 q 176 267 176 314 q 185 177 176 216 q 208 113 194 139 q 241 75 222 87 q 279 62 259 62 q 320 77 301 62 q 357 113 340 93 l 357 323 z "},"e":{"ha":480,"x_min":35,"x_max":445,"o":"m 445 173 q 422 104 437 138 q 382 43 407 70 q 324 1 358 17 q 245 -16 290 -16 q 156 2 195 -16 q 90 54 117 20 q 48 133 62 87 q 35 235 35 178 q 55 338 35 292 q 107 416 75 384 q 180 466 139 448 q 262 483 220 483 q 332 472 299 483 q 391 436 366 460 q 430 372 416 411 q 445 277 445 332 l 152 277 q 162 211 152 244 q 192 152 172 178 q 241 110 212 126 q 306 94 269 94 q 367 114 340 94 q 415 186 394 134 l 445 173 m 308 321 q 304 356 308 336 q 290 392 300 375 q 264 420 280 409 q 224 432 248 432 q 198 424 211 432 q 174 402 184 416 q 157 367 163 387 q 151 321 151 346 l 308 321 z "},"f":{"ha":372,"x_min":18,"x_max":489,"o":"m 489 637 q 484 615 489 625 q 471 595 479 604 q 452 582 463 587 q 426 576 440 576 q 395 584 408 576 q 372 601 382 591 q 355 624 363 611 q 339 646 347 636 q 321 664 331 656 q 297 671 311 671 q 274 659 282 671 q 263 629 267 648 q 258 588 259 611 q 258 543 258 566 l 258 468 l 376 468 l 376 410 l 258 410 l 258 113 q 264 75 258 90 q 282 54 271 61 q 309 43 294 46 q 340 41 323 41 l 340 0 l 39 0 l 39 41 q 94 56 75 41 q 112 113 112 71 l 112 410 l 18 410 l 18 468 l 112 468 l 112 471 q 117 518 112 491 q 134 573 123 545 q 163 629 145 602 q 207 678 182 656 q 267 713 233 700 q 343 726 300 726 q 407 719 380 726 q 452 699 434 711 q 480 670 471 686 q 489 637 489 654 z "},"g":{"ha":554,"x_min":24,"x_max":541,"o":"m 541 420 q 535 395 541 404 q 512 387 529 387 q 496 387 505 387 q 478 388 488 387 q 461 389 469 388 q 448 389 453 389 q 467 355 461 375 q 473 315 473 334 q 461 256 473 286 q 425 203 449 227 q 363 165 400 180 q 278 150 327 150 q 241 152 260 150 q 205 158 222 155 q 180 135 191 147 q 168 111 168 123 q 184 95 168 100 q 225 90 199 91 q 282 89 250 89 q 349 87 315 90 q 415 79 382 85 q 472 58 447 73 q 513 20 498 44 q 529 -43 529 -5 q 516 -100 529 -74 q 480 -146 503 -125 q 430 -182 458 -167 q 371 -207 401 -197 q 310 -222 340 -217 q 253 -227 279 -227 q 163 -219 205 -227 q 91 -198 121 -212 q 42 -166 60 -185 q 24 -125 24 -148 q 46 -73 24 -100 q 121 -16 68 -47 q 79 9 94 -9 q 63 47 63 28 q 71 77 63 61 q 91 109 79 92 q 120 142 104 125 q 155 173 137 158 q 123 193 139 180 q 95 224 107 206 q 74 265 82 243 q 66 313 66 288 q 81 384 66 352 q 123 437 96 415 q 187 470 151 458 q 266 482 224 482 q 318 476 296 482 q 360 464 340 471 q 399 451 380 457 q 444 446 419 446 q 460 446 450 446 q 480 447 470 447 q 501 448 491 448 q 518 449 511 449 q 536 443 532 449 q 541 420 541 437 m 345 296 q 342 340 345 315 q 330 390 338 366 q 305 429 321 413 q 264 446 290 446 q 231 435 244 446 q 209 409 217 425 q 198 374 201 393 q 195 335 195 354 q 199 284 195 311 q 211 237 202 258 q 236 201 220 215 q 278 187 252 187 q 311 198 298 187 q 332 224 324 208 q 342 259 340 240 q 345 296 345 278 m 465 -76 q 452 -52 465 -60 q 421 -39 439 -43 q 369 -32 401 -34 q 301 -28 336 -29 q 231 -25 265 -26 q 173 -23 197 -24 q 154 -54 159 -40 q 149 -77 149 -67 q 166 -107 149 -95 q 209 -125 183 -119 q 262 -134 234 -132 q 313 -137 291 -137 q 362 -134 336 -137 q 411 -124 389 -131 q 449 -105 434 -117 q 465 -76 465 -94 z "},"h":{"ha":590,"x_min":3,"x_max":587,"o":"m 332 0 l 332 41 q 359 42 348 41 q 376 51 370 44 q 385 73 382 58 q 388 113 388 87 l 388 297 q 375 370 388 348 q 330 392 362 392 q 307 387 319 392 q 282 372 295 381 q 258 351 270 363 q 234 327 245 339 l 234 113 q 237 75 234 90 q 245 54 239 61 q 262 43 252 46 q 290 41 273 41 l 290 0 l 30 0 l 30 41 q 60 44 48 41 q 77 56 71 47 q 86 78 83 64 q 88 113 88 92 l 88 570 q 80 624 88 610 q 58 639 73 639 q 39 637 48 639 q 21 631 31 635 l 3 666 l 193 726 l 234 726 l 234 385 q 275 422 256 405 q 314 453 294 440 q 356 474 334 467 q 408 482 378 482 q 470 467 446 482 q 509 426 494 451 q 528 369 523 400 q 534 306 534 337 l 534 113 q 536 77 534 91 q 545 54 538 62 q 561 43 551 46 q 587 41 571 41 l 587 0 l 332 0 z "},"i":{"ha":329,"x_min":25,"x_max":312,"o":"m 264 654 q 257 621 264 636 q 240 593 251 605 q 214 575 229 582 q 181 568 199 568 q 148 575 163 568 q 121 592 133 581 q 103 620 110 604 q 96 654 96 635 q 103 687 96 671 q 121 713 110 702 q 148 730 133 724 q 181 736 163 736 q 213 729 197 736 q 239 712 228 723 q 257 686 250 701 q 264 654 264 671 m 52 0 l 52 41 q 82 44 71 41 q 99 55 93 47 q 107 77 105 62 q 110 113 110 91 l 110 326 q 104 380 110 366 q 81 395 98 395 q 60 393 73 395 q 37 387 47 391 l 25 425 l 215 482 l 256 482 l 256 113 q 258 76 256 90 q 268 54 261 62 q 285 43 274 46 q 312 41 296 41 l 312 0 l 52 0 z "},"j":{"ha":353,"x_min":-94,"x_max":273,"o":"m 273 654 q 266 621 273 637 q 247 593 259 605 q 220 575 235 582 q 186 568 204 568 q 127 592 151 568 q 103 654 103 616 q 110 686 103 671 q 128 712 117 701 q 155 730 140 724 q 186 736 170 736 q 219 730 203 736 q 247 712 235 724 q 266 686 258 701 q 273 654 273 671 m 262 57 q 245 -55 262 -3 q 197 -145 229 -107 q 120 -205 165 -183 q 18 -227 75 -227 q -65 -206 -35 -227 q -94 -151 -94 -185 q -90 -129 -94 -140 q -77 -109 -85 -118 q -57 -95 -68 -100 q -31 -90 -45 -90 q -1 -96 -13 -90 q 20 -111 12 -102 q 35 -131 28 -120 q 46 -150 41 -141 q 59 -165 52 -159 q 77 -171 66 -171 q 100 -159 92 -171 q 112 -130 108 -148 q 116 -88 115 -111 q 117 -42 117 -65 l 117 326 q 111 380 117 366 q 88 395 104 395 q 66 393 79 395 q 44 387 53 391 l 32 425 l 222 482 l 262 482 l 262 57 z "},"k":{"ha":595,"x_min":2,"x_max":599,"o":"m 322 0 l 322 41 q 348 44 337 41 q 359 58 359 47 q 353 74 359 64 q 342 93 348 84 l 233 238 l 233 113 q 235 74 233 89 q 244 52 238 60 q 261 43 250 45 q 288 41 272 41 l 288 0 l 28 0 l 28 41 q 58 44 47 41 q 76 56 70 47 q 84 78 82 64 q 87 113 87 92 l 87 570 q 79 624 87 610 q 56 639 71 639 q 38 637 47 639 q 20 631 28 635 l 2 666 l 192 726 l 233 726 l 233 269 l 344 367 q 359 383 352 374 q 366 401 366 391 q 362 412 366 408 q 353 420 359 417 q 341 425 348 423 q 329 427 335 427 l 329 468 l 566 468 l 566 427 q 528 423 544 426 q 497 413 511 420 q 471 397 484 407 q 442 372 458 387 l 362 294 l 505 100 q 532 66 520 78 q 555 48 544 54 q 576 42 566 43 q 599 41 587 41 l 599 0 l 322 0 z "},"l":{"ha":359,"x_min":37,"x_max":321,"o":"m 62 0 l 62 41 q 92 44 80 41 q 109 56 103 47 q 118 78 115 64 q 120 113 120 92 l 120 570 q 112 624 120 610 q 90 639 104 639 q 71 637 80 639 q 53 631 62 635 l 37 667 l 225 726 l 266 726 l 266 113 q 269 75 266 90 q 278 54 271 61 q 295 43 284 46 q 321 41 305 41 l 321 0 l 62 0 z "},"m":{"ha":897,"x_min":7,"x_max":890,"o":"m 635 0 l 635 41 q 662 42 651 41 q 679 52 673 44 q 688 73 686 59 q 691 113 691 87 l 691 297 q 678 370 691 348 q 633 392 665 392 q 586 378 611 392 q 537 339 560 364 l 537 113 q 539 76 537 90 q 548 54 542 62 q 564 43 554 46 q 590 41 574 41 l 590 0 l 335 0 l 335 41 q 362 42 351 41 q 379 52 373 44 q 389 73 386 59 q 391 113 391 87 l 391 298 q 378 370 391 349 q 333 392 366 392 q 286 378 311 392 q 237 339 260 364 l 237 113 q 240 77 237 91 q 249 55 243 62 q 266 44 255 47 q 293 41 277 41 l 293 0 l 34 0 l 34 41 q 63 44 52 41 q 80 55 74 47 q 89 77 87 62 q 92 113 92 91 l 92 326 q 85 380 92 366 q 63 395 79 395 q 41 393 54 395 q 19 387 27 391 l 7 425 l 197 482 l 237 482 l 237 397 q 278 427 260 412 q 317 454 297 442 q 359 474 337 467 q 411 482 382 482 q 455 475 436 482 q 487 456 473 469 q 511 427 501 444 q 526 390 520 410 q 563 426 543 409 q 606 455 583 442 q 655 475 629 467 q 711 482 682 482 q 773 467 749 482 q 812 426 798 451 q 832 369 826 401 q 838 306 838 338 l 838 113 q 840 77 838 91 q 848 54 842 62 q 864 43 854 46 q 890 41 874 41 l 890 0 l 635 0 z "},"n":{"ha":590,"x_min":3,"x_max":587,"o":"m 332 0 l 332 41 q 359 42 348 41 q 376 51 370 44 q 385 73 382 58 q 388 113 388 87 l 388 297 q 375 370 388 348 q 330 392 362 392 q 282 378 308 392 q 234 339 257 364 l 234 113 q 237 76 234 90 q 245 55 239 62 q 262 44 252 47 q 290 41 273 41 l 290 0 l 31 0 l 31 41 q 60 43 49 41 q 77 54 71 46 q 86 76 83 62 q 88 113 88 90 l 88 326 q 82 380 88 366 q 60 395 76 395 q 38 393 51 395 q 16 387 24 391 l 3 425 l 193 482 l 234 482 l 234 397 q 275 427 256 412 q 314 454 294 442 q 356 474 334 467 q 408 482 378 482 q 470 467 446 482 q 509 426 494 451 q 528 369 523 400 q 534 306 534 337 l 534 113 q 536 76 534 90 q 545 54 538 62 q 561 43 551 46 q 587 41 571 41 l 587 0 l 332 0 z "},"o":{"ha":530,"x_min":28,"x_max":501,"o":"m 501 243 q 485 144 501 191 q 439 62 469 98 q 366 5 409 26 q 269 -16 323 -16 q 168 5 212 -16 q 92 59 123 25 q 44 138 61 94 q 28 229 28 182 q 44 324 28 278 q 91 405 60 370 q 165 461 121 440 q 263 482 208 482 q 360 464 316 482 q 435 412 404 445 q 484 336 467 380 q 501 243 501 293 m 353 203 q 346 285 353 244 q 325 359 339 326 q 290 411 311 391 q 242 431 269 431 q 219 424 231 431 q 198 397 207 416 q 183 349 189 379 q 177 272 177 318 q 187 181 177 224 q 213 106 197 138 q 250 55 229 74 q 292 36 271 36 q 338 74 322 36 q 353 203 353 113 z "},"p":{"ha":585,"x_min":-3,"x_max":553,"o":"m 553 273 q 539 159 553 212 q 496 68 525 106 q 422 7 467 29 q 318 -16 378 -16 q 269 -7 295 -16 q 227 14 242 1 l 227 -112 q 230 -150 227 -136 q 239 -172 233 -164 q 256 -182 245 -179 q 283 -184 267 -184 l 283 -225 l 23 -225 l 23 -184 q 53 -181 41 -184 q 71 -170 64 -178 q 79 -148 77 -161 q 81 -112 81 -134 l 81 324 q 74 379 81 364 q 51 393 66 393 q 33 391 41 393 q 14 386 24 389 l -3 420 l 186 481 l 227 481 l 227 387 q 302 460 264 438 q 381 482 340 482 q 445 468 414 482 q 500 426 476 453 q 538 360 524 399 q 553 273 553 321 m 402 222 q 397 282 402 252 q 382 335 393 311 q 355 372 372 358 q 314 387 338 387 q 274 375 296 387 q 227 336 252 363 l 227 121 q 249 54 227 77 q 310 31 271 31 q 344 40 328 31 q 374 71 361 50 q 394 130 387 93 q 402 222 402 167 z "},"q":{"ha":578,"x_min":34,"x_max":585,"o":"m 296 -225 l 296 -184 q 336 -181 321 -184 q 356 -169 350 -177 q 364 -150 363 -161 q 366 -121 366 -138 l 366 50 q 300 0 332 16 q 227 -16 268 -16 q 159 -2 193 -16 q 97 39 125 12 q 52 111 69 67 q 34 213 34 154 q 53 317 34 268 q 104 402 71 366 q 181 460 136 439 q 279 482 226 482 q 354 467 320 482 q 408 435 387 452 q 425 445 416 439 q 443 459 434 452 q 460 472 452 466 q 477 482 469 479 l 509 482 l 509 -121 q 511 -149 509 -137 q 522 -169 513 -161 q 545 -181 530 -177 q 585 -184 559 -184 l 585 -225 l 296 -225 m 366 347 q 360 380 366 363 q 345 409 355 396 q 319 431 334 422 q 282 439 303 439 q 239 429 259 439 q 205 398 220 420 q 183 342 191 377 q 176 258 176 308 q 185 173 176 210 q 211 112 195 136 q 246 74 227 87 q 285 62 265 62 q 327 74 307 62 q 366 106 346 86 l 366 347 z "},"r":{"ha":458,"x_min":3,"x_max":454,"o":"m 373 482 q 404 477 389 482 q 430 463 419 472 q 448 440 441 454 q 454 411 454 427 q 440 364 454 385 q 394 344 425 344 q 360 351 374 344 q 337 366 347 358 q 319 381 328 374 q 302 389 311 389 q 286 382 294 389 q 269 363 277 375 q 251 336 260 351 q 234 305 242 321 l 234 113 q 237 76 234 90 q 245 55 239 62 q 262 44 252 47 q 290 41 273 41 l 290 0 l 31 0 l 31 41 q 60 43 49 41 q 77 54 71 46 q 86 76 83 62 q 88 113 88 90 l 88 326 q 82 380 88 366 q 60 395 76 395 q 37 393 52 395 q 16 387 23 391 l 3 425 l 193 482 l 234 482 l 234 383 q 261 419 245 401 q 294 451 277 437 q 332 474 312 465 q 373 482 352 482 z "},"s":{"ha":454,"x_min":52,"x_max":410,"o":"m 410 134 q 397 71 410 99 q 362 24 385 43 q 308 -5 339 5 q 242 -16 277 -16 q 197 -11 218 -16 q 158 1 176 -5 q 129 12 141 7 q 109 17 116 17 q 103 13 106 17 q 98 4 100 9 q 94 -6 96 -1 q 91 -14 92 -12 l 52 -14 l 52 180 l 91 180 q 108 126 96 153 q 137 78 120 99 q 178 43 155 56 q 229 31 201 31 q 275 46 262 31 q 289 86 289 62 q 271 127 289 111 q 228 159 254 144 q 171 190 201 174 q 114 226 140 205 q 71 274 88 246 q 53 343 53 302 q 65 401 53 376 q 99 445 78 427 q 147 473 120 463 q 204 482 174 482 q 243 479 225 482 q 277 473 261 477 q 306 467 292 469 q 332 464 319 464 q 348 473 342 464 q 357 489 353 481 l 391 489 l 391 309 l 351 309 q 329 360 343 336 q 297 401 315 384 q 258 429 279 419 q 213 439 237 439 q 170 426 185 439 q 155 391 155 412 q 174 349 155 367 q 221 316 193 332 q 283 285 250 300 q 344 249 316 269 q 391 201 372 229 q 410 134 410 174 z "},"t":{"ha":369,"x_min":5,"x_max":362,"o":"m 362 134 q 349 89 359 114 q 319 40 338 63 q 270 0 300 16 q 199 -16 241 -16 q 115 25 144 -16 q 86 142 86 66 l 86 418 l 5 418 l 5 449 q 61 470 33 454 q 113 509 88 486 q 160 562 138 533 q 198 623 182 591 l 232 623 l 232 468 l 355 468 l 355 418 l 232 418 l 232 161 q 242 96 232 115 q 273 77 252 77 q 304 93 290 77 q 329 134 319 108 l 362 134 z "},"u":{"ha":590,"x_min":-7,"x_max":590,"o":"m 400 -16 l 359 -16 l 359 77 q 329 46 347 62 q 289 16 311 30 q 241 -6 267 3 q 186 -16 215 -16 q 123 -1 148 -16 q 85 37 99 13 q 65 93 71 61 q 60 161 60 125 l 60 354 q 57 390 60 376 q 47 412 54 404 q 26 423 39 420 q -7 426 14 426 l -7 468 l 205 468 l 205 170 q 218 97 205 119 q 264 75 231 75 q 311 91 286 75 q 359 134 336 108 l 359 354 q 357 390 359 376 q 346 412 354 404 q 325 423 338 420 q 290 426 311 426 l 290 468 l 505 468 l 505 141 q 511 86 505 100 q 534 72 517 72 q 556 74 543 72 q 578 79 569 76 l 590 41 l 400 -16 z "},"v":{"ha":532,"x_min":-1,"x_max":531,"o":"m 531 427 q 482 410 498 426 q 453 366 465 394 l 290 -16 l 249 -16 l 85 360 q 68 392 76 380 q 50 411 60 404 q 28 421 41 418 q -1 427 16 425 l -1 468 l 282 468 l 282 427 q 241 418 253 427 q 229 391 229 409 q 232 371 229 382 q 240 347 235 359 l 314 178 l 391 360 q 399 392 399 378 q 386 418 399 409 q 344 427 373 427 l 344 468 l 531 468 l 531 427 z "},"w":{"ha":777,"x_min":-1,"x_max":775,"o":"m 775 427 q 752 422 763 425 q 732 414 741 420 q 715 397 723 408 q 700 368 707 387 l 544 -16 l 504 -16 l 397 243 l 271 -16 l 232 -16 l 75 357 q 61 386 68 374 q 45 407 54 398 q 25 420 37 415 q -1 427 14 425 l -1 468 l 250 468 l 250 427 q 219 420 228 427 q 210 396 210 412 q 214 377 210 389 q 221 357 218 366 l 301 169 l 371 312 q 351 364 359 342 q 335 399 343 385 q 315 420 326 413 q 284 427 303 427 l 284 468 l 542 468 l 542 427 q 488 396 488 427 q 493 375 488 391 q 505 340 498 360 q 522 297 513 320 q 540 253 531 274 q 556 214 549 231 q 568 188 564 197 l 636 357 q 643 376 640 367 q 646 394 646 386 q 633 418 646 409 q 594 427 621 427 l 594 468 l 775 468 l 775 427 z "},"x":{"ha":544,"x_min":7,"x_max":538,"o":"m 252 405 q 260 390 252 401 q 277 365 268 378 q 303 331 289 349 q 315 346 307 335 q 334 370 324 357 q 351 394 343 383 q 358 409 358 405 q 349 422 358 417 q 330 427 340 427 l 330 468 l 502 468 l 502 427 q 454 413 475 427 q 412 379 432 400 q 374 334 393 359 q 336 284 356 309 l 460 103 q 481 73 473 85 q 498 53 490 60 q 516 43 507 46 q 538 41 525 41 l 538 0 l 263 0 l 263 41 q 296 46 283 41 q 308 65 308 52 q 300 81 308 68 q 281 112 292 95 q 260 145 271 129 q 243 169 249 161 q 195 104 213 132 q 177 63 177 76 q 187 47 177 54 q 212 41 197 41 l 212 0 l 18 0 l 18 41 q 71 56 47 41 q 127 107 96 71 l 210 218 l 94 375 q 71 403 81 393 q 50 418 60 413 q 29 426 39 424 q 7 427 19 427 l 7 468 l 282 468 l 282 427 l 277 427 q 258 421 263 427 q 252 405 252 414 z "},"y":{"ha":543,"x_min":-1,"x_max":542,"o":"m 542 427 q 493 410 509 426 q 464 366 476 395 l 281 -69 q 242 -141 264 -111 q 197 -190 221 -171 q 149 -218 174 -209 q 100 -227 124 -227 q 64 -222 82 -227 q 32 -207 47 -217 q 8 -182 17 -197 q -1 -147 -1 -168 q 4 -115 -1 -128 q 19 -94 10 -102 q 40 -82 28 -86 q 63 -79 52 -79 q 98 -87 85 -79 q 122 -105 111 -95 q 142 -123 132 -115 q 166 -131 152 -131 q 191 -117 179 -131 q 215 -81 203 -102 q 235 -37 226 -60 q 252 3 245 -14 l 96 360 q 79 392 87 380 q 61 411 71 404 q 39 421 52 418 q 9 427 26 425 l 9 468 l 293 468 l 293 427 q 252 418 264 427 q 240 391 240 409 q 251 347 240 372 l 326 176 l 402 360 q 408 376 406 370 q 410 392 410 382 q 397 418 410 409 q 355 427 384 427 l 355 468 l 542 468 l 542 427 z "},"z":{"ha":512,"x_min":54,"x_max":496,"o":"m 241 56 l 332 56 q 381 62 361 56 q 414 84 401 68 q 436 126 428 100 q 449 191 445 153 l 487 191 l 480 0 l 54 0 l 54 41 l 308 412 l 231 412 q 183 404 202 412 q 152 381 164 396 q 135 343 140 366 q 125 290 129 320 l 86 290 l 89 468 l 496 468 l 496 427 l 241 56 z "},"{":{"ha":446,"x_min":85,"x_max":368,"o":"m 368 -210 q 329 -208 351 -210 q 283 -199 307 -205 q 237 -180 260 -192 q 196 -151 214 -169 q 168 -109 178 -134 q 157 -50 157 -84 q 161 -4 157 -24 q 171 37 165 17 q 180 77 176 56 q 184 124 184 98 q 177 164 184 145 q 155 199 169 184 q 123 223 141 214 q 85 232 105 232 l 85 264 q 123 274 105 264 q 155 298 141 283 q 177 333 169 313 q 184 374 184 353 q 180 421 184 400 q 171 461 176 441 q 161 502 165 481 q 157 548 157 522 q 168 607 157 582 q 196 650 178 632 q 237 679 214 668 q 283 697 260 690 q 329 706 307 703 q 368 708 351 708 l 368 684 q 334 677 351 684 q 302 656 316 669 q 278 626 288 643 q 269 589 269 608 q 273 542 269 563 q 282 501 277 521 q 290 461 286 481 q 294 416 294 441 q 281 354 294 382 q 246 305 268 326 q 197 269 224 283 q 139 248 169 254 q 197 228 169 242 q 246 192 224 214 q 281 143 268 171 q 294 81 294 115 q 290 37 294 57 q 282 -3 286 17 q 273 -44 277 -23 q 269 -90 269 -65 q 278 -127 269 -110 q 302 -158 288 -145 q 334 -179 316 -172 q 368 -186 351 -186 l 368 -210 l 368 -210 z "},"|":{"ha":231,"x_min":81,"x_max":149,"o":"m 81 -224 l 81 708 l 149 708 l 149 -224 l 81 -224 z "},"}":{"ha":446,"x_min":78,"x_max":361,"o":"m 361 232 q 323 223 341 232 q 291 199 305 214 q 270 164 277 184 q 262 124 262 145 q 266 77 262 98 q 275 37 270 56 q 284 -4 280 17 q 289 -50 289 -24 q 278 -109 289 -83 q 249 -151 267 -134 q 209 -180 231 -169 q 163 -199 186 -192 q 117 -208 140 -205 q 78 -210 95 -210 l 78 -186 q 113 -179 95 -186 q 144 -158 130 -172 q 168 -127 159 -145 q 177 -90 177 -110 q 173 -44 177 -65 q 164 -3 169 -23 q 156 37 160 17 q 152 81 152 57 q 165 143 152 115 q 199 192 178 171 q 249 228 221 214 q 307 248 277 242 q 249 269 277 254 q 199 305 221 283 q 165 354 178 326 q 152 416 152 382 q 156 461 152 441 q 164 501 160 481 q 173 542 169 521 q 177 589 177 563 q 168 626 177 608 q 144 656 159 643 q 113 677 130 669 q 78 684 95 684 l 78 708 q 117 706 95 708 q 163 697 140 703 q 209 679 186 690 q 249 650 231 668 q 278 607 267 632 q 289 548 289 582 q 284 502 289 522 q 275 461 280 481 q 266 421 270 441 q 262 374 262 400 q 270 333 262 353 q 291 298 277 313 q 323 274 305 283 q 361 264 341 264 l 361 232 l 361 232 z "},"~":{"ha":575,"x_min":12,"x_max":559,"o":"m 559 338 q 534 288 550 313 q 499 243 519 263 q 455 210 479 223 q 406 197 431 197 q 343 211 374 197 q 282 242 313 225 q 221 272 252 258 q 160 286 191 286 q 123 277 139 286 q 93 254 106 268 q 69 222 80 239 q 49 189 58 205 l 12 235 q 38 282 24 257 q 72 330 53 308 q 114 367 91 352 q 165 381 137 381 q 233 367 199 381 q 297 335 266 353 q 357 304 328 318 q 411 290 386 290 q 447 298 431 290 q 477 319 464 306 q 502 348 491 332 q 521 381 513 365 l 559 338 z "},"":{"ha":675,"x_min":0,"x_max":654,"o":"m 654 168 q 544 32 608 79 q 391 -15 480 -15 q 259 9 313 -15 q 168 70 204 33 q 111 152 132 106 q 79 240 90 197 l 0 240 l 28 302 l 68 302 q 68 317 68 310 q 68 331 68 323 q 68 346 68 338 q 68 361 68 353 l 0 361 l 28 424 l 79 424 q 113 533 86 481 q 180 624 140 585 q 272 685 220 663 q 382 708 324 708 q 450 700 421 708 q 498 683 478 692 q 530 666 517 673 q 549 658 542 658 q 566 662 560 658 q 576 673 572 666 q 582 690 580 680 q 588 709 585 699 l 627 709 l 643 442 l 602 442 q 570 530 591 491 q 523 595 549 568 q 466 635 496 621 q 406 650 436 650 q 336 631 366 650 q 288 581 307 612 q 259 509 269 550 q 245 424 248 468 l 565 424 l 543 361 l 243 361 q 242 348 242 351 q 242 333 242 344 q 242 324 242 328 q 242 318 242 321 q 243 311 243 315 q 243 302 243 308 l 517 302 l 496 240 l 247 240 q 258 175 248 209 q 290 112 269 140 q 344 65 311 83 q 425 46 377 46 q 532 84 487 46 q 614 193 578 122 l 654 168 z "},"":{"ha":350,"x_min":78,"x_max":272,"o":"m 272 29 q 259 -45 272 -11 q 224 -106 247 -79 q 169 -153 201 -133 q 97 -184 136 -172 l 97 -161 q 152 -128 130 -148 q 187 -87 174 -109 q 204 -47 199 -66 q 210 -14 210 -27 q 208 -2 210 -8 q 198 5 205 5 q 185 -1 193 5 q 162 -7 178 -7 q 129 -1 144 -7 q 103 15 114 5 q 85 40 92 26 q 78 73 78 55 q 85 105 78 90 q 103 132 92 121 q 129 150 114 144 q 162 157 144 157 q 205 149 185 157 q 240 124 225 140 q 263 85 255 109 q 272 29 272 61 z "},"":{"ha":534,"x_min":0,"x_max":525,"o":"m 525 637 q 523 620 525 629 q 514 602 520 610 q 499 588 509 593 q 475 582 489 582 q 444 591 457 582 q 431 618 431 601 q 433 633 431 627 q 438 643 435 639 q 443 651 440 647 q 445 661 445 655 q 441 670 445 667 q 431 673 437 673 q 407 651 415 673 q 392 595 398 629 q 382 522 387 562 q 372 447 378 482 l 455 447 l 443 393 l 361 393 q 344 305 353 347 q 325 221 335 263 q 303 138 315 180 q 280 52 292 96 q 264 1 274 29 q 242 -58 255 -28 q 213 -117 229 -88 q 175 -169 196 -146 q 129 -206 154 -192 q 75 -220 104 -220 q 50 -216 62 -220 q 25 -203 37 -212 q 7 -180 14 -194 q 0 -146 0 -166 q 3 -126 0 -136 q 12 -107 5 -116 q 29 -94 18 -99 q 55 -88 39 -88 q 68 -90 61 -88 q 82 -97 75 -92 q 93 -108 88 -101 q 97 -125 97 -115 q 94 -143 97 -136 q 88 -154 92 -149 q 82 -160 85 -158 q 79 -165 79 -163 q 82 -174 79 -172 q 91 -176 85 -176 q 107 -163 100 -176 q 122 -132 115 -150 q 133 -95 128 -114 q 141 -62 138 -75 q 149 -22 144 -47 q 157 33 153 3 q 167 93 162 62 q 177 150 172 123 q 189 213 183 183 q 201 272 195 243 q 215 331 208 301 q 230 393 222 361 l 148 393 l 159 447 q 177 449 166 448 q 200 452 189 450 q 223 457 212 454 q 239 464 233 460 q 252 487 245 467 q 270 534 260 507 q 295 591 281 561 q 331 648 310 622 q 378 691 351 674 q 441 708 406 708 q 480 702 464 708 q 506 685 496 695 q 520 662 516 675 q 525 637 525 650 z "},"":{"ha":525,"x_min":42,"x_max":483,"o":"m 483 29 q 470 -45 483 -11 q 435 -106 458 -79 q 379 -153 412 -133 q 307 -184 347 -172 l 307 -161 q 362 -128 340 -148 q 397 -87 385 -109 q 415 -47 410 -66 q 420 -14 420 -27 q 418 -2 420 -8 q 409 5 416 5 q 396 -1 403 5 q 373 -7 389 -7 q 340 -1 355 -7 q 313 15 325 5 q 295 40 302 26 q 288 73 288 55 q 295 105 288 90 q 313 132 302 121 q 340 150 325 144 q 373 157 355 157 q 415 149 395 157 q 450 124 435 140 q 474 85 465 109 q 483 29 483 61 m 237 29 q 224 -45 237 -11 q 189 -106 212 -79 q 133 -153 165 -133 q 62 -184 101 -172 l 62 -161 q 117 -128 95 -148 q 152 -87 139 -109 q 169 -47 164 -66 q 174 -14 174 -27 q 172 -2 174 -8 q 163 5 170 5 q 157 3 160 5 q 150 -1 154 1 q 140 -5 146 -3 q 127 -7 135 -7 q 94 -1 109 -7 q 67 15 79 5 q 49 40 56 26 q 42 73 42 55 q 49 105 42 90 q 67 132 56 121 q 94 150 79 144 q 127 157 109 157 q 169 149 149 157 q 204 124 189 140 q 228 85 219 109 q 237 29 237 61 z "},"":{"ha":1048,"x_min":90,"x_max":958,"o":"m 958 73 q 951 40 958 55 q 933 13 945 24 q 906 -5 922 1 q 873 -12 890 -12 q 841 -5 856 -12 q 814 13 825 1 q 795 40 802 24 q 789 73 789 55 q 795 105 789 90 q 814 132 802 121 q 841 150 825 144 q 873 157 856 157 q 906 150 890 157 q 933 132 922 144 q 951 105 945 121 q 958 73 958 90 m 608 73 q 602 40 608 55 q 583 13 595 24 q 556 -5 572 1 q 524 -12 541 -12 q 491 -5 506 -12 q 464 13 475 1 q 446 40 453 24 q 439 73 439 55 q 446 105 439 90 q 464 132 453 121 q 491 150 475 144 q 524 157 506 157 q 556 150 541 157 q 583 132 572 144 q 602 105 595 121 q 608 73 608 90 m 259 73 q 252 40 259 55 q 234 13 245 24 q 207 -5 222 1 q 174 -12 192 -12 q 141 -5 157 -12 q 115 13 126 1 q 96 40 103 24 q 90 73 90 55 q 96 105 90 90 q 115 132 103 121 q 141 150 126 144 q 174 157 157 157 q 207 150 192 157 q 234 132 222 144 q 252 105 245 121 q 259 73 259 90 z "},"":{"ha":534,"x_min":48,"x_max":486,"o":"m 486 424 q 478 395 486 408 q 461 373 471 382 q 439 359 451 364 q 416 355 427 355 q 377 364 391 355 q 350 384 362 373 q 321 403 337 394 q 279 412 306 412 q 289 361 279 384 q 311 321 299 338 q 345 286 326 302 q 324 223 333 258 q 308 148 315 187 q 296 66 301 108 q 288 -14 292 25 q 279 -205 281 -106 l 255 -205 q 246 -15 254 -107 q 238 66 243 24 q 227 147 233 107 q 211 222 220 186 q 189 286 201 258 q 222 321 208 301 q 244 361 234 338 q 255 412 255 384 q 213 403 229 412 q 185 384 197 394 q 158 364 172 373 q 118 355 143 355 q 96 359 108 355 q 73 373 83 364 q 55 395 62 382 q 48 424 48 408 q 55 453 48 440 q 71 475 61 466 q 94 489 81 484 q 118 494 106 494 q 157 485 143 494 q 184 465 172 475 q 212 445 197 454 q 255 436 228 436 q 245 485 255 463 q 223 527 235 507 q 201 568 211 547 q 191 613 191 589 q 196 643 191 629 q 213 668 202 657 q 237 686 223 680 q 267 693 251 693 q 297 686 283 693 q 321 668 311 680 q 337 643 332 657 q 343 613 343 629 q 333 568 343 589 q 311 527 323 547 q 289 485 299 507 q 279 436 279 463 q 310 440 297 436 q 332 451 322 445 q 350 465 342 457 q 367 479 358 473 q 388 489 376 485 q 416 494 399 494 q 440 489 428 494 q 463 475 452 484 q 479 453 473 466 q 486 424 486 440 z "},"":{"ha":534,"x_min":48,"x_max":486,"o":"m 486 10 q 479 -19 486 -6 q 463 -41 473 -32 q 440 -55 452 -50 q 416 -60 428 -60 q 388 -55 400 -60 q 367 -45 376 -51 q 350 -31 358 -39 q 332 -17 342 -23 q 310 -6 322 -11 q 279 -2 297 -2 q 288 -46 279 -29 q 308 -77 297 -63 q 327 -107 318 -92 q 336 -148 336 -123 q 332 -172 336 -160 q 318 -195 327 -184 q 296 -211 309 -205 q 267 -218 283 -218 q 238 -211 251 -218 q 216 -193 225 -203 q 202 -170 207 -182 q 197 -148 197 -158 q 207 -107 197 -123 q 226 -77 216 -92 q 246 -46 237 -62 q 255 -2 255 -29 q 212 -11 228 -2 q 184 -31 197 -20 q 157 -51 172 -41 q 118 -60 143 -60 q 94 -55 106 -60 q 71 -41 81 -50 q 55 -19 61 -32 q 48 10 48 -6 q 55 39 48 26 q 73 61 62 52 q 96 75 83 71 q 118 80 108 80 q 158 71 143 80 q 185 51 172 62 q 213 32 197 41 q 255 22 229 22 q 245 63 255 45 q 224 94 236 81 q 195 119 212 109 q 222 149 212 132 q 240 182 233 165 q 249 213 246 198 q 252 237 252 228 q 249 262 252 248 q 240 293 246 277 q 222 326 233 309 q 195 355 212 342 q 224 381 212 366 q 245 412 236 394 q 255 454 255 430 q 213 445 229 454 q 185 425 197 435 q 158 405 172 414 q 118 396 143 396 q 96 401 108 396 q 73 414 83 406 q 55 436 62 423 q 48 465 48 449 q 55 494 48 481 q 71 516 61 507 q 94 530 81 525 q 118 534 106 534 q 157 526 143 534 q 184 506 172 517 q 212 486 197 495 q 255 477 228 477 q 246 522 255 505 q 226 553 237 538 q 207 583 216 568 q 197 624 197 599 q 202 648 197 635 q 216 670 207 660 q 238 687 225 680 q 267 693 251 693 q 296 686 283 693 q 318 669 309 679 q 332 646 327 659 q 336 624 336 634 q 327 583 336 599 q 308 552 318 567 q 288 521 297 538 q 279 477 279 504 q 321 486 306 477 q 350 506 337 495 q 377 526 363 517 q 416 534 391 534 q 440 530 428 534 q 463 516 452 525 q 479 494 473 507 q 486 465 486 481 q 478 436 486 449 q 461 414 471 423 q 439 401 451 406 q 416 396 427 396 q 377 405 391 396 q 350 425 362 414 q 321 445 337 435 q 279 454 306 454 q 288 412 279 430 q 309 382 297 394 q 339 357 321 368 q 311 327 322 343 q 294 294 300 311 q 285 262 288 277 q 282 237 282 248 q 285 213 282 228 q 294 182 288 198 q 311 149 300 165 q 339 120 322 133 q 309 94 321 109 q 288 62 297 81 q 279 22 279 44 q 321 32 306 22 q 350 51 337 41 q 377 71 362 62 q 416 80 391 80 q 439 75 427 80 q 461 61 451 71 q 478 39 471 52 q 486 10 486 26 z "},"":{"ha":330,"x_min":-14,"x_max":344,"o":"m 301 542 l 165 644 l 30 542 l -14 542 l 117 734 l 214 734 l 344 542 l 301 542 z "},"":{"ha":1226,"x_min":25,"x_max":1201,"o":"m 1201 256 q 1185 165 1201 213 q 1137 77 1168 117 q 1061 11 1106 37 q 958 -15 1015 -15 q 891 -5 918 -15 q 848 25 864 5 q 826 72 832 44 q 819 136 819 100 q 828 195 819 164 q 854 254 838 225 q 894 309 871 283 q 945 354 918 334 q 1004 385 972 373 q 1069 396 1036 396 q 1136 383 1110 396 q 1176 350 1162 370 q 1196 304 1191 330 q 1201 256 1201 279 m 803 256 q 787 165 803 213 q 739 77 770 117 q 663 11 708 37 q 559 -15 617 -15 q 493 -5 519 -15 q 450 25 466 5 q 428 72 434 44 q 421 136 421 100 q 441 224 421 178 q 496 309 462 271 q 576 371 531 347 q 671 396 621 396 q 738 383 712 396 q 778 350 764 370 q 798 304 793 330 q 803 256 803 279 m 251 -15 l 154 -15 l 530 620 q 487 607 505 610 q 454 603 469 603 q 425 606 437 603 q 399 614 412 609 q 405 588 404 602 q 406 557 406 574 q 388 464 406 512 q 339 376 370 416 q 265 312 308 337 q 170 286 222 286 q 64 322 102 286 q 25 429 25 357 q 46 529 25 481 q 104 615 67 578 q 190 675 140 652 q 295 697 239 697 q 330 689 314 697 q 365 672 347 682 q 404 654 382 662 q 454 646 425 646 q 527 662 497 646 q 583 711 556 677 l 678 711 l 251 -15 m 1155 252 q 1151 302 1155 282 q 1140 334 1147 322 q 1121 351 1133 346 q 1095 355 1110 355 q 1044 333 1074 355 q 988 273 1015 310 q 942 189 961 236 q 924 92 924 141 q 991 34 924 34 q 1045 55 1016 34 q 1098 109 1074 77 q 1139 179 1122 141 q 1155 252 1155 218 m 757 245 q 742 330 757 305 q 697 355 726 355 q 665 345 683 355 q 628 316 647 334 q 590 273 608 298 q 557 219 572 248 q 534 157 543 189 q 526 92 526 125 q 545 49 526 63 q 592 35 565 35 q 646 52 617 35 q 700 99 675 70 q 741 166 724 129 q 757 245 757 204 m 355 566 q 349 629 355 607 q 324 640 337 634 q 298 654 311 646 q 245 628 274 648 q 191 577 216 608 q 149 505 165 546 q 132 414 132 463 q 148 356 132 374 q 189 338 164 338 q 244 357 215 338 q 298 408 273 376 q 339 480 323 439 q 355 566 355 522 z "},"":{"ha":583,"x_min":48,"x_max":541,"o":"m 541 196 q 522 110 541 149 q 471 43 503 71 q 394 0 438 16 q 298 -15 349 -15 q 236 -9 260 -15 q 197 5 213 -3 q 168 19 180 13 q 138 25 155 25 q 107 14 119 25 q 86 -15 96 3 l 48 -15 l 48 246 l 88 246 q 107 172 92 210 q 149 103 122 134 q 213 52 175 72 q 301 33 251 33 q 345 39 323 33 q 381 58 366 45 q 407 89 397 71 q 416 129 416 106 q 401 183 416 159 q 360 227 385 207 q 302 265 334 247 q 236 301 269 283 q 170 339 202 319 q 112 384 137 359 q 71 440 86 409 q 55 511 55 471 q 71 591 55 555 q 116 653 87 627 q 184 693 144 679 q 272 708 224 708 q 330 701 305 708 q 374 685 355 694 q 408 669 393 676 q 437 662 422 662 q 457 675 450 662 q 467 708 464 689 l 507 708 l 507 450 l 464 450 q 441 536 459 498 q 398 602 424 575 q 340 644 372 629 q 275 659 308 659 q 236 652 254 659 q 203 633 217 646 q 180 604 189 621 q 172 567 172 587 q 188 519 172 541 q 230 479 204 498 q 289 444 256 460 q 357 409 322 427 q 425 370 391 391 q 484 325 458 350 q 525 268 509 300 q 541 196 541 237 m 345 767 l 247 767 l 123 959 l 167 959 l 296 857 l 425 959 l 467 959 l 345 767 z "},"":{"ha":352,"x_min":43,"x_max":307,"o":"m 258 -4 l 43 237 l 258 478 l 307 478 l 182 237 l 307 -4 l 258 -4 z "},"":{"ha":1029,"x_min":37,"x_max":1008,"o":"m 937 0 l 550 0 q 470 -4 510 0 q 390 -8 430 -8 q 246 20 311 -8 q 135 96 181 47 q 63 209 88 144 q 37 347 37 273 q 65 487 37 422 q 142 599 93 551 q 258 673 191 646 q 403 700 325 700 q 467 696 429 700 q 553 693 505 693 l 944 693 l 952 507 l 913 507 q 896 564 904 540 q 875 603 888 588 q 839 626 862 618 q 778 633 817 633 l 648 633 l 648 382 l 711 382 q 762 390 743 382 q 793 412 781 397 q 811 450 805 427 q 821 503 817 472 l 861 503 l 861 213 l 821 213 q 811 264 817 243 q 793 299 805 286 q 763 318 782 312 q 711 323 743 323 l 648 323 l 648 144 q 651 96 648 113 q 665 70 654 79 q 699 60 676 62 q 762 58 722 58 q 837 67 807 58 q 888 93 867 75 q 928 137 910 110 q 966 201 945 164 l 1008 201 l 937 0 m 489 545 q 484 607 489 585 q 468 640 479 629 q 441 654 457 651 q 403 656 425 656 q 340 643 367 656 q 292 606 313 629 q 258 553 272 583 q 237 488 245 522 q 225 419 229 454 q 222 351 222 383 q 225 286 222 320 q 237 217 229 252 q 258 152 245 183 q 291 96 271 120 q 338 58 311 72 q 401 43 366 43 q 453 51 435 43 q 479 75 471 59 q 488 115 487 91 q 489 174 489 140 l 489 545 z "},"":{"ha":699,"x_min":24,"x_max":659,"o":"m 626 0 l 24 0 l 24 41 l 421 633 l 285 633 q 175 594 216 633 q 119 470 134 555 l 78 470 l 94 693 l 652 693 l 229 60 l 353 60 q 451 68 408 60 q 528 98 494 77 q 584 159 561 120 q 619 258 606 197 l 659 252 l 626 0 m 406 767 l 308 767 l 184 959 l 228 959 l 357 857 l 486 959 l 528 959 l 406 767 z "},"":{"ha":330,"x_min":-7,"x_max":337,"o":"m 214 543 l 117 543 l -7 735 l 37 735 l 165 633 l 294 735 l 337 735 l 214 543 z "},"":{"ha":216,"x_min":0,"x_max":216,"o":"m 216 651 q 207 609 216 629 q 184 575 199 589 q 150 552 170 560 q 108 543 130 543 q 66 552 85 543 q 32 575 46 560 q 8 609 17 589 q 0 651 0 629 q 8 693 0 673 q 32 727 17 712 q 66 750 46 741 q 108 758 85 758 q 150 750 130 758 q 184 727 170 741 q 207 693 199 712 q 216 651 216 673 m 164 651 q 148 691 164 674 q 108 707 132 707 q 68 691 84 707 q 52 651 52 674 q 56 629 52 639 q 68 611 60 618 q 86 598 75 603 q 108 594 96 594 q 130 598 119 594 q 148 611 140 603 q 160 629 155 618 q 164 651 164 639 z "},"":{"ha":350,"x_min":78,"x_max":272,"o":"m 272 452 q 265 419 272 435 q 247 393 258 404 q 220 375 235 381 q 187 368 205 368 q 145 376 165 368 q 110 400 125 385 q 86 440 95 416 q 78 496 78 464 q 125 630 78 576 q 255 708 172 684 l 255 684 q 199 651 221 671 q 164 611 177 632 q 146 571 151 591 q 140 538 140 552 q 142 527 140 533 q 151 520 144 520 q 157 522 154 520 q 166 527 161 524 q 178 532 171 530 q 197 534 186 534 q 226 528 212 534 q 250 510 239 522 q 266 484 260 499 q 272 452 272 469 z "},"":{"ha":350,"x_min":78,"x_max":272,"o":"m 272 581 q 225 446 272 500 q 95 368 178 392 l 95 392 q 151 425 128 406 q 186 465 173 444 q 204 505 199 485 q 210 538 210 524 q 208 550 210 544 q 198 556 205 556 q 192 554 195 556 q 183 549 189 551 q 171 544 178 547 q 152 542 163 542 q 123 548 137 542 q 100 566 110 555 q 84 591 90 576 q 78 624 78 606 q 85 656 78 641 q 103 683 92 672 q 129 701 114 694 q 162 708 144 708 q 205 700 185 708 q 240 676 225 692 q 263 636 255 660 q 272 581 272 612 z "},"":{"ha":525,"x_min":42,"x_max":483,"o":"m 483 452 q 476 419 483 435 q 458 393 469 404 q 431 375 446 381 q 398 368 415 368 q 356 376 376 368 q 321 400 336 385 q 297 440 306 416 q 288 496 288 464 q 335 630 288 576 q 465 708 382 684 l 465 684 q 409 651 431 671 q 374 611 387 632 q 356 571 361 591 q 351 538 351 552 q 353 527 351 533 q 361 520 355 520 q 368 522 364 520 q 376 527 371 524 q 389 532 381 530 q 408 534 396 534 q 436 528 422 534 q 460 510 450 522 q 477 484 471 499 q 483 452 483 469 m 237 452 q 230 419 237 435 q 212 393 223 404 q 184 375 200 381 q 152 368 169 368 q 110 376 130 368 q 75 400 90 385 q 51 440 60 416 q 42 496 42 464 q 90 630 42 576 q 220 708 137 684 l 220 684 q 164 651 186 671 q 129 611 142 632 q 110 571 115 591 q 104 538 104 552 q 106 527 104 533 q 116 520 109 520 q 122 522 119 520 q 131 527 125 524 q 143 532 136 530 q 162 534 151 534 q 191 528 177 534 q 214 510 204 522 q 231 484 224 499 q 237 452 237 469 z "},"":{"ha":525,"x_min":42,"x_max":483,"o":"m 483 581 q 435 446 483 500 q 305 368 388 392 l 305 392 q 361 425 338 406 q 396 465 383 444 q 414 505 409 485 q 420 538 420 524 q 418 550 420 544 q 409 556 416 556 q 402 554 406 556 q 394 549 399 551 q 382 544 389 547 q 363 542 374 542 q 334 548 347 542 q 310 566 320 555 q 294 591 300 576 q 288 624 288 606 q 295 656 288 641 q 313 683 302 672 q 340 701 325 694 q 373 708 355 708 q 415 700 395 708 q 450 676 435 692 q 474 636 465 660 q 483 581 483 612 m 237 581 q 190 446 237 500 q 60 368 142 392 l 60 392 q 115 425 93 406 q 151 465 138 444 q 169 505 163 485 q 174 538 174 524 q 172 550 174 544 q 163 556 170 556 q 157 554 160 556 q 148 549 153 551 q 136 544 143 547 q 117 542 128 542 q 88 548 102 542 q 64 566 75 555 q 48 591 54 576 q 42 624 42 606 q 49 656 42 641 q 67 683 56 672 q 94 701 79 694 q 127 708 109 708 q 169 700 149 708 q 204 676 189 692 q 228 636 219 660 q 237 581 237 612 z "},"":{"ha":302,"x_min":35,"x_max":267,"o":"m 267 342 q 258 297 267 318 q 233 260 249 276 q 197 236 218 245 q 151 227 176 227 q 106 236 127 227 q 69 260 85 245 q 44 297 54 276 q 35 342 35 318 q 44 388 35 367 q 69 425 54 409 q 106 449 85 440 q 151 458 127 458 q 197 449 176 458 q 233 425 218 440 q 258 388 249 409 q 267 342 267 367 z "},"":{"ha":504,"x_min":-22,"x_max":518,"o":"m -22 196 l -22 272 l 518 272 l 518 196 l -22 196 z "},"":{"ha":1007,"x_min":0,"x_max":1007,"o":"m 0 196 l 0 272 l 1007 272 l 1007 196 l 0 196 z "},"":{"ha":330,"x_min":-14,"x_max":354,"o":"m 354 722 q 343 663 353 690 q 318 616 334 635 q 282 586 302 597 q 237 575 261 575 q 191 583 209 575 q 158 599 173 590 q 126 616 142 608 q 87 624 111 624 q 67 620 77 624 q 49 608 57 616 q 35 591 41 601 q 30 570 30 581 l -14 570 q 2 629 -9 602 q 32 676 14 656 q 72 707 50 696 q 117 718 94 718 q 160 710 141 718 q 196 694 179 703 q 229 678 213 686 q 264 671 245 671 q 296 682 283 671 q 313 722 309 694 l 354 722 l 354 722 z "},"":{"ha":1019,"x_min":17,"x_max":1002,"o":"m 772 281 l 772 315 q 804 317 791 315 q 822 326 816 320 q 831 342 829 332 q 833 366 833 352 l 833 557 l 708 281 l 680 281 l 534 585 l 534 367 q 537 340 534 350 q 546 324 539 330 q 567 316 553 318 q 602 315 580 315 l 602 281 l 414 281 l 414 315 q 447 318 435 315 q 467 327 460 321 q 477 343 474 334 q 479 367 479 353 l 479 610 q 465 646 479 636 q 414 656 451 656 l 414 693 l 614 693 l 726 464 l 833 693 l 1002 693 l 1002 656 q 973 653 983 656 q 958 644 963 650 q 952 629 954 638 q 951 606 951 619 l 951 367 q 952 344 951 353 q 958 328 954 334 q 973 318 963 321 q 1002 315 983 315 l 1002 281 l 772 281 m 363 545 q 332 620 358 597 q 267 644 305 644 l 267 367 q 269 342 267 353 q 277 326 271 332 q 294 317 283 320 q 322 315 304 315 l 322 281 l 96 281 l 96 315 q 138 326 127 315 q 148 367 148 338 l 148 644 l 111 644 q 71 619 85 644 q 52 545 58 594 l 17 545 l 24 693 l 393 693 l 401 545 l 363 545 z "},"":{"ha":408,"x_min":29,"x_max":389,"o":"m 389 134 q 376 71 389 99 q 340 24 363 43 q 287 -5 317 5 q 220 -16 256 -16 q 175 -11 196 -16 q 137 1 154 -5 q 107 12 119 7 q 87 17 94 17 q 81 13 84 17 q 76 4 79 9 q 72 -6 74 -1 q 69 -14 71 -12 l 30 -14 l 30 180 l 69 180 q 86 126 75 153 q 116 78 98 99 q 156 43 133 56 q 207 31 179 31 q 254 46 240 31 q 267 86 267 62 q 250 127 267 111 q 206 159 232 144 q 149 190 180 174 q 93 226 119 205 q 49 274 66 246 q 31 343 31 302 q 44 401 31 376 q 77 445 56 427 q 125 473 98 463 q 182 482 153 482 q 221 479 203 482 q 255 473 239 477 q 284 467 271 469 q 311 464 298 464 q 326 473 320 464 q 335 489 332 481 l 369 489 l 369 309 l 330 309 q 308 360 321 336 q 276 401 294 384 q 236 429 258 419 q 191 439 215 439 q 149 426 163 439 q 134 391 134 412 q 153 349 134 367 q 200 316 172 332 q 261 285 228 300 q 322 249 294 269 q 370 201 351 229 q 389 134 389 174 m 250 543 l 153 543 l 29 735 l 73 735 l 201 633 l 330 735 l 373 735 l 250 543 z "},"":{"ha":352,"x_min":43,"x_max":307,"o":"m 43 -4 l 168 237 l 43 478 l 92 478 l 307 237 l 92 -4 l 43 -4 z "},"":{"ha":800,"x_min":28,"x_max":766,"o":"m 766 173 q 744 104 759 138 q 704 43 728 70 q 645 1 679 17 q 566 -16 611 -16 q 485 -1 522 -16 q 420 43 448 14 q 359 2 397 20 q 269 -16 321 -16 q 168 5 212 -16 q 92 59 123 25 q 44 138 61 94 q 28 229 28 182 q 44 324 28 278 q 91 405 60 370 q 165 461 121 440 q 263 482 208 482 q 312 477 288 482 q 358 464 336 473 q 399 443 380 455 q 429 417 417 431 q 472 450 450 437 q 514 470 494 463 q 552 480 534 477 q 583 483 570 483 q 653 471 620 483 q 711 436 686 460 q 751 374 736 412 q 766 284 766 336 l 766 277 l 473 277 l 473 262 q 483 205 473 235 q 513 151 493 176 q 562 110 533 125 q 627 94 590 94 q 688 114 661 94 q 736 186 715 134 l 766 173 m 629 321 q 625 356 629 336 q 611 392 621 375 q 585 420 601 409 q 545 432 569 432 q 518 424 532 432 q 495 402 505 416 q 478 367 485 387 q 472 321 472 346 l 629 321 m 353 203 q 346 285 353 244 q 325 359 339 326 q 290 411 311 391 q 242 431 269 431 q 219 424 231 431 q 198 397 207 416 q 183 349 189 379 q 177 272 177 318 q 187 181 177 224 q 213 106 197 138 q 250 55 229 74 q 292 36 271 36 q 338 74 322 36 q 353 203 353 113 z "},"":{"ha":479,"x_min":21,"x_max":463,"o":"m 208 56 l 299 56 q 348 62 328 56 q 381 84 368 68 q 403 126 395 100 q 416 191 412 153 l 454 191 l 447 0 l 21 0 l 21 41 l 275 412 l 198 412 q 150 404 169 412 q 119 381 131 396 q 101 343 107 366 q 92 290 96 320 l 53 290 l 56 468 l 463 468 l 463 427 l 208 56 m 294 543 l 197 543 l 73 735 l 117 735 l 245 633 l 374 735 l 417 735 l 294 543 z "},"":{"ha":757,"x_min":9,"x_max":744,"o":"m 744 652 q 712 649 726 652 q 683 634 698 646 q 650 598 667 622 q 608 533 632 574 l 458 280 l 458 130 q 464 86 458 104 q 483 59 470 69 q 518 45 496 49 q 571 41 540 41 l 571 0 l 182 0 l 182 41 q 235 45 214 41 q 271 59 257 49 q 291 86 285 69 q 297 130 297 104 l 297 253 l 123 547 q 92 597 105 576 q 65 629 78 617 q 39 647 52 642 q 9 652 26 652 l 9 693 l 341 693 l 341 652 q 285 646 304 652 q 266 625 266 640 q 274 599 266 616 q 301 550 282 582 q 350 471 319 519 q 427 353 381 422 l 549 562 q 565 595 560 579 q 570 623 570 611 q 555 645 570 637 q 504 652 541 652 l 504 693 l 744 693 l 744 652 l 744 652 m 540 867 q 534 841 540 853 q 520 819 529 828 q 498 804 511 810 q 471 799 486 799 q 445 804 457 799 q 423 819 432 810 q 408 841 414 828 q 403 867 403 853 q 408 894 403 882 q 423 916 414 907 q 445 930 432 925 q 471 936 457 936 q 498 930 486 936 q 520 916 511 925 q 534 894 529 907 q 540 867 540 882 m 347 867 q 341 841 347 853 q 327 819 336 828 q 305 804 317 810 q 278 799 292 799 q 251 804 264 799 q 230 819 239 810 q 215 841 220 828 q 210 867 210 853 q 215 894 210 882 q 230 916 220 907 q 251 930 239 925 q 278 936 264 936 q 305 930 292 936 q 327 916 317 925 q 341 894 336 907 q 347 867 347 882 z "},"":{"ha":315,"x_min":0,"x_max":0,"o":""},"":{"ha":349,"x_min":96,"x_max":253,"o":"m 247 414 q 241 386 247 399 q 226 363 235 373 q 203 348 216 353 q 174 342 189 342 q 145 348 159 342 q 122 363 132 353 q 106 386 112 373 q 100 414 100 399 q 106 443 100 429 q 122 466 112 456 q 145 482 132 476 q 174 488 159 488 q 203 482 189 488 q 226 466 216 476 q 241 443 235 456 q 247 414 247 429 m 253 -130 q 248 -164 253 -147 q 233 -195 243 -181 q 208 -217 223 -209 q 173 -226 193 -226 q 142 -218 156 -226 q 117 -196 127 -210 q 101 -164 107 -182 q 96 -125 96 -146 q 96 -115 96 -122 q 98 -100 97 -108 q 100 -83 99 -92 q 102 -70 101 -75 l 154 300 l 195 300 l 246 -70 q 251 -102 250 -88 q 253 -130 253 -116 z "},"":{"ha":534,"x_min":62,"x_max":472,"o":"m 472 173 q 449 104 465 138 q 409 43 434 70 q 350 1 385 17 q 271 -16 316 -16 q 229 -12 249 -16 q 190 0 208 -7 l 119 -193 l 70 -193 l 149 24 q 84 105 107 55 q 62 216 62 155 q 80 326 62 277 q 129 410 98 375 q 198 463 159 444 q 279 482 237 482 q 315 480 297 482 l 387 677 l 436 677 l 360 470 q 406 448 387 461 q 437 419 425 434 q 455 388 450 404 q 461 358 461 372 q 446 312 461 330 q 399 294 431 294 q 365 301 378 294 q 343 320 351 309 q 332 346 336 332 q 326 374 328 359 l 239 136 q 282 105 258 116 q 333 94 305 94 q 359 97 345 94 q 388 110 374 100 q 416 138 402 119 q 442 186 430 156 l 472 173 m 294 423 q 257 432 279 432 q 199 402 220 432 q 178 315 178 372 q 185 243 178 277 q 206 182 193 210 l 294 423 z "},"":{"ha":534,"x_min":5,"x_max":528,"o":"m 528 230 q 507 141 521 184 q 472 63 494 98 q 418 8 450 29 q 345 -12 387 -12 q 300 -6 319 -12 q 264 9 280 -1 q 234 31 248 19 q 208 56 220 43 q 159 7 188 26 q 92 -12 131 -12 q 53 -4 69 -12 q 26 16 37 3 q 11 46 16 29 q 5 80 5 62 q 11 117 5 98 q 30 149 17 135 q 62 172 42 163 q 109 181 81 181 q 121 181 115 181 q 134 180 127 180 q 134 188 134 183 q 134 196 134 192 q 130 252 134 221 q 123 317 126 283 l 17 317 l 17 386 l 115 386 q 111 436 114 411 q 109 488 109 462 q 119 569 109 530 q 153 640 129 609 q 215 689 176 671 q 312 708 254 708 q 376 700 347 708 q 428 675 406 691 q 463 638 450 660 q 475 589 475 616 q 472 566 475 578 q 462 543 469 553 q 441 527 454 533 q 410 520 429 520 q 372 531 385 520 q 355 557 360 541 q 348 592 349 574 q 342 627 346 610 q 329 653 338 643 q 300 664 320 664 q 274 653 283 664 q 261 624 265 642 q 255 583 256 606 q 254 536 254 559 q 258 460 254 498 q 265 386 262 422 l 384 386 l 384 317 l 265 317 q 261 241 265 283 q 248 157 258 199 q 310 139 284 147 q 359 130 336 130 q 403 136 382 130 q 442 154 424 141 q 473 186 460 166 q 495 237 487 207 l 528 230 m 88 39 q 107 45 99 39 q 120 63 115 52 q 127 87 125 74 q 132 115 130 101 q 102 122 116 122 q 67 109 77 122 q 58 79 58 95 q 64 51 58 63 q 88 39 71 39 z "},"":{"ha":604,"x_min":20,"x_max":583,"o":"m 528 152 l 424 256 q 366 228 397 237 q 303 218 335 218 q 239 228 271 218 q 181 257 208 238 l 75 152 l 20 207 l 126 313 q 99 366 109 336 q 90 429 90 396 q 99 493 90 461 q 128 551 109 525 l 21 659 l 75 715 l 183 607 q 238 634 207 625 q 301 643 269 643 q 367 634 335 643 q 420 607 398 625 l 528 715 l 583 659 l 476 553 q 506 495 496 527 q 515 431 515 463 q 506 366 515 397 q 479 311 496 335 l 583 206 l 528 152 m 431 431 q 421 480 431 457 q 394 522 411 504 q 353 550 376 539 q 304 560 330 560 q 252 550 276 560 q 211 523 229 540 q 183 481 193 505 q 173 430 173 457 q 183 379 173 403 q 211 338 193 356 q 253 311 229 321 q 304 300 277 300 q 354 311 330 300 q 394 339 377 321 q 421 381 412 357 q 431 431 431 405 z "},"":{"ha":534,"x_min":0,"x_max":534,"o":"m 341 162 l 341 125 q 343 87 341 103 q 353 61 345 71 q 378 46 361 51 q 429 41 396 41 l 429 0 l 109 0 l 109 41 q 160 46 142 41 q 187 62 178 52 q 197 89 195 73 q 198 125 198 104 l 198 162 l 8 162 l 8 218 l 198 218 l 198 271 l 190 290 l 8 290 l 8 344 l 170 344 l 83 578 q 71 607 77 594 q 55 629 64 620 q 32 645 45 639 q 0 652 19 650 l 0 693 l 274 693 l 274 652 q 258 650 267 652 q 242 645 250 648 q 229 635 235 642 q 224 621 224 629 q 230 600 224 618 q 245 555 236 581 q 265 497 254 528 q 286 439 276 467 q 302 391 295 412 q 312 366 310 371 l 387 582 q 396 621 396 600 q 392 637 396 631 q 382 646 389 643 q 369 651 376 650 q 353 652 361 652 l 353 693 l 534 693 l 534 652 q 500 646 514 652 q 477 628 487 639 q 459 602 467 616 q 444 572 451 587 l 365 344 l 526 344 l 526 290 l 345 290 l 341 279 l 341 218 l 526 218 l 526 162 l 341 162 z "},"":{"ha":231,"x_min":90,"x_max":141,"o":"m 90 338 l 90 741 l 141 741 l 141 338 l 90 338 m 90 -199 l 90 203 l 141 203 l 141 -199 l 90 -199 z "},"":{"ha":523,"x_min":47,"x_max":477,"o":"m 477 232 q 467 180 477 203 q 442 137 458 157 q 407 101 427 117 q 366 71 387 85 q 394 41 380 56 q 419 9 408 26 q 437 -29 431 -8 q 444 -77 444 -50 q 430 -137 444 -109 q 391 -184 416 -164 q 331 -215 366 -204 q 255 -227 296 -227 q 191 -218 221 -227 q 138 -194 161 -210 q 102 -154 115 -178 q 89 -100 89 -130 q 106 -58 89 -75 q 147 -40 123 -40 q 190 -56 173 -40 q 207 -94 207 -71 q 205 -109 207 -101 q 200 -123 203 -116 q 195 -138 197 -130 q 193 -153 193 -145 q 209 -179 193 -168 q 258 -191 224 -191 q 326 -168 300 -191 q 352 -106 352 -146 q 329 -56 352 -80 q 273 -7 307 -31 q 200 43 239 18 q 126 98 160 69 q 70 161 93 127 q 47 237 47 195 q 57 293 47 267 q 83 341 67 319 q 117 381 98 363 q 155 412 136 399 q 129 440 142 426 q 104 471 115 454 q 87 508 94 488 q 80 553 80 528 q 96 618 80 589 q 137 668 111 648 q 197 700 163 689 q 267 711 231 711 q 329 702 298 711 q 384 675 359 692 q 423 635 408 659 q 438 583 438 611 q 422 540 438 557 q 378 524 406 524 q 339 538 355 524 q 322 576 322 553 q 326 601 322 589 q 330 625 330 612 q 324 645 330 635 q 310 662 319 655 q 289 674 301 669 q 264 678 277 678 q 232 672 248 678 q 203 654 216 665 q 184 627 191 643 q 176 592 176 611 q 189 552 176 571 q 223 514 202 532 q 271 477 244 496 q 327 439 298 458 q 382 397 355 419 q 430 350 409 375 q 464 296 451 325 q 477 232 477 267 m 390 180 q 378 228 390 207 q 341 272 366 250 q 278 322 317 295 q 184 390 239 350 q 149 349 161 370 q 136 297 136 328 q 146 256 136 275 q 180 216 156 237 q 243 165 203 194 q 340 92 282 136 q 376 131 361 111 q 390 180 390 151 z "},"":{"ha":330,"x_min":0,"x_max":330,"o":"m 330 644 q 325 617 330 629 q 310 595 319 604 q 289 581 301 586 q 262 575 276 575 q 235 581 248 575 q 213 595 222 586 q 199 617 204 604 q 193 644 193 629 q 199 670 193 658 q 213 692 204 683 q 235 707 222 701 q 262 712 248 712 q 289 707 276 712 q 310 692 301 701 q 325 670 319 683 q 330 644 330 658 m 137 644 q 132 617 137 629 q 117 595 126 604 q 95 581 108 586 q 68 575 83 575 q 42 581 54 575 q 20 595 29 586 q 5 617 11 604 q 0 644 0 629 q 5 670 0 658 q 20 692 11 683 q 42 707 29 701 q 68 712 54 712 q 95 707 83 712 q 117 692 108 701 q 132 670 126 683 q 137 644 137 658 z "},"":{"ha":782,"x_min":35,"x_max":761,"o":"m 761 346 q 733 204 761 270 q 656 89 705 138 q 541 11 607 39 q 397 -17 474 -17 q 255 11 321 -17 q 140 88 189 39 q 63 203 91 137 q 35 346 35 269 q 63 489 35 423 q 140 604 91 555 q 255 680 189 652 q 397 708 321 708 q 541 680 475 708 q 656 604 608 652 q 733 489 705 555 q 761 346 761 423 m 711 346 q 687 469 711 412 q 620 568 663 526 q 520 635 578 610 q 397 659 463 659 q 275 635 332 659 q 176 568 218 610 q 110 469 134 526 q 85 346 85 412 q 110 224 85 281 q 176 125 134 167 q 275 59 218 83 q 397 35 332 35 q 520 59 463 35 q 620 125 578 83 q 687 224 663 167 q 711 346 711 281 m 590 237 q 566 201 581 220 q 530 165 551 182 q 478 137 508 149 q 410 126 449 126 q 312 143 353 126 q 243 190 271 161 q 203 257 216 219 q 189 335 189 294 q 203 416 189 376 q 243 489 216 457 q 310 541 270 521 q 404 561 351 561 q 447 556 427 561 q 481 546 467 551 q 506 536 496 541 q 520 531 515 531 q 536 540 533 531 q 544 562 540 549 l 567 562 l 577 401 l 552 401 q 531 453 545 430 q 499 493 517 477 q 460 517 481 509 q 418 526 439 526 q 363 511 387 526 q 325 470 340 496 q 303 410 310 444 q 296 335 296 375 q 306 264 296 296 q 333 210 315 232 q 375 175 351 187 q 430 163 400 163 q 475 171 454 163 q 513 192 496 179 q 544 221 530 205 q 568 254 557 237 l 590 237 z "},"":{"ha":374,"x_min":26,"x_max":374,"o":"m 374 455 q 358 443 369 450 q 333 427 348 435 q 301 414 319 420 q 265 409 283 409 q 225 421 241 409 q 209 451 209 434 q 160 421 185 433 q 104 409 136 409 q 46 428 66 409 q 26 481 26 447 q 45 523 26 504 q 93 556 64 541 q 152 581 121 570 q 209 600 184 592 l 209 611 q 198 658 209 640 q 164 676 188 676 q 138 671 149 676 q 125 650 127 666 q 127 642 126 646 q 128 632 128 637 q 126 618 128 625 q 118 604 123 610 q 103 594 113 598 q 79 590 94 590 q 46 600 59 590 q 34 628 34 610 q 47 660 34 646 q 81 683 61 673 q 126 697 102 692 q 172 702 151 702 q 239 697 212 702 q 283 681 266 692 q 308 651 300 669 q 315 607 315 633 l 315 524 q 316 499 315 512 q 317 479 316 486 q 322 469 319 473 q 334 464 326 464 q 343 466 338 464 q 355 472 349 469 q 366 478 361 475 q 374 484 371 482 l 374 455 m 30 316 l 30 357 l 370 357 l 370 316 l 30 316 m 209 570 q 146 534 162 553 q 130 495 130 515 q 137 472 130 481 q 160 463 145 463 q 184 470 172 463 q 209 487 197 477 l 209 570 z "},"":{"ha":524,"x_min":32,"x_max":504,"o":"m 454 -4 l 239 237 l 454 478 l 504 478 l 379 237 l 504 -4 l 454 -4 m 244 -4 l 32 237 l 244 478 l 292 478 l 168 237 l 292 -4 l 244 -4 z "},"":{"ha":625,"x_min":40,"x_max":585,"o":"m 510 191 l 510 349 l 40 349 l 40 423 l 585 423 l 585 191 l 510 191 z "},"":{"ha":359,"x_min":20,"x_max":338,"o":"m 20 189 l 20 291 l 338 291 l 338 189 l 20 189 z "},"":{"ha":782,"x_min":35,"x_max":761,"o":"m 761 346 q 733 204 761 270 q 656 89 705 138 q 541 11 607 39 q 397 -17 474 -17 q 255 11 321 -17 q 140 88 189 39 q 63 203 91 137 q 35 346 35 269 q 63 489 35 423 q 140 604 91 555 q 255 680 189 652 q 397 708 321 708 q 541 680 475 708 q 656 604 608 652 q 733 489 705 555 q 761 346 761 423 m 711 346 q 687 469 711 412 q 620 568 663 526 q 520 635 578 610 q 397 659 463 659 q 275 635 332 659 q 176 568 218 610 q 110 469 134 526 q 85 346 85 412 q 110 224 85 281 q 176 125 134 167 q 275 59 218 83 q 397 35 332 35 q 520 59 463 35 q 620 125 578 83 q 687 224 663 167 q 711 346 711 281 m 475 143 l 341 326 l 330 326 l 330 220 q 342 179 330 191 q 380 168 355 168 l 380 143 l 184 143 l 184 168 q 223 179 212 168 q 234 223 234 191 l 234 480 q 223 518 234 509 q 184 528 212 528 l 184 553 l 349 553 q 420 550 384 553 q 485 536 456 547 q 531 504 513 525 q 549 447 549 483 q 541 403 549 422 q 517 370 532 384 q 486 348 503 357 q 451 336 468 339 l 523 233 q 539 215 529 226 q 563 193 550 203 q 589 175 575 183 q 617 168 603 168 l 617 143 l 475 143 m 449 441 q 444 469 449 455 q 427 494 438 483 q 399 512 416 505 q 359 519 382 519 q 346 518 352 519 q 337 517 340 517 q 330 515 333 516 l 330 362 q 373 365 352 362 q 412 377 395 368 q 439 401 429 386 q 449 441 449 416 z "},"":{"ha":330,"x_min":0,"x_max":330,"o":"m 0 575 l 0 666 l 330 666 l 330 575 l 0 575 z "},"":{"ha":330,"x_min":0,"x_max":330,"o":"m 0 575 l 0 666 l 330 666 l 330 575 l 0 575 z "},"":{"ha":322,"x_min":45,"x_max":277,"o":"m 277 614 q 268 569 277 590 q 243 532 259 548 q 207 508 228 517 q 161 499 186 499 q 116 508 137 499 q 79 532 95 517 q 55 569 64 548 q 45 614 45 590 q 55 660 45 639 q 79 696 64 681 q 116 721 95 712 q 161 730 137 730 q 207 721 186 730 q 243 696 228 712 q 268 660 259 681 q 277 614 277 639 m 226 614 q 207 660 226 642 q 161 679 189 679 q 115 660 134 679 q 96 614 96 642 q 115 569 96 587 q 161 550 134 550 q 207 569 189 550 q 226 614 226 587 z "},"":{"ha":1007,"x_min":201,"x_max":806,"o":"m 534 361 l 534 180 l 473 180 l 473 361 l 201 361 l 201 423 l 473 423 l 473 604 l 534 604 l 534 423 l 806 423 l 806 361 l 534 361 m 201 0 l 201 62 l 806 62 l 806 0 l 201 0 z "},"":{"ha":355,"x_min":16,"x_max":352,"o":"m 300 262 l 16 262 l 16 287 q 101 369 64 332 q 163 435 138 405 q 200 493 188 466 q 213 549 213 521 q 191 601 213 582 q 136 619 169 619 q 91 605 113 619 q 57 559 68 591 l 27 559 q 45 608 33 585 q 76 649 58 631 q 119 677 94 667 q 173 688 143 688 q 232 679 205 688 q 276 655 258 670 q 304 620 294 640 q 314 578 314 600 q 305 527 314 551 q 281 481 296 503 q 246 441 266 460 q 205 406 227 422 q 163 373 184 389 q 125 342 142 357 l 216 342 q 280 350 252 342 q 322 383 308 357 l 352 383 l 300 262 z "},"":{"ha":350,"x_min":16,"x_max":316,"o":"m 316 405 q 300 344 316 371 q 258 298 285 317 q 193 269 231 279 q 112 259 155 259 q 75 261 93 259 q 44 269 58 263 q 23 283 31 274 q 16 307 16 292 q 25 332 16 321 q 56 342 35 342 q 79 336 68 342 q 102 321 90 329 q 127 306 114 313 q 157 299 141 299 q 184 305 172 299 q 205 320 196 311 q 218 341 214 329 q 223 365 223 353 q 183 435 223 410 q 75 465 143 460 l 75 489 q 119 498 98 490 q 157 519 140 507 q 182 548 173 532 q 192 582 192 564 q 175 617 192 604 q 132 631 159 631 q 82 615 106 631 q 39 572 58 600 l 16 580 q 39 619 26 600 q 70 655 52 639 q 112 681 87 671 q 169 690 136 690 q 259 668 226 690 q 292 606 292 646 q 273 556 292 582 q 227 513 254 531 q 261 498 245 507 q 289 475 277 488 q 309 445 301 462 q 316 405 316 427 z "},"":{"ha":359,"x_min":115,"x_max":359,"o":"m 359 690 q 355 668 359 679 q 342 652 352 657 l 168 543 l 115 543 l 266 728 q 282 740 272 736 q 304 744 292 744 q 343 728 327 744 q 359 690 359 713 z "},"":{"ha":603,"x_min":32,"x_max":595,"o":"m 595 146 q 587 80 593 110 q 565 28 580 50 q 526 -4 550 7 q 468 -16 503 -16 q 424 -8 443 -16 q 391 13 404 0 q 370 43 378 26 q 360 77 362 59 q 331 46 347 62 q 294 16 315 30 q 247 -6 273 3 q 186 -16 220 -16 q 142 -9 161 -16 q 112 7 123 -3 l 112 -17 q 119 -55 112 -39 q 134 -86 125 -71 q 149 -118 142 -101 q 156 -159 156 -134 q 137 -209 156 -191 q 94 -227 118 -227 q 69 -221 80 -227 q 50 -208 58 -216 q 37 -187 41 -199 q 32 -163 32 -176 q 37 -122 32 -144 q 45 -83 41 -101 q 57 6 52 -38 q 61 97 61 51 l 61 467 l 206 467 l 206 170 q 219 97 206 119 q 264 75 232 75 q 312 91 286 75 q 360 134 337 108 l 360 467 l 498 467 l 498 170 q 498 140 498 155 q 502 112 499 125 q 511 91 505 99 q 526 82 516 82 q 539 88 534 82 q 548 104 545 94 q 554 125 552 113 q 557 146 556 136 l 595 146 z "},"":{"ha":548,"x_min":-7,"x_max":551,"o":"m 454 652 l 454 -224 l 404 -224 l 404 650 l 310 650 l 310 -224 l 259 -224 l 259 247 q 144 263 193 247 q 61 308 94 279 q 10 376 27 337 q -7 461 -7 416 q 10 546 -7 505 q 61 621 27 588 q 144 673 94 653 q 259 693 193 693 l 551 693 l 551 652 l 454 652 z "},"":{"ha":292,"x_min":60,"x_max":233,"o":"m 233 348 q 226 314 233 330 q 207 286 219 298 q 179 267 195 274 q 146 260 163 260 q 113 267 128 260 q 85 286 97 274 q 66 314 73 298 q 60 348 60 330 q 66 381 60 366 q 85 409 73 397 q 113 427 97 420 q 146 434 128 434 q 179 427 163 434 q 207 409 195 420 q 226 381 219 397 q 233 348 233 366 z "},"":{"ha":229,"x_min":28,"x_max":201,"o":"m 201 348 q 194 314 201 330 q 175 286 187 298 q 148 267 163 274 q 114 260 132 260 q 81 267 96 260 q 53 286 65 274 q 35 314 41 298 q 28 348 28 330 q 35 381 28 366 q 53 409 41 397 q 81 427 65 420 q 114 434 96 434 q 148 427 132 434 q 175 409 163 420 q 194 381 187 397 q 201 348 201 366 z "},"":{"ha":252,"x_min":0,"x_max":249,"o":"m 249 -136 q 235 -176 249 -158 q 199 -205 220 -193 q 151 -224 177 -218 q 99 -231 124 -231 q 52 -226 76 -231 q 0 -212 28 -222 l 24 -171 q 63 -182 44 -178 q 94 -186 82 -186 q 116 -183 107 -186 q 130 -173 125 -179 q 138 -160 136 -167 q 140 -145 140 -153 q 129 -121 140 -127 q 104 -115 118 -115 q 87 -116 95 -115 q 73 -120 80 -118 l 55 -108 l 104 0 l 148 0 l 119 -66 l 143 -66 q 180 -70 161 -66 q 214 -81 199 -73 q 239 -103 229 -90 q 249 -136 249 -116 z "},"":{"ha":431,"x_min":77,"x_max":351,"o":"m 88 283 l 88 308 q 126 310 111 308 q 152 319 142 313 q 165 335 161 325 q 170 361 170 345 l 170 576 q 169 596 170 587 q 165 611 168 605 q 154 622 161 618 q 133 626 146 626 q 114 624 125 626 q 88 616 102 621 l 77 639 l 248 709 l 277 709 l 277 361 q 280 335 277 345 q 292 319 283 325 q 314 310 300 313 q 351 308 328 308 l 351 283 l 88 283 z "},"":{"ha":393,"x_min":26,"x_max":368,"o":"m 368 557 q 357 499 368 527 q 323 449 345 471 q 271 415 302 428 q 200 403 239 403 q 127 415 159 403 q 73 448 95 427 q 38 494 50 468 q 26 549 26 521 q 38 606 26 578 q 72 654 50 633 q 125 687 94 675 q 196 700 157 700 q 266 689 235 700 q 320 658 298 677 q 356 613 343 639 q 368 557 368 587 m 261 534 q 256 583 261 558 q 241 626 251 607 q 216 658 231 646 q 181 670 201 670 q 164 665 173 670 q 149 650 156 661 q 138 620 142 639 q 134 574 134 602 q 141 520 134 546 q 160 476 148 495 q 186 445 172 456 q 217 434 201 434 q 250 457 239 434 q 261 534 261 479 m 33 316 l 33 357 l 366 357 l 366 316 l 33 316 z "},"":{"ha":524,"x_min":20,"x_max":492,"o":"m 20 -4 l 144 237 l 20 478 l 69 478 l 284 237 l 69 -4 l 20 -4 m 231 -4 l 356 237 l 231 478 l 279 478 l 492 237 l 279 -4 l 231 -4 z "},"":{"ha":890,"x_min":88,"x_max":802,"o":"m 747 90 l 747 -4 l 646 -4 l 646 90 l 446 90 l 446 153 l 669 421 l 747 421 l 747 153 l 802 153 l 802 90 l 747 90 m 259 -8 l 193 -8 l 692 705 l 758 705 l 259 -8 m 100 268 l 100 292 q 138 295 122 292 q 163 303 153 297 q 177 319 173 309 q 181 346 181 330 l 181 561 q 180 581 181 571 q 176 598 180 590 q 165 610 173 606 q 144 614 158 614 q 125 612 136 614 q 100 604 114 610 l 88 627 l 260 697 l 289 697 l 289 346 q 292 319 289 330 q 303 303 295 309 q 326 295 311 297 q 362 292 340 292 l 362 268 l 100 268 m 646 326 l 500 153 l 646 153 l 646 326 z "},"":{"ha":890,"x_min":54,"x_max":836,"o":"m 784 -4 l 500 -4 l 500 20 q 585 101 549 66 q 647 168 622 137 q 685 227 672 198 q 697 286 697 255 q 674 336 697 319 q 618 353 651 353 q 574 338 595 353 q 541 292 553 324 l 511 292 q 529 342 517 318 q 558 385 541 366 q 600 414 576 403 q 653 425 623 425 q 712 416 686 425 q 758 390 739 406 q 788 354 777 374 q 798 312 798 334 q 779 236 798 270 q 731 175 760 203 q 669 123 702 147 q 609 76 636 99 l 700 76 q 764 83 736 76 q 806 117 792 90 l 836 117 l 784 -4 m 225 -8 l 159 -8 l 658 705 l 724 705 l 225 -8 m 66 268 l 66 292 q 104 295 88 292 q 129 303 119 297 q 143 319 139 309 q 147 346 147 330 l 147 561 q 146 581 147 571 q 142 598 146 590 q 132 610 139 606 q 111 614 124 614 q 91 612 102 614 q 66 604 80 610 l 54 627 l 226 697 l 255 697 l 255 346 q 258 319 255 330 q 269 303 261 309 q 292 295 277 297 q 328 292 306 292 l 328 268 l 66 268 z "},"":{"ha":890,"x_min":85,"x_max":802,"o":"m 747 90 l 747 -4 l 646 -4 l 646 90 l 446 90 l 446 153 l 669 421 l 747 421 l 747 153 l 802 153 l 802 90 l 747 90 m 259 -8 l 193 -8 l 692 705 l 758 705 l 259 -8 m 385 414 q 370 352 385 380 q 327 303 354 324 q 262 271 300 283 q 181 260 224 260 q 144 262 162 260 q 114 269 127 264 q 93 284 100 275 q 85 307 85 293 q 95 332 85 321 q 125 343 104 343 q 148 336 137 343 q 171 321 159 330 q 197 307 183 313 q 227 300 210 300 q 253 305 241 300 q 274 319 265 310 q 288 339 283 328 q 292 362 292 350 q 252 437 292 407 q 144 472 212 467 l 144 496 q 188 505 167 498 q 226 523 210 511 q 252 549 242 534 q 261 581 261 564 q 244 623 261 608 q 201 637 228 637 q 151 622 175 637 q 108 578 127 607 l 85 587 q 107 626 95 606 q 137 662 120 646 q 178 687 155 677 q 235 697 202 697 q 327 674 292 697 q 361 611 361 652 q 355 586 361 600 q 339 561 349 573 q 318 538 330 549 q 296 523 307 528 q 330 507 314 517 q 358 485 346 498 q 378 454 370 471 q 385 414 385 437 m 646 326 l 500 153 l 646 153 l 646 326 z "},"":{"ha":489,"x_min":39,"x_max":439,"o":"m 176 421 q 183 451 176 437 q 200 476 189 465 q 224 492 210 486 q 255 498 239 498 q 285 492 271 498 q 310 476 299 486 q 326 451 320 465 q 332 421 332 437 q 326 391 332 405 q 310 366 320 376 q 285 349 299 355 q 255 342 271 342 q 224 349 239 342 q 200 366 210 355 q 183 391 189 376 q 176 421 176 405 m 39 -62 q 47 -18 39 -40 q 69 24 56 3 q 100 65 83 45 q 135 106 117 85 q 171 147 153 126 q 202 189 189 168 q 225 232 216 210 q 233 277 233 254 l 274 277 q 271 231 274 253 q 261 187 268 209 q 245 142 255 165 q 222 92 235 119 q 193 14 201 49 q 185 -57 185 -22 q 271 -178 185 -178 q 294 -175 283 -178 q 315 -166 306 -172 q 330 -154 324 -161 q 336 -138 336 -147 q 331 -120 336 -131 q 320 -95 326 -109 q 309 -68 314 -82 q 304 -40 304 -54 q 319 1 304 -16 q 360 18 334 18 q 417 -3 395 18 q 439 -59 439 -25 q 428 -115 439 -86 q 394 -169 418 -144 q 330 -209 370 -193 q 234 -224 291 -224 q 158 -215 194 -224 q 96 -185 123 -205 q 55 -135 70 -165 q 39 -62 39 -104 z "},"":{"ha":757,"x_min":8,"x_max":751,"o":"m 404 0 l 404 41 q 467 48 449 41 q 485 73 485 56 q 484 85 485 77 q 477 108 482 93 q 463 148 472 123 q 436 211 453 173 l 214 211 q 194 159 203 182 q 180 120 186 138 q 174 96 174 101 q 196 57 174 70 q 266 41 218 44 l 266 0 l 8 0 l 8 41 q 40 49 26 44 q 66 65 54 54 q 90 96 79 77 q 115 146 102 115 l 346 708 l 387 708 l 644 123 q 667 84 654 100 q 694 59 680 69 q 723 45 708 50 q 751 41 737 41 l 751 0 l 404 0 m 318 475 l 236 271 l 410 271 l 318 475 m 399 767 l 254 852 q 215 882 228 868 q 203 914 203 897 q 216 952 203 937 q 252 968 229 968 q 292 958 273 968 q 329 928 311 948 l 465 767 l 399 767 z "},"":{"ha":757,"x_min":8,"x_max":751,"o":"m 404 0 l 404 41 q 467 48 449 41 q 485 73 485 56 q 484 85 485 77 q 477 108 482 93 q 463 148 472 123 q 436 211 453 173 l 214 211 q 194 159 203 182 q 180 120 186 138 q 174 96 174 101 q 196 57 174 70 q 266 41 218 44 l 266 0 l 8 0 l 8 41 q 40 49 26 44 q 66 65 54 54 q 90 96 79 77 q 115 146 102 115 l 346 708 l 387 708 l 644 123 q 667 84 654 100 q 694 59 680 69 q 723 45 708 50 q 751 41 737 41 l 751 0 l 404 0 m 318 475 l 236 271 l 410 271 l 318 475 m 555 914 q 552 892 555 903 q 539 876 549 881 l 364 767 l 311 767 l 463 952 q 479 964 469 960 q 500 968 489 968 q 539 952 524 968 q 555 914 555 937 z "},"":{"ha":757,"x_min":8,"x_max":751,"o":"m 404 0 l 404 41 q 467 48 449 41 q 485 73 485 56 q 484 85 485 77 q 477 108 482 93 q 463 148 472 123 q 436 211 453 173 l 214 211 q 194 159 203 182 q 180 120 186 138 q 174 96 174 101 q 196 57 174 70 q 266 41 218 44 l 266 0 l 8 0 l 8 41 q 40 49 26 44 q 66 65 54 54 q 90 96 79 77 q 115 146 102 115 l 346 708 l 387 708 l 644 123 q 667 84 654 100 q 694 59 680 69 q 723 45 708 50 q 751 41 737 41 l 751 0 l 404 0 m 318 475 l 236 271 l 410 271 l 318 475 m 513 759 l 378 861 l 242 759 l 199 759 l 329 951 l 427 951 l 556 759 l 513 759 z "},"":{"ha":757,"x_min":8,"x_max":751,"o":"m 404 0 l 404 41 q 467 48 449 41 q 485 73 485 56 q 484 85 485 77 q 477 108 482 93 q 463 148 472 123 q 436 211 453 173 l 214 211 q 194 159 203 182 q 180 120 186 138 q 174 96 174 101 q 196 57 174 70 q 266 41 218 44 l 266 0 l 8 0 l 8 41 q 40 49 26 44 q 66 65 54 54 q 90 96 79 77 q 115 146 102 115 l 346 708 l 387 708 l 644 123 q 667 84 654 100 q 694 59 680 69 q 723 45 708 50 q 751 41 737 41 l 751 0 l 404 0 m 318 475 l 236 271 l 410 271 l 318 475 m 562 946 q 551 886 560 913 q 526 840 542 859 q 489 810 510 821 q 445 799 469 799 q 398 806 416 799 q 365 823 380 814 q 334 840 350 832 q 294 848 318 848 q 275 844 285 848 q 256 832 264 840 q 243 815 248 825 q 237 794 237 805 l 194 794 q 210 853 198 826 q 239 900 222 880 q 279 930 257 920 q 325 941 301 941 q 368 934 349 941 q 404 918 387 926 q 437 902 420 909 q 472 895 453 895 q 504 906 491 895 q 521 946 516 918 l 562 946 l 562 946 z "},"":{"ha":757,"x_min":8,"x_max":751,"o":"m 404 0 l 404 41 q 467 48 449 41 q 485 73 485 56 q 484 85 485 77 q 477 108 482 93 q 463 148 472 123 q 436 211 453 173 l 214 211 q 194 159 203 182 q 180 120 186 138 q 174 96 174 101 q 196 57 174 70 q 266 41 218 44 l 266 0 l 8 0 l 8 41 q 40 49 26 44 q 66 65 54 54 q 90 96 79 77 q 115 146 102 115 l 346 708 l 387 708 l 644 123 q 667 84 654 100 q 694 59 680 69 q 723 45 708 50 q 751 41 737 41 l 751 0 l 404 0 m 318 475 l 236 271 l 410 271 l 318 475 m 541 867 q 535 841 541 853 q 520 819 530 828 q 499 804 511 810 q 472 799 486 799 q 445 804 458 799 q 424 819 433 810 q 409 841 414 828 q 404 867 404 853 q 409 894 404 882 q 424 916 414 907 q 445 930 433 925 q 472 936 458 936 q 499 930 486 936 q 520 916 511 925 q 535 894 530 907 q 541 867 541 882 m 347 867 q 342 841 347 853 q 327 819 336 828 q 306 804 318 810 q 279 799 293 799 q 252 804 264 799 q 230 819 239 810 q 216 841 221 828 q 210 867 210 853 q 216 894 210 882 q 230 916 221 907 q 252 930 239 925 q 279 936 264 936 q 306 930 293 936 q 327 916 318 925 q 342 894 336 907 q 347 867 347 882 z "},"":{"ha":757,"x_min":8,"x_max":751,"o":"m 404 0 l 404 41 q 467 48 449 41 q 485 73 485 56 q 484 85 485 77 q 477 108 482 93 q 463 148 472 123 q 436 211 453 173 l 214 211 q 194 159 203 182 q 180 120 186 138 q 174 96 174 101 q 196 57 174 70 q 266 41 218 44 l 266 0 l 8 0 l 8 41 q 40 49 26 44 q 66 65 54 54 q 90 96 79 77 q 115 146 102 115 l 346 708 l 387 708 l 644 123 q 667 84 654 100 q 694 59 680 69 q 723 45 708 50 q 751 41 737 41 l 751 0 l 404 0 m 318 475 l 236 271 l 410 271 l 318 475 m 483 875 q 474 833 483 852 q 451 799 466 813 q 417 775 437 784 q 375 767 397 767 q 333 775 353 767 q 299 799 313 784 q 276 833 284 813 q 267 875 267 852 q 276 917 267 897 q 299 950 284 936 q 333 974 313 965 q 375 982 353 982 q 417 974 397 982 q 451 950 437 965 q 474 917 466 936 q 483 875 483 897 m 431 875 q 415 915 431 898 q 375 931 399 931 q 335 915 351 931 q 319 875 319 898 q 323 852 319 863 q 335 834 328 842 q 353 822 342 827 q 375 818 363 818 q 397 822 387 818 q 415 834 407 827 q 427 852 422 842 q 431 875 431 863 z "},"":{"ha":1050,"x_min":48,"x_max":1007,"o":"m 937 2 l 389 0 l 389 41 l 409 41 q 473 66 452 41 q 483 93 479 74 q 488 144 488 113 l 488 248 l 291 248 l 239 149 q 224 122 230 133 q 215 103 218 111 q 211 91 212 96 q 210 82 210 86 q 233 53 210 61 q 291 41 255 44 l 291 0 l 48 0 l 48 41 q 86 50 71 41 q 102 59 94 54 q 121 74 111 64 q 143 99 132 83 q 169 140 155 115 l 372 534 q 395 581 388 564 q 403 610 403 598 q 400 626 403 619 q 391 638 398 633 q 369 647 383 644 q 332 652 355 651 l 332 693 l 943 693 l 951 507 l 911 507 q 895 564 903 540 q 874 603 887 588 q 838 626 861 618 q 777 633 815 633 l 647 633 l 647 382 l 709 382 q 761 390 741 382 q 792 412 780 397 q 809 450 804 427 q 819 503 815 472 l 860 503 l 860 213 l 819 213 q 809 264 815 243 q 792 299 804 286 q 761 318 781 312 q 709 323 742 323 l 647 323 l 647 136 q 649 101 647 115 q 654 81 651 86 q 660 74 656 78 q 668 66 663 70 q 682 61 673 63 q 706 58 691 58 l 760 58 q 836 67 806 58 q 887 93 865 75 q 926 137 909 110 q 965 201 944 164 l 1007 201 l 937 2 m 488 633 l 321 307 l 488 307 l 488 633 z "},"":{"ha":757,"x_min":48,"x_max":716,"o":"m 519 -143 q 505 -183 519 -165 q 469 -213 491 -201 q 421 -232 448 -225 q 370 -238 395 -238 q 323 -234 347 -238 q 271 -220 299 -229 l 295 -178 q 334 -190 315 -186 q 364 -194 353 -194 q 387 -190 378 -194 q 401 -180 395 -186 q 409 -167 406 -174 q 411 -153 411 -160 q 400 -129 411 -135 q 375 -122 389 -122 q 358 -124 366 -122 q 343 -127 351 -125 l 326 -115 l 372 -13 q 229 25 290 -6 q 128 103 168 56 q 68 209 87 150 q 48 333 48 269 q 58 424 48 378 q 88 511 68 469 q 138 588 108 552 q 208 651 168 625 q 296 693 247 677 q 405 708 346 708 q 477 700 444 708 q 534 683 509 692 q 575 666 559 673 q 600 658 592 658 q 616 662 610 658 q 626 673 623 666 q 632 690 630 680 q 638 709 635 699 l 677 709 l 693 442 l 652 442 q 618 530 641 491 q 565 595 595 568 q 499 635 534 621 q 429 650 464 650 q 338 625 376 650 q 274 557 299 600 q 237 456 249 514 q 224 333 224 399 q 241 214 224 267 q 287 123 257 161 q 357 66 316 86 q 448 46 398 46 q 524 60 489 46 q 587 95 558 73 q 638 143 616 116 q 679 197 661 170 l 716 168 q 675 109 700 141 q 615 50 651 77 q 529 4 578 22 q 415 -15 480 -15 l 390 -74 l 414 -74 q 450 -77 431 -74 q 485 -89 469 -81 q 510 -110 500 -97 q 519 -143 519 -123 z "},"":{"ha":688,"x_min":22,"x_max":640,"o":"m 569 0 l 22 0 l 22 41 q 74 46 55 41 q 104 63 94 51 q 117 97 114 76 q 121 150 121 118 l 121 545 q 118 598 121 578 q 105 631 115 619 q 75 648 95 644 q 22 653 56 653 l 22 693 l 576 693 l 584 507 l 545 507 q 528 564 536 540 q 507 603 520 588 q 471 626 494 618 q 410 633 448 633 l 280 633 l 280 382 l 342 382 q 394 390 374 382 q 425 412 413 397 q 443 450 437 427 q 452 503 448 472 l 493 503 l 493 213 l 452 213 q 443 264 448 243 q 425 299 437 286 q 394 318 414 312 q 342 323 375 323 l 280 323 l 280 143 q 281 107 280 123 q 288 81 282 92 q 305 64 294 70 q 338 58 317 58 l 393 58 q 469 67 439 58 q 520 93 498 75 q 559 137 542 110 q 598 201 577 164 l 640 201 l 569 0 m 342 767 l 197 852 q 158 882 171 868 q 146 914 146 897 q 159 952 146 937 q 195 968 172 968 q 235 958 216 968 q 272 928 254 948 l 408 767 l 342 767 z "},"":{"ha":688,"x_min":22,"x_max":640,"o":"m 569 0 l 22 0 l 22 41 q 74 46 55 41 q 104 63 94 51 q 117 97 114 76 q 121 150 121 118 l 121 545 q 118 598 121 578 q 105 631 115 619 q 75 648 95 644 q 22 653 56 653 l 22 693 l 576 693 l 584 507 l 545 507 q 528 564 536 540 q 507 603 520 588 q 471 626 494 618 q 410 633 448 633 l 280 633 l 280 382 l 342 382 q 394 390 374 382 q 425 412 413 397 q 443 450 437 427 q 452 503 448 472 l 493 503 l 493 213 l 452 213 q 443 264 448 243 q 425 299 437 286 q 394 318 414 312 q 342 323 375 323 l 280 323 l 280 143 q 281 107 280 123 q 288 81 282 92 q 305 64 294 70 q 338 58 317 58 l 393 58 q 469 67 439 58 q 520 93 498 75 q 559 137 542 110 q 598 201 577 164 l 640 201 l 569 0 m 498 914 q 495 892 498 903 q 482 876 492 881 l 307 767 l 254 767 l 406 952 q 422 964 412 960 q 444 968 432 968 q 483 952 467 968 q 498 914 498 937 z "},"":{"ha":688,"x_min":22,"x_max":640,"o":"m 569 0 l 22 0 l 22 41 q 74 46 55 41 q 104 63 94 51 q 117 97 114 76 q 121 150 121 118 l 121 545 q 118 598 121 578 q 105 631 115 619 q 75 648 95 644 q 22 653 56 653 l 22 693 l 576 693 l 584 507 l 545 507 q 528 564 536 540 q 507 603 520 588 q 471 626 494 618 q 410 633 448 633 l 280 633 l 280 382 l 342 382 q 394 390 374 382 q 425 412 413 397 q 443 450 437 427 q 452 503 448 472 l 493 503 l 493 213 l 452 213 q 443 264 448 243 q 425 299 437 286 q 394 318 414 312 q 342 323 375 323 l 280 323 l 280 143 q 281 107 280 123 q 288 81 282 92 q 305 64 294 70 q 338 58 317 58 l 393 58 q 469 67 439 58 q 520 93 498 75 q 559 137 542 110 q 598 201 577 164 l 640 201 l 569 0 m 456 759 l 321 861 l 185 759 l 142 759 l 272 951 l 370 951 l 499 759 l 456 759 z "},"":{"ha":688,"x_min":22,"x_max":640,"o":"m 569 0 l 22 0 l 22 41 q 74 46 55 41 q 104 63 94 51 q 117 97 114 76 q 121 150 121 118 l 121 545 q 118 598 121 578 q 105 631 115 619 q 75 648 95 644 q 22 653 56 653 l 22 693 l 576 693 l 584 507 l 545 507 q 528 564 536 540 q 507 603 520 588 q 471 626 494 618 q 410 633 448 633 l 280 633 l 280 382 l 342 382 q 394 390 374 382 q 425 412 413 397 q 443 450 437 427 q 452 503 448 472 l 493 503 l 493 213 l 452 213 q 443 264 448 243 q 425 299 437 286 q 394 318 414 312 q 342 323 375 323 l 280 323 l 280 143 q 281 107 280 123 q 288 81 282 92 q 305 64 294 70 q 338 58 317 58 l 393 58 q 469 67 439 58 q 520 93 498 75 q 559 137 542 110 q 598 201 577 164 l 640 201 l 569 0 m 484 867 q 478 841 484 853 q 464 819 473 828 q 442 804 454 810 q 415 799 429 799 q 388 804 401 799 q 367 819 376 810 q 352 841 357 828 q 347 867 347 853 q 352 894 347 882 q 367 916 357 907 q 388 930 376 925 q 415 936 401 936 q 442 930 429 936 q 464 916 454 925 q 478 894 473 907 q 484 867 484 882 m 290 867 q 285 841 290 853 q 270 819 279 828 q 249 804 261 810 q 222 799 236 799 q 195 804 208 799 q 173 819 182 810 q 159 841 164 828 q 153 867 153 853 q 159 894 153 882 q 173 916 164 907 q 195 930 182 925 q 222 936 208 936 q 249 930 236 936 q 270 916 261 925 q 285 894 279 907 q 290 867 290 882 z "},"":{"ha":399,"x_min":1,"x_max":378,"o":"m 21 0 l 21 41 q 72 45 52 41 q 101 59 91 49 q 116 86 112 69 q 119 130 119 104 l 119 556 q 116 601 119 583 q 101 631 112 620 q 72 647 91 642 q 21 652 52 652 l 21 693 l 378 693 l 378 652 q 327 647 347 652 q 297 631 308 642 q 283 601 287 620 q 280 556 280 583 l 280 130 q 283 86 280 104 q 297 59 287 69 q 327 45 308 49 q 378 41 347 41 l 378 0 l 21 0 m 197 767 l 52 852 q 14 882 26 868 q 1 914 1 897 q 15 952 1 937 q 51 968 28 968 q 91 958 71 968 q 127 928 110 948 l 264 767 l 197 767 z "},"":{"ha":399,"x_min":21,"x_max":378,"o":"m 21 0 l 21 41 q 72 45 52 41 q 101 59 91 49 q 116 86 112 69 q 119 130 119 104 l 119 556 q 116 601 119 583 q 101 631 112 620 q 72 647 91 642 q 21 652 52 652 l 21 693 l 378 693 l 378 652 q 327 647 347 652 q 297 631 308 642 q 283 601 287 620 q 280 556 280 583 l 280 130 q 283 86 280 104 q 297 59 287 69 q 327 45 308 49 q 378 41 347 41 l 378 0 l 21 0 m 354 914 q 351 892 354 903 q 338 876 347 881 l 163 767 l 110 767 l 261 952 q 277 964 267 960 q 299 968 288 968 q 338 952 322 968 q 354 914 354 937 z "},"":{"ha":399,"x_min":21,"x_max":378,"o":"m 21 0 l 21 41 q 72 45 52 41 q 101 59 91 49 q 116 86 112 69 q 119 130 119 104 l 119 556 q 116 601 119 583 q 101 631 112 620 q 72 647 91 642 q 21 652 52 652 l 21 693 l 378 693 l 378 652 q 327 647 347 652 q 297 631 308 642 q 283 601 287 620 q 280 556 280 583 l 280 130 q 283 86 280 104 q 297 59 287 69 q 327 45 308 49 q 378 41 347 41 l 378 0 l 21 0 m 336 759 l 200 861 l 64 759 l 21 759 l 151 951 l 249 951 l 378 759 l 336 759 z "},"":{"ha":399,"x_min":21,"x_max":378,"o":"m 21 0 l 21 41 q 72 45 52 41 q 101 59 91 49 q 116 86 112 69 q 119 130 119 104 l 119 556 q 116 601 119 583 q 101 631 112 620 q 72 647 91 642 q 21 652 52 652 l 21 693 l 378 693 l 378 652 q 327 647 347 652 q 297 631 308 642 q 283 601 287 620 q 280 556 280 583 l 280 130 q 283 86 280 104 q 297 59 287 69 q 327 45 308 49 q 378 41 347 41 l 378 0 l 21 0 m 368 867 q 363 841 368 853 q 348 819 357 828 q 327 804 339 810 q 300 799 314 799 q 273 804 286 799 q 251 819 260 810 q 237 841 242 828 q 231 867 231 853 q 237 894 231 882 q 251 916 242 907 q 273 930 260 925 q 300 936 286 936 q 327 930 314 936 q 348 916 339 925 q 363 894 357 907 q 368 867 368 882 m 175 867 q 170 841 175 853 q 155 819 164 828 q 133 804 146 810 q 106 799 121 799 q 80 804 92 799 q 58 819 67 810 q 43 841 49 828 q 38 867 38 853 q 43 894 38 882 q 58 916 49 907 q 80 930 67 925 q 106 936 92 936 q 133 930 121 936 q 155 916 146 925 q 170 894 164 907 q 175 867 175 882 z "},"":{"ha":749,"x_min":14,"x_max":707,"o":"m 707 347 q 683 209 707 273 q 615 99 660 146 q 507 26 571 53 q 361 0 442 0 l 14 0 l 14 41 l 42 41 q 79 47 65 41 q 100 65 92 53 q 110 95 107 77 q 112 137 112 113 l 112 332 l 14 332 l 14 402 l 112 402 l 112 556 q 109 599 112 580 q 98 630 106 618 q 47 652 84 652 l 14 652 l 14 693 l 361 693 q 456 682 412 693 q 536 652 500 671 q 609 597 577 629 q 663 526 641 566 q 695 441 684 487 q 707 347 707 396 m 522 347 q 513 447 522 396 q 479 539 503 498 q 415 607 455 581 q 313 633 374 633 q 297 632 304 633 q 284 631 290 632 q 273 630 278 631 l 273 402 l 431 402 l 431 332 l 273 332 l 273 69 q 299 61 282 64 q 338 59 317 59 q 427 84 392 59 q 484 151 463 110 q 513 243 505 192 q 522 347 522 295 z "},"":{"ha":758,"x_min":17,"x_max":713,"o":"m 713 652 q 674 649 689 652 q 650 638 659 646 q 638 615 642 630 q 635 578 635 601 l 635 -11 l 575 -11 l 170 513 l 170 115 q 175 77 170 92 q 191 54 180 62 q 220 43 202 46 q 263 41 237 41 l 263 0 l 17 0 l 17 41 q 58 43 41 41 q 85 54 75 46 q 101 77 96 62 q 106 115 106 92 l 106 595 q 81 627 90 615 q 63 644 71 638 q 44 651 54 650 q 17 653 34 653 l 17 693 l 245 693 l 570 271 l 570 578 q 566 615 570 601 q 553 638 562 630 q 526 649 543 646 q 484 652 509 652 l 484 693 l 713 693 l 713 652 l 713 652 m 559 946 q 548 886 557 913 q 523 840 539 859 q 487 810 507 821 q 442 799 466 799 q 396 806 414 799 q 362 823 378 814 q 331 840 347 832 q 292 848 315 848 q 272 844 282 848 q 254 832 262 840 q 240 815 245 825 q 235 794 235 805 l 191 794 q 207 853 195 826 q 237 900 219 880 q 276 930 254 920 q 322 941 298 941 q 365 934 346 941 q 401 918 384 926 q 434 902 418 909 q 469 895 450 895 q 501 906 488 895 q 518 946 513 918 l 559 946 l 559 946 z "},"":{"ha":811,"x_min":37,"x_max":774,"o":"m 774 347 q 748 208 774 274 q 675 93 723 142 q 560 13 628 43 q 406 -16 492 -16 q 252 13 321 -16 q 136 92 184 42 q 63 207 88 141 q 37 347 37 273 q 65 488 37 422 q 141 603 92 554 q 258 680 191 652 q 405 708 326 708 q 559 679 490 708 q 675 601 627 650 q 748 486 723 551 q 774 347 774 420 m 589 343 q 586 414 589 378 q 574 486 582 451 q 552 552 566 521 q 517 606 538 583 q 469 643 496 629 q 405 656 441 656 q 341 643 369 656 q 293 606 313 629 q 259 553 273 583 q 237 488 245 522 q 225 419 229 454 q 222 351 222 383 q 225 286 222 321 q 237 215 229 250 q 259 148 245 180 q 293 91 273 116 q 341 52 313 66 q 405 37 368 37 q 495 66 459 37 q 551 141 530 96 q 581 240 572 186 q 589 343 589 294 m 418 767 l 273 852 q 235 882 248 868 q 222 914 222 897 q 236 952 222 937 q 272 968 249 968 q 312 958 292 968 q 349 928 331 948 l 485 767 l 418 767 z "},"":{"ha":811,"x_min":37,"x_max":774,"o":"m 774 347 q 748 208 774 274 q 675 93 723 142 q 560 13 628 43 q 406 -16 492 -16 q 252 13 321 -16 q 136 92 184 42 q 63 207 88 141 q 37 347 37 273 q 65 488 37 422 q 141 603 92 554 q 258 680 191 652 q 405 708 326 708 q 559 679 490 708 q 675 601 627 650 q 748 486 723 551 q 774 347 774 420 m 589 343 q 586 414 589 378 q 574 486 582 451 q 552 552 566 521 q 517 606 538 583 q 469 643 496 629 q 405 656 441 656 q 341 643 369 656 q 293 606 313 629 q 259 553 273 583 q 237 488 245 522 q 225 419 229 454 q 222 351 222 383 q 225 286 222 321 q 237 215 229 250 q 259 148 245 180 q 293 91 273 116 q 341 52 313 66 q 405 37 368 37 q 495 66 459 37 q 551 141 530 96 q 581 240 572 186 q 589 343 589 294 m 534 914 q 531 892 534 903 q 518 876 528 881 l 343 767 l 290 767 l 441 952 q 458 964 448 960 q 479 968 468 968 q 518 952 503 968 q 534 914 534 937 z "},"":{"ha":811,"x_min":37,"x_max":774,"o":"m 774 347 q 748 208 774 274 q 675 93 723 142 q 560 13 628 43 q 406 -16 492 -16 q 252 13 321 -16 q 136 92 184 42 q 63 207 88 141 q 37 347 37 273 q 65 488 37 422 q 141 603 92 554 q 258 680 191 652 q 405 708 326 708 q 559 679 490 708 q 675 601 627 650 q 748 486 723 551 q 774 347 774 420 m 589 343 q 586 414 589 378 q 574 486 582 451 q 552 552 566 521 q 517 606 538 583 q 469 643 496 629 q 405 656 441 656 q 341 643 369 656 q 293 606 313 629 q 259 553 273 583 q 237 488 245 522 q 225 419 229 454 q 222 351 222 383 q 225 286 222 321 q 237 215 229 250 q 259 148 245 180 q 293 91 273 116 q 341 52 313 66 q 405 37 368 37 q 495 66 459 37 q 551 141 530 96 q 581 240 572 186 q 589 343 589 294 m 541 759 l 406 861 l 270 759 l 227 759 l 357 951 l 454 951 l 584 759 l 541 759 z "},"":{"ha":811,"x_min":37,"x_max":774,"o":"m 774 347 q 748 208 774 274 q 675 93 723 142 q 560 13 628 43 q 406 -16 492 -16 q 252 13 321 -16 q 136 92 184 42 q 63 207 88 141 q 37 347 37 273 q 65 488 37 422 q 141 603 92 554 q 258 680 191 652 q 405 708 326 708 q 559 679 490 708 q 675 601 627 650 q 748 486 723 551 q 774 347 774 420 m 589 343 q 586 414 589 378 q 574 486 582 451 q 552 552 566 521 q 517 606 538 583 q 469 643 496 629 q 405 656 441 656 q 341 643 369 656 q 293 606 313 629 q 259 553 273 583 q 237 488 245 522 q 225 419 229 454 q 222 351 222 383 q 225 286 222 321 q 237 215 229 250 q 259 148 245 180 q 293 91 273 116 q 341 52 313 66 q 405 37 368 37 q 495 66 459 37 q 551 141 530 96 q 581 240 572 186 q 589 343 589 294 m 595 946 q 584 886 593 913 q 559 840 575 859 q 523 810 543 821 q 478 799 502 799 q 432 806 450 799 q 398 823 414 814 q 367 840 383 832 q 328 848 351 848 q 308 844 318 848 q 290 832 298 840 q 276 815 281 825 q 271 794 271 805 l 227 794 q 243 853 231 826 q 273 900 255 880 q 312 930 290 920 q 358 941 334 941 q 401 934 382 941 q 437 918 420 926 q 470 902 454 909 q 505 895 486 895 q 537 906 524 895 q 554 946 549 918 l 595 946 l 595 946 z "},"":{"ha":811,"x_min":37,"x_max":774,"o":"m 774 347 q 748 208 774 274 q 675 93 723 142 q 560 13 628 43 q 406 -16 492 -16 q 252 13 321 -16 q 136 92 184 42 q 63 207 88 141 q 37 347 37 273 q 65 488 37 422 q 141 603 92 554 q 258 680 191 652 q 405 708 326 708 q 559 679 490 708 q 675 601 627 650 q 748 486 723 551 q 774 347 774 420 m 589 343 q 586 414 589 378 q 574 486 582 451 q 552 552 566 521 q 517 606 538 583 q 469 643 496 629 q 405 656 441 656 q 341 643 369 656 q 293 606 313 629 q 259 553 273 583 q 237 488 245 522 q 225 419 229 454 q 222 351 222 383 q 225 286 222 321 q 237 215 229 250 q 259 148 245 180 q 293 91 273 116 q 341 52 313 66 q 405 37 368 37 q 495 66 459 37 q 551 141 530 96 q 581 240 572 186 q 589 343 589 294 m 567 867 q 562 841 567 853 q 547 819 556 828 q 525 804 538 810 q 498 799 513 799 q 472 804 484 799 q 450 819 459 810 q 435 841 441 828 q 430 867 430 853 q 435 894 430 882 q 450 916 441 907 q 472 930 459 925 q 498 936 484 936 q 525 930 513 936 q 547 916 538 925 q 562 894 556 907 q 567 867 567 882 m 374 867 q 368 841 374 853 q 354 819 363 828 q 332 804 345 810 q 305 799 319 799 q 278 804 291 799 q 257 819 266 810 q 242 841 248 828 q 237 867 237 853 q 242 894 237 882 q 257 916 248 907 q 278 930 266 925 q 305 936 291 936 q 332 930 319 936 q 354 916 345 925 q 368 894 363 907 q 374 867 374 882 z "},"":{"ha":720,"x_min":86,"x_max":630,"o":"m 578 30 l 358 253 l 138 30 l 86 81 l 305 302 l 87 521 l 138 572 l 358 352 l 578 573 l 630 522 l 410 302 l 630 81 l 578 30 z "},"":{"ha":815,"x_min":39,"x_max":776,"o":"m 776 347 q 747 205 776 271 q 667 90 718 139 q 549 13 616 41 q 407 -15 482 -15 q 293 3 347 -15 q 193 52 239 20 l 128 -24 l 88 12 l 152 87 q 70 202 100 136 q 39 347 39 269 q 68 488 39 422 q 148 603 98 554 q 264 680 197 652 q 407 708 332 708 q 525 689 469 708 q 628 637 581 671 l 696 715 l 736 679 l 669 602 q 747 487 719 553 q 776 347 776 422 m 557 555 q 533 601 547 580 q 500 638 519 623 q 458 662 481 653 q 407 670 435 670 q 343 656 370 670 q 295 618 315 642 q 261 563 275 595 q 239 495 248 531 q 227 421 231 459 q 224 347 224 382 q 228 268 224 308 q 241 189 231 227 l 557 555 m 591 347 q 588 420 591 383 q 576 494 585 458 l 260 130 q 317 53 281 83 q 407 23 353 23 q 471 37 443 23 q 519 75 498 51 q 554 130 540 98 q 576 198 568 162 q 588 272 584 234 q 591 347 591 310 z "},"":{"ha":757,"x_min":-2,"x_max":741,"o":"m 741 652 q 693 648 712 652 q 663 634 674 644 q 647 608 652 624 q 643 570 643 592 l 643 276 q 629 161 643 214 q 584 69 615 108 q 501 7 552 30 q 375 -15 450 -15 q 229 6 284 -15 q 143 67 173 27 q 102 166 113 108 q 92 299 92 224 l 92 563 q 89 607 92 589 q 76 634 86 624 q 48 648 66 644 q -2 652 29 652 l -2 693 l 353 693 l 353 652 q 302 648 322 652 q 272 634 283 644 q 257 607 261 624 q 253 563 253 589 l 253 258 q 261 161 253 201 q 288 96 270 121 q 332 60 305 71 q 396 49 359 49 q 469 60 437 49 q 525 97 501 71 q 566 175 553 127 q 578 296 578 222 l 578 570 q 574 612 578 596 q 559 637 570 629 q 529 649 548 646 q 478 652 509 652 l 478 693 l 741 693 l 741 652 m 403 767 l 258 852 q 219 882 232 868 q 207 914 207 897 q 220 952 207 937 q 256 968 233 968 q 296 958 277 968 q 333 928 315 948 l 469 767 l 403 767 z "},"":{"ha":757,"x_min":-2,"x_max":741,"o":"m 741 652 q 693 648 712 652 q 663 634 674 644 q 647 608 652 624 q 643 570 643 592 l 643 276 q 629 161 643 214 q 584 69 615 108 q 501 7 552 30 q 375 -15 450 -15 q 229 6 284 -15 q 143 67 173 27 q 102 166 113 108 q 92 299 92 224 l 92 563 q 89 607 92 589 q 76 634 86 624 q 48 648 66 644 q -2 652 29 652 l -2 693 l 353 693 l 353 652 q 302 648 322 652 q 272 634 283 644 q 257 607 261 624 q 253 563 253 589 l 253 258 q 261 161 253 201 q 288 96 270 121 q 332 60 305 71 q 396 49 359 49 q 469 60 437 49 q 525 97 501 71 q 566 175 553 127 q 578 296 578 222 l 578 570 q 574 612 578 596 q 559 637 570 629 q 529 649 548 646 q 478 652 509 652 l 478 693 l 741 693 l 741 652 m 559 914 q 556 892 559 903 q 543 876 553 881 l 368 767 l 315 767 l 467 952 q 483 964 473 960 q 505 968 493 968 q 544 952 528 968 q 559 914 559 937 z "},"":{"ha":757,"x_min":-2,"x_max":741,"o":"m 741 652 q 693 648 712 652 q 663 634 674 644 q 647 608 652 624 q 643 570 643 592 l 643 276 q 629 161 643 214 q 584 69 615 108 q 501 7 552 30 q 375 -15 450 -15 q 229 6 284 -15 q 143 67 173 27 q 102 166 113 108 q 92 299 92 224 l 92 563 q 89 607 92 589 q 76 634 86 624 q 48 648 66 644 q -2 652 29 652 l -2 693 l 353 693 l 353 652 q 302 648 322 652 q 272 634 283 644 q 257 607 261 624 q 253 563 253 589 l 253 258 q 261 161 253 201 q 288 96 270 121 q 332 60 305 71 q 396 49 359 49 q 469 60 437 49 q 525 97 501 71 q 566 175 553 127 q 578 296 578 222 l 578 570 q 574 612 578 596 q 559 637 570 629 q 529 649 548 646 q 478 652 509 652 l 478 693 l 741 693 l 741 652 m 517 759 l 382 861 l 246 759 l 203 759 l 333 951 l 431 951 l 560 759 l 517 759 z "},"":{"ha":757,"x_min":-2,"x_max":741,"o":"m 741 652 q 693 648 712 652 q 663 634 674 644 q 647 608 652 624 q 643 570 643 592 l 643 276 q 629 161 643 214 q 584 69 615 108 q 501 7 552 30 q 375 -15 450 -15 q 229 6 284 -15 q 143 67 173 27 q 102 166 113 108 q 92 299 92 224 l 92 563 q 89 607 92 589 q 76 634 86 624 q 48 648 66 644 q -2 652 29 652 l -2 693 l 353 693 l 353 652 q 302 648 322 652 q 272 634 283 644 q 257 607 261 624 q 253 563 253 589 l 253 258 q 261 161 253 201 q 288 96 270 121 q 332 60 305 71 q 396 49 359 49 q 469 60 437 49 q 525 97 501 71 q 566 175 553 127 q 578 296 578 222 l 578 570 q 574 612 578 596 q 559 637 570 629 q 529 649 548 646 q 478 652 509 652 l 478 693 l 741 693 l 741 652 m 545 867 q 539 841 545 853 q 525 819 534 828 q 503 804 515 810 q 476 799 490 799 q 449 804 462 799 q 428 819 437 810 q 413 841 418 828 q 408 867 408 853 q 413 894 408 882 q 428 916 418 907 q 449 930 437 925 q 476 936 462 936 q 503 930 490 936 q 525 916 515 925 q 539 894 534 907 q 545 867 545 882 m 351 867 q 346 841 351 853 q 331 819 340 828 q 310 804 322 810 q 283 799 297 799 q 256 804 269 799 q 234 819 243 810 q 220 841 225 828 q 214 867 214 853 q 220 894 214 882 q 234 916 225 907 q 256 930 243 925 q 283 936 269 936 q 310 930 297 936 q 331 916 322 925 q 346 894 340 907 q 351 867 351 882 z "},"":{"ha":757,"x_min":9,"x_max":744,"o":"m 744 652 q 712 649 726 652 q 683 634 698 646 q 650 598 667 622 q 608 533 632 574 l 458 280 l 458 130 q 464 86 458 104 q 483 59 470 69 q 518 45 496 49 q 571 41 540 41 l 571 0 l 182 0 l 182 41 q 235 45 214 41 q 271 59 257 49 q 291 86 285 69 q 297 130 297 104 l 297 253 l 123 547 q 92 597 105 576 q 65 629 78 617 q 39 647 52 642 q 9 652 26 652 l 9 693 l 341 693 l 341 652 q 285 646 304 652 q 266 625 266 640 q 274 599 266 616 q 301 550 282 582 q 350 471 319 519 q 427 353 381 422 l 549 562 q 565 595 560 579 q 570 623 570 611 q 555 645 570 637 q 504 652 541 652 l 504 693 l 744 693 l 744 652 l 744 652 m 555 914 q 551 892 555 903 q 538 876 548 881 l 363 767 l 311 767 l 462 952 q 478 964 468 960 q 500 968 488 968 q 539 952 523 968 q 555 914 555 937 z "},"":{"ha":625,"x_min":19,"x_max":586,"o":"m 586 348 q 570 265 586 301 q 523 205 553 229 q 449 169 492 181 q 353 156 406 156 l 248 156 l 248 125 q 251 91 248 106 q 261 65 253 76 q 285 47 269 54 q 327 41 300 41 l 349 41 l 349 0 l 19 0 l 19 41 l 37 41 q 88 61 74 41 q 102 123 102 81 l 102 570 q 99 603 102 588 q 89 629 96 618 q 69 646 81 640 q 39 652 57 652 l 19 652 l 19 693 l 349 693 l 349 652 l 327 652 q 287 646 302 652 q 263 629 272 640 q 252 603 255 618 q 248 570 248 588 l 248 536 l 355 536 q 450 524 407 536 q 523 488 492 511 q 569 429 553 464 q 586 348 586 393 m 431 347 q 421 400 431 375 q 394 443 411 425 q 352 472 376 461 q 300 482 328 482 l 248 482 l 248 210 l 278 210 q 348 221 319 210 q 395 251 377 232 q 422 294 414 269 q 431 347 431 319 z "},"":{"ha":616,"x_min":18,"x_max":583,"o":"m 583 216 q 568 132 583 172 q 525 61 553 92 q 458 12 497 31 q 372 -6 419 -6 q 323 1 345 -6 q 286 21 302 8 q 262 52 271 34 q 253 90 253 69 q 259 121 253 108 q 273 143 264 134 q 293 157 282 153 q 314 161 304 161 q 340 156 329 161 q 357 144 351 151 q 367 126 364 136 q 370 108 370 117 q 369 98 370 104 q 367 86 368 92 q 365 74 366 79 q 364 66 364 68 q 369 49 364 55 q 387 43 374 43 q 421 72 406 43 q 436 160 436 101 q 428 247 436 208 q 404 315 420 286 q 359 362 387 345 q 293 382 332 379 l 293 425 q 362 460 334 425 q 389 564 389 496 q 382 615 389 593 q 364 651 376 637 q 337 671 352 665 q 304 678 321 678 q 273 670 287 678 q 250 645 259 663 q 236 599 241 627 q 231 530 231 570 l 231 0 l 18 0 l 18 19 q 51 24 38 20 q 72 38 64 28 q 82 67 79 49 q 85 115 85 85 l 85 495 q 101 601 85 557 q 144 673 116 646 q 214 714 173 701 q 308 728 256 728 q 407 715 364 728 q 477 682 449 703 q 520 629 506 660 q 535 562 535 598 q 529 521 535 542 q 509 481 524 500 q 471 446 495 463 q 411 420 447 430 q 538 351 493 401 q 583 216 583 301 z "},"":{"ha":519,"x_min":37,"x_max":519,"o":"m 519 68 q 498 47 513 60 q 463 21 483 34 q 419 0 443 9 q 370 -9 395 -9 q 339 -4 353 -9 q 314 12 325 2 q 298 34 304 22 q 292 61 292 47 q 258 34 275 47 q 224 11 241 21 q 187 -4 206 1 q 146 -9 168 -9 q 65 22 94 -9 q 37 111 37 54 q 64 181 37 150 q 130 237 91 212 q 213 279 169 261 q 292 310 257 298 l 292 329 q 288 373 292 353 q 277 407 284 393 q 257 430 269 422 q 229 438 245 438 q 191 423 203 438 q 180 364 180 408 q 176 340 180 353 q 165 317 173 328 q 144 300 157 307 q 112 294 132 294 q 66 311 83 294 q 49 357 49 328 q 67 411 49 387 q 115 450 86 434 q 177 474 143 466 q 240 482 210 482 q 332 474 294 482 q 394 446 370 465 q 428 396 418 427 q 439 322 439 366 l 439 183 q 439 142 439 163 q 441 108 439 121 q 448 91 443 98 q 464 83 452 83 q 477 87 469 83 q 494 96 486 91 q 509 107 502 102 q 519 117 516 113 l 519 68 m 292 261 q 238 232 259 247 q 204 201 216 216 q 186 169 191 185 q 181 135 181 152 q 192 97 181 113 q 223 81 203 81 q 258 93 240 81 q 292 122 276 105 l 292 261 m 296 549 l 151 634 q 113 664 125 650 q 100 696 100 678 q 114 734 100 718 q 150 749 127 749 q 190 740 170 749 q 227 709 209 730 l 363 549 l 296 549 z "},"":{"ha":519,"x_min":37,"x_max":519,"o":"m 519 68 q 498 47 513 60 q 463 21 483 34 q 419 0 443 9 q 370 -9 395 -9 q 339 -4 353 -9 q 314 12 325 2 q 298 34 304 22 q 292 61 292 47 q 258 34 275 47 q 224 11 241 21 q 187 -4 206 1 q 146 -9 168 -9 q 65 22 94 -9 q 37 111 37 54 q 64 181 37 150 q 130 237 91 212 q 213 279 169 261 q 292 310 257 298 l 292 329 q 288 373 292 353 q 277 407 284 393 q 257 430 269 422 q 229 438 245 438 q 191 423 203 438 q 180 364 180 408 q 176 340 180 353 q 165 317 173 328 q 144 300 157 307 q 112 294 132 294 q 66 311 83 294 q 49 357 49 328 q 67 411 49 387 q 115 450 86 434 q 177 474 143 466 q 240 482 210 482 q 332 474 294 482 q 394 446 370 465 q 428 396 418 427 q 439 322 439 366 l 439 183 q 439 142 439 163 q 441 108 439 121 q 448 91 443 98 q 464 83 452 83 q 477 87 469 83 q 494 96 486 91 q 509 107 502 102 q 519 117 516 113 l 519 68 m 292 261 q 238 232 259 247 q 204 201 216 216 q 186 169 191 185 q 181 135 181 152 q 192 97 181 113 q 223 81 203 81 q 258 93 240 81 q 292 122 276 105 l 292 261 m 399 696 q 395 673 399 684 q 382 657 392 663 l 208 549 l 155 549 l 306 734 q 322 745 312 741 q 344 749 332 749 q 383 734 367 749 q 399 696 399 718 z "},"":{"ha":519,"x_min":37,"x_max":519,"o":"m 519 68 q 498 47 513 60 q 463 21 483 34 q 419 0 443 9 q 370 -9 395 -9 q 339 -4 353 -9 q 314 12 325 2 q 298 34 304 22 q 292 61 292 47 q 258 34 275 47 q 224 11 241 21 q 187 -4 206 1 q 146 -9 168 -9 q 65 22 94 -9 q 37 111 37 54 q 64 181 37 150 q 130 237 91 212 q 213 279 169 261 q 292 310 257 298 l 292 329 q 288 373 292 353 q 277 407 284 393 q 257 430 269 422 q 229 438 245 438 q 191 423 203 438 q 180 364 180 408 q 176 340 180 353 q 165 317 173 328 q 144 300 157 307 q 112 294 132 294 q 66 311 83 294 q 49 357 49 328 q 67 411 49 387 q 115 450 86 434 q 177 474 143 466 q 240 482 210 482 q 332 474 294 482 q 394 446 370 465 q 428 396 418 427 q 439 322 439 366 l 439 183 q 439 142 439 163 q 441 108 439 121 q 448 91 443 98 q 464 83 452 83 q 477 87 469 83 q 494 96 486 91 q 509 107 502 102 q 519 117 516 113 l 519 68 m 292 261 q 238 232 259 247 q 204 201 216 216 q 186 169 191 185 q 181 135 181 152 q 192 97 181 113 q 223 81 203 81 q 258 93 240 81 q 292 122 276 105 l 292 261 m 391 541 l 256 642 l 120 541 l 77 541 l 207 733 l 304 733 l 434 541 l 391 541 z "},"":{"ha":519,"x_min":37,"x_max":519,"o":"m 519 68 q 498 47 513 60 q 463 21 483 34 q 419 0 443 9 q 370 -9 395 -9 q 339 -4 353 -9 q 314 12 325 2 q 298 34 304 22 q 292 61 292 47 q 258 34 275 47 q 224 11 241 21 q 187 -4 206 1 q 146 -9 168 -9 q 65 22 94 -9 q 37 111 37 54 q 64 181 37 150 q 130 237 91 212 q 213 279 169 261 q 292 310 257 298 l 292 329 q 288 373 292 353 q 277 407 284 393 q 257 430 269 422 q 229 438 245 438 q 191 423 203 438 q 180 364 180 408 q 176 340 180 353 q 165 317 173 328 q 144 300 157 307 q 112 294 132 294 q 66 311 83 294 q 49 357 49 328 q 67 411 49 387 q 115 450 86 434 q 177 474 143 466 q 240 482 210 482 q 332 474 294 482 q 394 446 370 465 q 428 396 418 427 q 439 322 439 366 l 439 183 q 439 142 439 163 q 441 108 439 121 q 448 91 443 98 q 464 83 452 83 q 477 87 469 83 q 494 96 486 91 q 509 107 502 102 q 519 117 516 113 l 519 68 m 292 261 q 238 232 259 247 q 204 201 216 216 q 186 169 191 185 q 181 135 181 152 q 192 97 181 113 q 223 81 203 81 q 258 93 240 81 q 292 122 276 105 l 292 261 m 439 728 q 428 668 437 695 q 403 622 419 641 q 367 591 387 602 q 322 581 346 581 q 276 588 294 581 q 242 605 258 595 q 211 622 227 614 q 172 629 195 629 q 152 625 162 629 q 134 614 142 621 q 120 596 125 606 q 115 576 115 587 l 71 576 q 87 635 75 608 q 117 682 99 662 q 156 712 134 701 q 202 723 178 723 q 245 715 226 723 q 281 700 264 708 q 314 684 298 691 q 349 676 330 676 q 381 688 368 676 q 398 728 393 699 l 439 728 l 439 728 z "},"":{"ha":519,"x_min":37,"x_max":519,"o":"m 519 68 q 498 47 513 60 q 463 21 483 34 q 419 0 443 9 q 370 -9 395 -9 q 339 -4 353 -9 q 314 12 325 2 q 298 34 304 22 q 292 61 292 47 q 258 34 275 47 q 224 11 241 21 q 187 -4 206 1 q 146 -9 168 -9 q 65 22 94 -9 q 37 111 37 54 q 64 181 37 150 q 130 237 91 212 q 213 279 169 261 q 292 310 257 298 l 292 329 q 288 373 292 353 q 277 407 284 393 q 257 430 269 422 q 229 438 245 438 q 191 423 203 438 q 180 364 180 408 q 176 340 180 353 q 165 317 173 328 q 144 300 157 307 q 112 294 132 294 q 66 311 83 294 q 49 357 49 328 q 67 411 49 387 q 115 450 86 434 q 177 474 143 466 q 240 482 210 482 q 332 474 294 482 q 394 446 370 465 q 428 396 418 427 q 439 322 439 366 l 439 183 q 439 142 439 163 q 441 108 439 121 q 448 91 443 98 q 464 83 452 83 q 477 87 469 83 q 494 96 486 91 q 509 107 502 102 q 519 117 516 113 l 519 68 m 292 261 q 238 232 259 247 q 204 201 216 216 q 186 169 191 185 q 181 135 181 152 q 192 97 181 113 q 223 81 203 81 q 258 93 240 81 q 292 122 276 105 l 292 261 m 411 649 q 406 622 411 635 q 391 601 400 610 q 369 586 382 591 q 342 581 357 581 q 316 586 328 581 q 294 601 303 591 q 279 622 285 610 q 274 649 274 635 q 279 676 274 663 q 294 697 285 688 q 316 712 303 707 q 342 718 328 718 q 369 712 357 718 q 391 697 382 707 q 406 676 400 688 q 411 649 411 663 m 218 649 q 212 622 218 635 q 198 601 207 610 q 176 586 189 591 q 149 581 163 581 q 122 586 135 581 q 101 601 110 591 q 86 622 92 610 q 81 649 81 635 q 86 676 81 663 q 101 697 92 688 q 122 712 110 707 q 149 718 135 718 q 176 712 163 718 q 198 697 189 707 q 212 676 207 688 q 218 649 218 663 z "},"":{"ha":519,"x_min":37,"x_max":519,"o":"m 519 68 q 498 47 513 60 q 463 21 483 34 q 419 0 443 9 q 370 -9 395 -9 q 339 -4 353 -9 q 314 12 325 2 q 298 34 304 22 q 292 61 292 47 q 258 34 275 47 q 224 11 241 21 q 187 -4 206 1 q 146 -9 168 -9 q 65 22 94 -9 q 37 111 37 54 q 64 181 37 150 q 130 237 91 212 q 213 279 169 261 q 292 310 257 298 l 292 329 q 288 373 292 353 q 277 407 284 393 q 257 430 269 422 q 229 438 245 438 q 191 423 203 438 q 180 364 180 408 q 176 340 180 353 q 165 317 173 328 q 144 300 157 307 q 112 294 132 294 q 66 311 83 294 q 49 357 49 328 q 67 411 49 387 q 115 450 86 434 q 177 474 143 466 q 240 482 210 482 q 332 474 294 482 q 394 446 370 465 q 428 396 418 427 q 439 322 439 366 l 439 183 q 439 142 439 163 q 441 108 439 121 q 448 91 443 98 q 464 83 452 83 q 477 87 469 83 q 494 96 486 91 q 509 107 502 102 q 519 117 516 113 l 519 68 m 292 261 q 238 232 259 247 q 204 201 216 216 q 186 169 191 185 q 181 135 181 152 q 192 97 181 113 q 223 81 203 81 q 258 93 240 81 q 292 122 276 105 l 292 261 m 361 656 q 353 614 361 634 q 330 580 345 595 q 296 557 315 566 q 254 549 276 549 q 212 557 231 549 q 177 580 192 566 q 154 614 163 595 q 146 656 146 634 q 154 698 146 679 q 177 732 163 718 q 212 755 192 747 q 254 764 231 764 q 296 755 276 764 q 330 732 315 747 q 353 698 345 718 q 361 656 361 679 m 310 656 q 294 696 310 680 q 254 713 277 713 q 214 696 230 713 q 197 656 197 680 q 202 634 197 644 q 214 616 206 624 q 232 604 221 608 q 254 600 242 600 q 275 604 265 600 q 293 616 286 608 q 306 634 301 624 q 310 656 310 644 z "},"":{"ha":734,"x_min":37,"x_max":702,"o":"m 702 173 q 679 104 694 138 q 639 43 663 70 q 581 1 614 17 q 503 -16 547 -16 q 436 -7 464 -16 q 389 15 408 2 q 357 42 369 28 q 336 67 345 56 q 306 47 326 60 q 261 21 287 34 q 206 0 236 9 q 146 -9 176 -9 q 65 22 94 -9 q 37 111 37 54 q 64 181 37 150 q 130 237 91 212 q 213 279 169 261 q 292 310 257 298 l 292 329 q 288 373 292 353 q 277 407 284 393 q 257 430 269 422 q 229 438 245 438 q 203 432 213 438 q 188 417 193 426 q 182 400 183 409 q 180 386 180 391 q 180 377 180 380 q 180 373 180 374 q 180 370 180 372 q 180 364 180 368 q 176 340 180 353 q 165 317 173 328 q 144 300 157 307 q 112 294 132 294 q 66 311 83 294 q 49 357 49 328 q 67 411 49 387 q 115 450 86 434 q 177 474 143 466 q 240 482 210 482 q 296 480 272 482 q 339 472 321 477 q 372 460 358 467 q 397 443 386 452 q 449 471 418 458 q 518 483 479 483 q 588 472 555 483 q 647 436 621 460 q 687 372 672 411 q 702 277 702 332 l 410 277 l 410 256 q 420 206 410 234 q 450 153 430 178 q 498 111 469 127 q 563 94 526 94 q 624 114 597 94 q 672 186 651 134 l 702 173 m 565 321 q 561 356 565 336 q 546 392 556 375 q 520 420 536 409 q 480 432 504 432 q 454 424 467 432 q 431 402 441 416 q 415 367 421 387 q 409 321 409 346 l 565 321 m 311 118 q 299 158 307 131 q 292 235 292 184 l 292 262 q 238 232 259 248 q 204 201 217 217 q 186 169 191 185 q 181 135 181 152 q 194 97 181 113 q 237 81 206 81 q 274 91 254 81 q 311 118 294 100 z "},"":{"ha":465,"x_min":25,"x_max":435,"o":"m 376 -146 q 361 -186 376 -168 q 326 -216 347 -203 q 277 -234 304 -228 q 226 -241 251 -241 q 179 -236 203 -241 q 127 -222 155 -232 l 151 -181 q 190 -193 171 -189 q 220 -197 209 -197 q 243 -193 234 -197 q 257 -183 252 -189 q 265 -170 262 -177 q 267 -155 267 -163 q 256 -131 267 -138 q 231 -125 245 -125 q 214 -126 222 -125 q 199 -130 207 -128 l 182 -118 l 228 -15 q 144 5 182 -14 q 81 54 107 23 q 40 126 54 85 q 25 216 25 168 q 43 326 25 277 q 92 410 62 375 q 161 463 122 444 q 242 482 200 482 q 326 469 292 482 q 382 438 361 456 q 414 397 404 419 q 425 358 425 376 q 409 312 425 330 q 363 294 394 294 q 323 304 337 294 q 303 330 310 315 q 292 363 296 345 q 281 396 288 381 q 260 422 274 412 q 220 432 247 432 q 162 402 183 432 q 142 315 142 372 q 153 228 142 268 q 185 157 165 187 q 234 111 205 127 q 296 94 262 94 q 323 97 309 94 q 351 110 337 100 q 379 138 366 119 q 406 186 393 156 l 435 173 q 416 112 429 142 q 384 56 404 81 q 336 13 363 31 q 274 -12 309 -5 l 246 -77 l 270 -77 q 307 -80 288 -77 q 341 -92 326 -83 q 366 -113 356 -100 q 376 -146 376 -126 z "},"":{"ha":475,"x_min":35,"x_max":445,"o":"m 445 173 q 422 104 437 138 q 382 43 407 70 q 324 1 358 17 q 245 -16 290 -16 q 156 2 195 -16 q 90 54 117 20 q 48 133 62 87 q 35 235 35 178 q 55 338 35 292 q 107 416 75 384 q 180 466 139 448 q 262 483 220 483 q 332 472 299 483 q 391 436 366 460 q 430 372 416 411 q 445 277 445 332 l 152 277 q 162 211 152 244 q 192 152 172 178 q 241 110 212 126 q 306 94 269 94 q 367 114 340 94 q 415 186 394 134 l 445 173 m 308 321 q 304 356 308 336 q 290 392 300 375 q 264 420 280 409 q 224 432 248 432 q 198 424 211 432 q 174 402 184 416 q 157 367 163 387 q 151 321 151 346 l 308 321 m 299 543 l 154 629 q 116 659 128 644 q 103 690 103 673 q 116 728 103 713 q 153 744 130 744 q 192 734 173 744 q 229 704 212 724 l 366 543 l 299 543 z "},"":{"ha":475,"x_min":35,"x_max":445,"o":"m 445 173 q 422 104 437 138 q 382 43 407 70 q 324 1 358 17 q 245 -16 290 -16 q 156 2 195 -16 q 90 54 117 20 q 48 133 62 87 q 35 235 35 178 q 55 338 35 292 q 107 416 75 384 q 180 466 139 448 q 262 483 220 483 q 332 472 299 483 q 391 436 366 460 q 430 372 416 411 q 445 277 445 332 l 152 277 q 162 211 152 244 q 192 152 172 178 q 241 110 212 126 q 306 94 269 94 q 367 114 340 94 q 415 186 394 134 l 445 173 m 308 321 q 304 356 308 336 q 290 392 300 375 q 264 420 280 409 q 224 432 248 432 q 198 424 211 432 q 174 402 184 416 q 157 367 163 387 q 151 321 151 346 l 308 321 m 415 690 q 412 668 415 679 q 399 652 408 657 l 224 543 l 171 543 l 322 728 q 338 740 328 736 q 360 744 349 744 q 399 728 383 744 q 415 690 415 713 z "},"":{"ha":475,"x_min":35,"x_max":445,"o":"m 445 173 q 422 104 437 138 q 382 43 407 70 q 324 1 358 17 q 245 -16 290 -16 q 156 2 195 -16 q 90 54 117 20 q 48 133 62 87 q 35 235 35 178 q 55 338 35 292 q 107 416 75 384 q 180 466 139 448 q 262 483 220 483 q 332 472 299 483 q 391 436 366 460 q 430 372 416 411 q 445 277 445 332 l 152 277 q 162 211 152 244 q 192 152 172 178 q 241 110 212 126 q 306 94 269 94 q 367 114 340 94 q 415 186 394 134 l 445 173 m 308 321 q 304 356 308 336 q 290 392 300 375 q 264 420 280 409 q 224 432 248 432 q 198 424 211 432 q 174 402 184 416 q 157 367 163 387 q 151 321 151 346 l 308 321 m 393 535 l 258 637 l 122 535 l 79 535 l 209 728 l 307 728 l 436 535 l 393 535 z "},"":{"ha":475,"x_min":35,"x_max":445,"o":"m 445 173 q 422 104 437 138 q 382 43 407 70 q 324 1 358 17 q 245 -16 290 -16 q 156 2 195 -16 q 90 54 117 20 q 48 133 62 87 q 35 235 35 178 q 55 338 35 292 q 107 416 75 384 q 180 466 139 448 q 262 483 220 483 q 332 472 299 483 q 391 436 366 460 q 430 372 416 411 q 445 277 445 332 l 152 277 q 162 211 152 244 q 192 152 172 178 q 241 110 212 126 q 306 94 269 94 q 367 114 340 94 q 415 186 394 134 l 445 173 m 308 321 q 304 356 308 336 q 290 392 300 375 q 264 420 280 409 q 224 432 248 432 q 198 424 211 432 q 174 402 184 416 q 157 367 163 387 q 151 321 151 346 l 308 321 m 414 644 q 408 617 414 629 q 394 595 403 604 q 372 581 385 586 q 345 575 359 575 q 318 581 331 575 q 297 595 306 586 q 282 617 288 604 q 277 644 277 629 q 282 670 277 658 q 297 692 288 683 q 318 707 306 701 q 345 712 331 712 q 372 707 359 712 q 394 692 385 701 q 408 670 403 683 q 414 644 414 658 m 220 644 q 215 617 220 629 q 200 595 210 604 q 179 581 191 586 q 152 575 166 575 q 125 581 138 575 q 103 595 113 586 q 89 617 94 604 q 83 644 83 629 q 89 670 83 658 q 103 692 94 683 q 125 707 113 701 q 152 712 138 712 q 179 707 166 712 q 200 692 191 701 q 215 670 210 683 q 220 644 220 658 z "},"":{"ha":329,"x_min":10,"x_max":312,"o":"m 52 0 l 52 41 q 82 44 71 41 q 99 55 93 47 q 107 77 105 62 q 110 113 110 91 l 110 326 q 104 380 110 366 q 81 395 98 395 q 60 393 73 395 q 37 387 47 391 l 25 425 l 215 482 l 256 482 l 256 113 q 258 76 256 90 q 268 54 261 62 q 285 43 274 46 q 312 41 296 41 l 312 0 l 52 0 m 206 543 l 61 629 q 23 659 35 644 q 10 690 10 673 q 23 728 10 713 q 60 744 37 744 q 99 734 80 744 q 136 704 119 724 l 273 543 l 206 543 z "},"":{"ha":329,"x_min":25,"x_max":334,"o":"m 52 0 l 52 41 q 82 44 71 41 q 99 55 93 47 q 107 77 105 62 q 110 113 110 91 l 110 326 q 104 380 110 366 q 81 395 98 395 q 60 393 73 395 q 37 387 47 391 l 25 425 l 215 482 l 256 482 l 256 113 q 258 76 256 90 q 268 54 261 62 q 285 43 274 46 q 312 41 296 41 l 312 0 l 52 0 m 334 690 q 330 668 334 679 q 317 652 327 657 l 142 543 l 90 543 l 241 728 q 257 740 247 736 q 279 744 267 744 q 318 728 302 744 q 334 690 334 713 z "},"":{"ha":329,"x_min":2,"x_max":359,"o":"m 52 0 l 52 41 q 82 44 71 41 q 99 55 93 47 q 107 77 105 62 q 110 113 110 91 l 110 326 q 104 380 110 366 q 81 395 98 395 q 60 393 73 395 q 37 387 47 391 l 25 425 l 215 482 l 256 482 l 256 113 q 258 76 256 90 q 268 54 261 62 q 285 43 274 46 q 312 41 296 41 l 312 0 l 52 0 m 317 535 l 181 637 l 45 535 l 2 535 l 132 728 l 230 728 l 359 535 l 317 535 z "},"":{"ha":329,"x_min":18,"x_max":348,"o":"m 52 0 l 52 41 q 82 44 71 41 q 99 55 93 47 q 107 77 105 62 q 110 113 110 91 l 110 326 q 104 380 110 366 q 81 395 98 395 q 60 393 73 395 q 37 387 47 391 l 25 425 l 215 482 l 256 482 l 256 113 q 258 76 256 90 q 268 54 261 62 q 285 43 274 46 q 312 41 296 41 l 312 0 l 52 0 m 348 644 q 342 617 348 629 q 328 595 337 604 q 306 581 319 586 q 279 575 294 575 q 253 581 265 575 q 231 595 240 586 q 216 617 222 604 q 211 644 211 629 q 216 670 211 658 q 231 692 222 683 q 253 707 240 701 q 279 712 265 712 q 306 707 294 712 q 328 692 319 701 q 342 670 337 683 q 348 644 348 658 m 155 644 q 149 617 155 629 q 135 595 144 604 q 113 581 125 586 q 86 575 100 575 q 59 581 72 575 q 38 595 47 586 q 23 617 28 604 q 18 644 18 629 q 23 670 18 658 q 38 692 28 683 q 59 707 47 701 q 86 712 72 712 q 113 707 100 712 q 135 692 125 701 q 149 670 144 683 q 155 644 155 658 z "},"":{"ha":530,"x_min":28,"x_max":501,"o":"m 202 615 q 160 658 182 638 q 115 694 138 677 l 135 728 q 165 715 148 723 q 200 697 182 707 q 238 676 219 688 q 273 654 256 665 l 389 720 l 418 669 l 321 616 q 398 531 364 576 q 454 436 431 485 q 489 338 477 387 q 501 243 501 289 q 485 144 501 191 q 439 62 469 98 q 366 5 409 26 q 269 -16 323 -16 q 168 5 212 -16 q 92 59 123 25 q 44 138 61 94 q 28 229 28 182 q 44 324 28 278 q 91 405 60 370 q 165 461 121 440 q 263 482 208 482 q 276 482 270 482 q 287 481 281 481 q 265 527 277 505 q 238 570 253 549 l 123 507 l 99 557 l 202 615 m 353 203 q 325 376 353 320 q 242 431 297 431 q 219 424 231 431 q 198 397 207 416 q 183 349 189 379 q 177 272 177 318 q 187 181 177 224 q 213 106 197 138 q 250 55 229 74 q 292 36 271 36 q 338 74 322 36 q 353 203 353 113 z "},"":{"ha":590,"x_min":3,"x_max":587,"o":"m 332 0 l 332 41 q 359 42 348 41 q 376 51 370 44 q 385 73 382 58 q 388 113 388 87 l 388 297 q 375 370 388 348 q 330 392 362 392 q 282 378 308 392 q 234 339 257 364 l 234 113 q 237 76 234 90 q 245 55 239 62 q 262 44 252 47 q 290 41 273 41 l 290 0 l 31 0 l 31 41 q 60 43 49 41 q 77 54 71 46 q 86 76 83 62 q 88 113 88 90 l 88 326 q 82 380 88 366 q 60 395 76 395 q 38 393 51 395 q 16 387 24 391 l 3 425 l 193 482 l 234 482 l 234 397 q 275 427 256 412 q 314 454 294 442 q 356 474 334 467 q 408 482 378 482 q 470 467 446 482 q 509 426 494 451 q 528 369 523 400 q 534 306 534 337 l 534 113 q 536 76 534 90 q 545 54 538 62 q 561 43 551 46 q 587 41 571 41 l 587 0 l 332 0 m 483 722 q 472 663 481 690 q 447 616 463 635 q 411 586 431 597 q 366 575 390 575 q 320 583 338 575 q 287 599 302 590 q 255 616 271 608 q 216 624 239 624 q 196 620 206 624 q 178 608 186 616 q 164 591 170 601 q 159 570 159 581 l 115 570 q 131 629 119 602 q 161 676 143 656 q 200 707 178 696 q 246 718 222 718 q 289 710 270 718 q 325 694 308 703 q 358 678 342 686 q 393 671 374 671 q 425 682 412 671 q 442 722 437 694 l 483 722 l 483 722 z "},"":{"ha":530,"x_min":28,"x_max":501,"o":"m 501 243 q 485 144 501 191 q 439 62 469 98 q 366 5 409 26 q 269 -16 323 -16 q 168 5 212 -16 q 92 59 123 25 q 44 138 61 94 q 28 229 28 182 q 44 324 28 278 q 91 405 60 370 q 165 461 121 440 q 263 482 208 482 q 360 464 316 482 q 435 412 404 445 q 484 336 467 380 q 501 243 501 293 m 353 203 q 346 285 353 244 q 325 359 339 326 q 290 411 311 391 q 242 431 269 431 q 219 424 231 431 q 198 397 207 416 q 183 349 189 379 q 177 272 177 318 q 187 181 177 224 q 213 106 197 138 q 250 55 229 74 q 292 36 271 36 q 338 74 322 36 q 353 203 353 113 m 308 543 l 163 629 q 124 659 137 644 q 112 690 112 673 q 125 728 112 713 q 161 744 138 744 q 201 734 182 744 q 238 704 220 724 l 374 543 l 308 543 z "},"":{"ha":530,"x_min":28,"x_max":501,"o":"m 501 243 q 485 144 501 191 q 439 62 469 98 q 366 5 409 26 q 269 -16 323 -16 q 168 5 212 -16 q 92 59 123 25 q 44 138 61 94 q 28 229 28 182 q 44 324 28 278 q 91 405 60 370 q 165 461 121 440 q 263 482 208 482 q 360 464 316 482 q 435 412 404 445 q 484 336 467 380 q 501 243 501 293 m 353 203 q 346 285 353 244 q 325 359 339 326 q 290 411 311 391 q 242 431 269 431 q 219 424 231 431 q 198 397 207 416 q 183 349 189 379 q 177 272 177 318 q 187 181 177 224 q 213 106 197 138 q 250 55 229 74 q 292 36 271 36 q 338 74 322 36 q 353 203 353 113 m 410 690 q 407 668 410 679 q 394 652 404 657 l 219 543 l 166 543 l 317 728 q 334 740 323 736 q 355 744 344 744 q 394 728 378 744 q 410 690 410 713 z "},"":{"ha":530,"x_min":28,"x_max":501,"o":"m 501 243 q 485 144 501 191 q 439 62 469 98 q 366 5 409 26 q 269 -16 323 -16 q 168 5 212 -16 q 92 59 123 25 q 44 138 61 94 q 28 229 28 182 q 44 324 28 278 q 91 405 60 370 q 165 461 121 440 q 263 482 208 482 q 360 464 316 482 q 435 412 404 445 q 484 336 467 380 q 501 243 501 293 m 353 203 q 346 285 353 244 q 325 359 339 326 q 290 411 311 391 q 242 431 269 431 q 219 424 231 431 q 198 397 207 416 q 183 349 189 379 q 177 272 177 318 q 187 181 177 224 q 213 106 197 138 q 250 55 229 74 q 292 36 271 36 q 338 74 322 36 q 353 203 353 113 m 402 535 l 267 637 l 131 535 l 87 535 l 218 728 l 315 728 l 445 535 l 402 535 z "},"":{"ha":530,"x_min":28,"x_max":501,"o":"m 501 243 q 485 144 501 191 q 439 62 469 98 q 366 5 409 26 q 269 -16 323 -16 q 168 5 212 -16 q 92 59 123 25 q 44 138 61 94 q 28 229 28 182 q 44 324 28 278 q 91 405 60 370 q 165 461 121 440 q 263 482 208 482 q 360 464 316 482 q 435 412 404 445 q 484 336 467 380 q 501 243 501 293 m 353 203 q 346 285 353 244 q 325 359 339 326 q 290 411 311 391 q 242 431 269 431 q 219 424 231 431 q 198 397 207 416 q 183 349 189 379 q 177 272 177 318 q 187 181 177 224 q 213 106 197 138 q 250 55 229 74 q 292 36 271 36 q 338 74 322 36 q 353 203 353 113 m 444 722 q 433 663 442 690 q 408 616 424 635 q 371 586 392 597 q 327 575 351 575 q 280 583 298 575 q 247 599 262 590 q 216 616 232 608 q 176 624 200 624 q 157 620 167 624 q 138 608 146 616 q 125 591 130 601 q 119 570 119 581 l 76 570 q 92 629 80 602 q 121 676 104 656 q 161 707 139 696 q 207 718 183 718 q 250 710 231 718 q 286 694 269 703 q 319 678 302 686 q 354 671 335 671 q 386 682 373 671 q 403 722 398 694 l 444 722 l 444 722 z "},"":{"ha":530,"x_min":28,"x_max":501,"o":"m 501 243 q 485 144 501 191 q 439 62 469 98 q 366 5 409 26 q 269 -16 323 -16 q 168 5 212 -16 q 92 59 123 25 q 44 138 61 94 q 28 229 28 182 q 44 324 28 278 q 91 405 60 370 q 165 461 121 440 q 263 482 208 482 q 360 464 316 482 q 435 412 404 445 q 484 336 467 380 q 501 243 501 293 m 353 203 q 346 285 353 244 q 325 359 339 326 q 290 411 311 391 q 242 431 269 431 q 219 424 231 431 q 198 397 207 416 q 183 349 189 379 q 177 272 177 318 q 187 181 177 224 q 213 106 197 138 q 250 55 229 74 q 292 36 271 36 q 338 74 322 36 q 353 203 353 113 m 429 644 q 424 617 429 629 q 409 595 418 604 q 388 581 400 586 q 361 575 375 575 q 334 581 347 575 q 312 595 321 586 q 298 617 303 604 q 292 644 292 629 q 298 670 292 658 q 312 692 303 683 q 334 707 321 701 q 361 712 347 712 q 388 707 375 712 q 409 692 400 701 q 424 670 418 683 q 429 644 429 658 m 236 644 q 231 617 236 629 q 216 595 225 604 q 194 581 207 586 q 168 575 182 575 q 141 581 153 575 q 119 595 128 586 q 104 617 110 604 q 99 644 99 629 q 104 670 99 658 q 119 692 110 683 q 141 707 128 701 q 168 712 153 712 q 194 707 182 712 q 216 692 207 701 q 231 670 225 683 q 236 644 236 658 z "},"":{"ha":1007,"x_min":188,"x_max":819,"o":"m 576 477 q 571 448 576 461 q 555 425 565 435 q 532 410 545 415 q 504 404 519 404 q 475 410 488 404 q 452 425 462 415 q 437 448 443 435 q 431 477 431 461 q 437 505 431 492 q 452 528 443 518 q 475 544 462 538 q 504 549 488 549 q 532 544 519 549 q 555 528 545 538 q 571 505 565 518 q 576 477 576 492 m 188 258 l 188 347 l 819 347 l 819 258 l 188 258 m 576 128 q 571 100 576 113 q 555 77 565 87 q 532 62 545 67 q 504 56 519 56 q 475 62 488 56 q 452 77 462 67 q 437 100 443 87 q 431 128 431 113 q 437 157 431 143 q 452 180 443 170 q 475 195 462 189 q 504 201 488 201 q 532 195 519 201 q 555 180 545 189 q 571 157 565 170 q 576 128 576 143 z "},"":{"ha":524,"x_min":3,"x_max":523,"o":"m 3 1 l 77 78 q 40 149 53 111 q 28 229 28 188 q 44 324 28 278 q 91 405 60 370 q 165 461 121 440 q 263 482 208 482 q 346 469 308 482 q 414 431 384 455 l 481 500 l 523 466 l 452 392 q 489 324 476 361 q 501 243 501 286 q 485 144 501 191 q 439 62 469 98 q 366 5 409 26 q 269 -16 323 -16 q 182 -1 221 -16 q 114 38 144 13 l 44 -35 l 3 1 m 353 203 q 352 242 353 222 q 347 281 350 262 l 202 130 q 242 62 218 87 q 292 36 267 36 q 338 74 322 36 q 353 203 353 113 m 177 272 q 184 191 177 231 l 330 344 q 295 407 317 382 q 242 431 273 431 q 219 424 231 431 q 198 397 207 416 q 183 349 189 379 q 177 272 177 318 z "},"":{"ha":590,"x_min":-7,"x_max":590,"o":"m 400 -16 l 359 -16 l 359 77 q 329 46 347 62 q 289 16 311 30 q 241 -6 267 3 q 186 -16 215 -16 q 123 -1 148 -16 q 85 37 99 13 q 65 93 71 61 q 60 161 60 125 l 60 354 q 57 390 60 376 q 47 412 54 404 q 26 423 39 420 q -7 426 14 426 l -7 468 l 205 468 l 205 170 q 218 97 205 119 q 264 75 231 75 q 311 91 286 75 q 359 134 336 108 l 359 354 q 357 390 359 376 q 346 412 354 404 q 325 423 338 420 q 290 426 311 426 l 290 468 l 505 468 l 505 141 q 511 86 505 100 q 534 72 517 72 q 556 74 543 72 q 578 79 569 76 l 590 41 l 400 -16 m 316 543 l 171 629 q 133 659 145 644 q 120 690 120 673 q 133 728 120 713 q 170 744 146 744 q 209 734 190 744 q 246 704 229 724 l 382 543 l 316 543 z "},"":{"ha":590,"x_min":-7,"x_max":590,"o":"m 400 -16 l 359 -16 l 359 77 q 329 46 347 62 q 289 16 311 30 q 241 -6 267 3 q 186 -16 215 -16 q 123 -1 148 -16 q 85 37 99 13 q 65 93 71 61 q 60 161 60 125 l 60 354 q 57 390 60 376 q 47 412 54 404 q 26 423 39 420 q -7 426 14 426 l -7 468 l 205 468 l 205 170 q 218 97 205 119 q 264 75 231 75 q 311 91 286 75 q 359 134 336 108 l 359 354 q 357 390 359 376 q 346 412 354 404 q 325 423 338 420 q 290 426 311 426 l 290 468 l 505 468 l 505 141 q 511 86 505 100 q 534 72 517 72 q 556 74 543 72 q 578 79 569 76 l 590 41 l 400 -16 m 446 690 q 442 668 446 679 q 429 652 439 657 l 254 543 l 201 543 l 353 728 q 369 740 359 736 q 391 744 379 744 q 430 728 414 744 q 446 690 446 713 z "},"":{"ha":590,"x_min":-7,"x_max":590,"o":"m 400 -16 l 359 -16 l 359 77 q 329 46 347 62 q 289 16 311 30 q 241 -6 267 3 q 186 -16 215 -16 q 123 -1 148 -16 q 85 37 99 13 q 65 93 71 61 q 60 161 60 125 l 60 354 q 57 390 60 376 q 47 412 54 404 q 26 423 39 420 q -7 426 14 426 l -7 468 l 205 468 l 205 170 q 218 97 205 119 q 264 75 231 75 q 311 91 286 75 q 359 134 336 108 l 359 354 q 357 390 359 376 q 346 412 354 404 q 325 423 338 420 q 290 426 311 426 l 290 468 l 505 468 l 505 141 q 511 86 505 100 q 534 72 517 72 q 556 74 543 72 q 578 79 569 76 l 590 41 l 400 -16 m 431 535 l 295 637 l 159 535 l 116 535 l 246 728 l 344 728 l 473 535 l 431 535 z "},"":{"ha":590,"x_min":-7,"x_max":590,"o":"m 400 -16 l 359 -16 l 359 77 q 329 46 347 62 q 289 16 311 30 q 241 -6 267 3 q 186 -16 215 -16 q 123 -1 148 -16 q 85 37 99 13 q 65 93 71 61 q 60 161 60 125 l 60 354 q 57 390 60 376 q 47 412 54 404 q 26 423 39 420 q -7 426 14 426 l -7 468 l 205 468 l 205 170 q 218 97 205 119 q 264 75 231 75 q 311 91 286 75 q 359 134 336 108 l 359 354 q 357 390 359 376 q 346 412 354 404 q 325 423 338 420 q 290 426 311 426 l 290 468 l 505 468 l 505 141 q 511 86 505 100 q 534 72 517 72 q 556 74 543 72 q 578 79 569 76 l 590 41 l 400 -16 m 437 644 q 432 617 437 629 q 417 595 427 604 q 396 581 408 586 q 369 575 383 575 q 342 581 355 575 q 320 595 330 586 q 306 617 311 604 q 300 644 300 629 q 306 670 300 658 q 320 692 311 683 q 342 707 330 701 q 369 712 355 712 q 396 707 383 712 q 417 692 408 701 q 432 670 427 683 q 437 644 437 658 m 244 644 q 239 617 244 629 q 224 595 233 604 q 202 581 215 586 q 176 575 190 575 q 149 581 161 575 q 127 595 136 586 q 113 617 118 604 q 107 644 107 629 q 113 670 107 658 q 127 692 118 683 q 149 707 136 701 q 176 712 161 712 q 202 707 190 712 q 224 692 215 701 q 239 670 233 683 q 244 644 244 658 z "},"":{"ha":543,"x_min":-1,"x_max":542,"o":"m 542 427 q 493 410 509 426 q 464 366 476 395 l 281 -69 q 242 -141 264 -111 q 197 -190 221 -171 q 149 -218 174 -209 q 100 -227 124 -227 q 64 -222 82 -227 q 32 -207 47 -217 q 8 -182 17 -197 q -1 -147 -1 -168 q 4 -115 -1 -128 q 19 -94 10 -102 q 40 -82 28 -86 q 63 -79 52 -79 q 98 -87 85 -79 q 122 -105 111 -95 q 142 -123 132 -115 q 166 -131 152 -131 q 191 -117 179 -131 q 215 -81 203 -102 q 235 -37 226 -60 q 252 3 245 -14 l 96 360 q 79 392 87 380 q 61 411 71 404 q 39 421 52 418 q 9 427 26 425 l 9 468 l 293 468 l 293 427 q 252 418 264 427 q 240 391 240 409 q 251 347 240 372 l 326 176 l 402 360 q 408 376 406 370 q 410 392 410 382 q 397 418 410 409 q 355 427 384 427 l 355 468 l 542 468 l 542 427 m 450 690 q 447 668 450 679 q 434 652 444 657 l 259 543 l 206 543 l 357 728 q 374 740 363 736 q 395 744 384 744 q 434 728 418 744 q 450 690 450 713 z "},"":{"ha":585,"x_min":-3,"x_max":553,"o":"m 553 273 q 539 159 553 212 q 496 68 525 106 q 422 7 467 29 q 318 -16 378 -16 q 269 -7 295 -16 q 227 14 242 1 l 227 -112 q 230 -150 227 -136 q 239 -172 233 -164 q 256 -182 245 -179 q 283 -184 267 -184 l 283 -225 l 23 -225 l 23 -184 q 53 -181 41 -184 q 71 -170 64 -178 q 79 -148 77 -161 q 81 -112 81 -134 l 81 571 q 74 626 81 611 q 51 640 66 640 q 33 638 41 640 q 14 633 24 636 l -3 667 l 186 728 l 227 728 l 227 387 q 302 460 264 438 q 381 482 340 482 q 445 468 414 482 q 500 426 476 453 q 538 360 524 399 q 553 273 553 321 m 402 222 q 397 282 402 252 q 382 335 393 311 q 355 372 372 358 q 314 387 338 387 q 274 375 296 387 q 227 336 252 363 l 227 121 q 233 83 227 101 q 260 44 241 58 q 310 31 280 31 q 344 40 328 31 q 374 71 361 50 q 394 130 387 93 q 402 222 402 167 z "},"":{"ha":543,"x_min":-1,"x_max":542,"o":"m 542 427 q 493 410 509 426 q 464 366 476 395 l 281 -69 q 242 -141 264 -111 q 197 -190 221 -171 q 149 -218 174 -209 q 100 -227 124 -227 q 64 -222 82 -227 q 32 -207 47 -217 q 8 -182 17 -197 q -1 -147 -1 -168 q 4 -115 -1 -128 q 19 -94 10 -102 q 40 -82 28 -86 q 63 -79 52 -79 q 98 -87 85 -79 q 122 -105 111 -95 q 142 -123 132 -115 q 166 -131 152 -131 q 191 -117 179 -131 q 215 -81 203 -102 q 235 -37 226 -60 q 252 3 245 -14 l 96 360 q 79 392 87 380 q 61 411 71 404 q 39 421 52 418 q 9 427 26 425 l 9 468 l 293 468 l 293 427 q 252 418 264 427 q 240 391 240 409 q 251 347 240 372 l 326 176 l 402 360 q 408 376 406 370 q 410 392 410 382 q 397 418 410 409 q 355 427 384 427 l 355 468 l 542 468 l 542 427 m 469 644 q 464 617 469 629 q 449 595 458 604 q 428 581 440 586 q 401 575 415 575 q 374 581 387 575 q 352 595 361 586 q 338 617 343 604 q 332 644 332 629 q 338 670 332 658 q 352 692 343 683 q 374 707 361 701 q 401 712 387 712 q 428 707 415 712 q 449 692 440 701 q 464 670 458 683 q 469 644 469 658 m 276 644 q 271 617 276 629 q 256 595 265 604 q 234 581 247 586 q 208 575 222 575 q 181 581 193 575 q 159 595 168 586 q 144 617 150 604 q 139 644 139 629 q 144 670 139 658 q 159 692 150 683 q 181 707 168 701 q 208 712 193 712 q 234 707 222 712 q 256 692 247 701 q 271 670 265 683 q 276 644 276 658 z "},"":{"ha":329,"x_min":25,"x_max":312,"o":"m 52 0 l 52 41 q 82 44 71 41 q 99 55 93 47 q 107 77 105 62 q 110 113 110 91 l 110 326 q 104 380 110 366 q 81 395 98 395 q 60 393 73 395 q 37 387 47 391 l 25 425 l 215 482 l 256 482 l 256 113 q 258 76 256 90 q 268 54 261 62 q 285 43 274 46 q 312 41 296 41 l 312 0 l 52 0 z "},"":{"ha":694,"x_min":0,"x_max":0,"o":""},"":{"ha":1389,"x_min":0,"x_max":0,"o":""},"":{"ha":694,"x_min":0,"x_max":0,"o":""},"":{"ha":1389,"x_min":0,"x_max":0,"o":""},"":{"ha":463,"x_min":0,"x_max":0,"o":""},"":{"ha":347,"x_min":0,"x_max":0,"o":""},"":{"ha":232,"x_min":0,"x_max":0,"o":""},"":{"ha":543,"x_min":0,"x_max":0,"o":""},"":{"ha":435,"x_min":0,"x_max":0,"o":""},"":{"ha":136,"x_min":0,"x_max":0,"o":""},"":{"ha":68,"x_min":0,"x_max":0,"o":""},"":{"ha":0,"x_min":0,"x_max":0,"o":""},"":{"ha":0,"x_min":-200,"x_max":200,"o":"m 189 675 q 122 709 155 698 q 53 724 90 720 l 153 624 l 132 602 l 7 725 l -8 725 l -131 603 l -153 625 l -54 724 q -123 710 -90 720 q -189 676 -155 699 l -200 692 q -125 746 -163 725 q -40 774 -87 767 l -151 885 l -129 905 l 0 777 l 131 908 l 151 886 l 39 774 q 124 746 86 767 q 200 692 162 725 l 189 675 m 22 632 q 16 616 22 623 q 0 610 9 610 q -16 616 -9 610 q -22 632 -22 623 q -16 648 -22 642 q 0 654 -9 654 q 16 648 9 654 q 22 632 22 642 m 22 225 q 16 210 22 216 q 0 203 9 203 q -16 210 -9 203 q -22 225 -22 216 q -16 241 -22 235 q 0 248 -9 248 q 16 241 9 248 q 22 225 22 235 m 22 429 q 16 413 22 420 q 0 407 9 407 q -16 413 -9 407 q -22 429 -22 420 q -16 444 -22 437 q 0 450 -9 450 q 16 444 9 450 q 22 429 22 437 m 22 326 q 16 312 22 318 q 0 306 9 306 q -16 312 -9 306 q -22 326 -22 318 q -16 342 -22 336 q 0 349 -9 349 q 16 342 9 349 q 22 326 22 336 m 22 22 q 16 6 22 13 q 0 0 9 0 q -16 6 -9 0 q -22 22 -22 13 q -16 37 -22 31 q 0 43 -9 43 q 16 37 9 43 q 22 22 22 31 m 22 123 q 16 108 22 114 q 0 102 9 102 q -16 108 -9 102 q -22 123 -22 114 q -16 138 -22 132 q 0 144 -9 144 q 16 138 9 144 q 22 123 22 132 m 22 530 q 16 515 22 521 q 0 509 9 509 q -16 515 -9 509 q -22 530 -22 521 q -16 545 -22 539 q 0 551 -9 551 q 16 545 9 551 q 22 530 22 539 z "},"":{"ha":0,"x_min":-200,"x_max":200,"o":"m 0 777 q 65 769 36 777 q 119 749 94 762 q 163 722 143 737 q 200 692 182 707 q 198 687 200 690 q 195 682 197 684 q 189 675 192 678 q 149 699 169 689 q 106 714 129 708 q 58 723 84 720 q 0 725 33 725 q -58 723 -33 725 q -106 715 -84 720 q -149 700 -129 709 q -189 676 -169 690 q -195 682 -192 680 q -198 688 -197 685 q -200 692 -200 690 q -163 722 -183 707 q -119 749 -143 737 q -65 769 -94 762 q 0 777 -36 777 m 22 632 q 16 616 22 623 q 0 610 9 610 q -16 616 -9 610 q -22 632 -22 623 q -16 648 -22 642 q 0 654 -9 654 q 16 648 9 654 q 22 632 22 642 m 22 530 q 16 515 22 521 q 0 509 9 509 q -16 515 -9 509 q -22 530 -22 521 q -16 545 -22 539 q 0 551 -9 551 q 16 545 9 551 q 22 530 22 539 m 22 429 q 16 413 22 420 q 0 407 9 407 q -16 413 -9 407 q -22 429 -22 420 q -16 444 -22 437 q 0 450 -9 450 q 16 444 9 450 q 22 429 22 437 m 22 326 q 16 312 22 318 q 0 306 9 306 q -16 312 -9 306 q -22 326 -22 318 q -16 342 -22 336 q 0 349 -9 349 q 16 342 9 349 q 22 326 22 336 m 22 225 q 16 210 22 216 q 0 203 9 203 q -16 210 -9 203 q -22 225 -22 216 q -16 241 -22 235 q 0 248 -9 248 q 16 241 9 248 q 22 225 22 235 m 22 123 q 16 108 22 114 q 0 102 9 102 q -16 108 -9 102 q -22 123 -22 114 q -16 138 -22 132 q 0 144 -9 144 q 16 138 9 144 q 22 123 22 132 m 22 22 q 16 6 22 13 q 0 0 9 0 q -16 6 -9 0 q -22 22 -22 13 q -16 37 -22 31 q 0 43 -9 43 q 16 37 9 43 q 22 22 22 31 z "},"":{"ha":0,"x_min":-47,"x_max":68,"o":"m -47 645 l -47 781 l 68 713 l -47 645 z "},"":{"ha":0,"x_min":-68,"x_max":47,"o":"m -68 713 l 47 781 l 47 645 l -68 713 z "},"":{"ha":349,"x_min":41,"x_max":306,"o":"m 41 196 l 41 272 l 306 272 l 306 196 l 41 196 z "},"":{"ha":349,"x_min":41,"x_max":306,"o":"m 41 196 l 41 272 l 306 272 l 306 196 l 41 196 z "},"":{"ha":524,"x_min":0,"x_max":524,"o":"m 0 196 l 0 272 l 524 272 l 524 196 l 0 196 z "},"":{"ha":1007,"x_min":0,"x_max":1007,"o":"m 0 196 l 0 272 l 1007 272 l 1007 196 l 0 196 z "},"":{"ha":292,"x_min":60,"x_max":233,"o":"m 233 348 q 226 314 233 330 q 207 286 219 298 q 179 267 195 274 q 146 260 163 260 q 113 267 128 260 q 85 286 97 274 q 66 314 73 298 q 60 348 60 330 q 66 381 60 366 q 85 409 73 397 q 113 427 97 420 q 146 434 128 434 q 179 427 163 434 q 207 409 195 420 q 226 381 219 397 q 233 348 233 366 z "},"":{"ha":0,"x_min":0,"x_max":0,"o":""},"":{"ha":0,"x_min":0,"x_max":0,"o":""},"":{"ha":0,"x_min":-28,"x_max":113,"o":"m 45 -109 l 45 -61 l -28 -61 l -28 484 l 0 484 l 0 -33 l 45 -33 l 45 14 l 113 -47 l 45 -109 z "},"":{"ha":0,"x_min":-113,"x_max":28,"o":"m -45 -61 l -45 -109 l -113 -47 l -45 14 l -45 -33 l 0 -33 l 0 484 l 28 484 l 28 -61 l -45 -61 z "},"":{"ha":0,"x_min":-61,"x_max":61,"o":"m 14 484 l 14 -33 l 56 -33 l 56 -61 l -56 -61 l -56 -33 l -14 -33 l -14 484 l -61 484 l 0 551 l 61 484 l 14 484 z "},"":{"ha":0,"x_min":-98,"x_max":113,"o":"m 45 689 l 45 736 l -98 736 l -98 762 l 45 762 l 45 810 l 113 750 l 45 689 m 22 632 q 16 616 22 623 q 0 610 9 610 q -16 616 -9 610 q -22 632 -22 623 q -16 648 -22 642 q 0 654 -9 654 q 16 648 9 654 q 22 632 22 642 m 22 530 q 16 515 22 521 q 0 509 9 509 q -16 515 -9 509 q -22 530 -22 521 q -16 545 -22 539 q 0 551 -9 551 q 16 545 9 551 q 22 530 22 539 m 22 429 q 16 413 22 420 q 0 407 9 407 q -16 413 -9 407 q -22 429 -22 420 q -16 444 -22 437 q 0 450 -9 450 q 16 444 9 450 q 22 429 22 437 m 22 326 q 16 312 22 318 q 0 306 9 306 q -16 312 -9 306 q -22 326 -22 318 q -16 342 -22 336 q 0 349 -9 349 q 16 342 9 349 q 22 326 22 336 m 22 225 q 16 210 22 216 q 0 203 9 203 q -16 210 -9 203 q -22 225 -22 216 q -16 241 -22 235 q 0 248 -9 248 q 16 241 9 248 q 22 225 22 235 m 22 123 q 16 108 22 114 q 0 102 9 102 q -16 108 -9 102 q -22 123 -22 114 q -16 138 -22 132 q 0 144 -9 144 q 16 138 9 144 q 22 123 22 132 m 22 22 q 16 6 22 13 q 0 0 9 0 q -16 6 -9 0 q -22 22 -22 13 q -16 37 -22 31 q 0 43 -9 43 q 16 37 9 43 q 22 22 22 31 z "},"":{"ha":0,"x_min":-113,"x_max":98,"o":"m -45 736 l -45 689 l -113 750 l -45 810 l -45 762 l 98 762 l 98 736 l -45 736 m 22 632 q 16 616 22 623 q 0 610 9 610 q -16 616 -9 610 q -22 632 -22 623 q -16 648 -22 642 q 0 654 -9 654 q 16 648 9 654 q 22 632 22 642 m 22 530 q 16 515 22 521 q 0 509 9 509 q -16 515 -9 509 q -22 530 -22 521 q -16 545 -22 539 q 0 551 -9 551 q 16 545 9 551 q 22 530 22 539 m 22 429 q 16 413 22 420 q 0 407 9 407 q -16 413 -9 407 q -22 429 -22 420 q -16 444 -22 437 q 0 450 -9 450 q 16 444 9 450 q 22 429 22 437 m 22 326 q 16 312 22 318 q 0 306 9 306 q -16 312 -9 306 q -22 326 -22 318 q -16 342 -22 336 q 0 349 -9 349 q 16 342 9 349 q 22 326 22 336 m 22 225 q 16 210 22 216 q 0 203 9 203 q -16 210 -9 203 q -22 225 -22 216 q -16 241 -22 235 q 0 248 -9 248 q 16 241 9 248 q 22 225 22 235 m 22 123 q 16 108 22 114 q 0 102 9 102 q -16 108 -9 102 q -22 123 -22 114 q -16 138 -22 132 q 0 144 -9 144 q 16 138 9 144 q 22 123 22 132 m 22 22 q 16 6 22 13 q 0 0 9 0 q -16 6 -9 0 q -22 22 -22 13 q -16 37 -22 31 q 0 43 -9 43 q 16 37 9 43 q 22 22 22 31 z "},"":{"ha":136,"x_min":0,"x_max":0,"o":""},"":{"ha":0,"x_min":0,"x_max":0,"o":""},"":{"ha":694,"x_min":21,"x_max":673,"o":"m 280 94 q 273 89 280 89 q 267 93 269 89 l 237 174 l 155 174 l 125 93 q 118 89 123 89 q 111 95 111 89 l 111 97 l 193 302 q 199 308 195 308 q 205 301 203 308 l 279 97 l 280 94 m 578 94 q 575 90 578 92 q 571 87 573 87 l 461 87 q 455 95 455 87 q 461 102 455 102 l 564 102 l 564 191 l 461 191 q 454 197 454 191 l 454 300 q 456 304 454 302 q 461 307 458 307 l 571 307 q 577 300 577 307 q 571 293 577 293 l 468 293 l 468 203 l 571 203 q 575 201 573 203 q 578 197 578 199 l 578 94 m 319 293 l 319 203 l 403 203 q 409 197 409 203 q 408 193 409 195 q 403 191 406 191 l 319 191 l 319 94 q 313 88 319 88 q 306 94 306 88 l 306 300 q 308 304 306 302 q 313 307 309 307 l 427 307 q 434 300 434 307 q 427 293 434 293 l 319 293 m 313 349 q 305 356 305 349 q 313 363 305 363 l 340 363 l 340 554 l 313 554 q 305 562 305 554 q 313 568 305 568 l 382 568 q 389 562 389 568 q 382 554 389 554 l 354 554 l 354 363 l 382 363 q 389 356 389 363 q 382 349 389 349 l 313 349 m 199 281 l 161 186 l 233 186 l 199 281 m 370 632 q 363 616 370 623 q 347 610 357 610 q 331 616 338 610 q 325 632 325 623 q 331 648 325 642 q 347 654 338 654 q 363 648 357 654 q 370 632 370 642 m 572 632 q 566 616 572 623 q 550 610 559 610 q 535 616 542 610 q 529 632 529 623 q 535 648 529 642 q 550 654 542 654 q 566 648 559 654 q 572 632 572 642 m 165 632 q 159 616 165 623 q 144 610 153 610 q 129 616 135 610 q 122 632 122 623 q 129 648 122 642 q 144 654 135 654 q 159 648 153 654 q 165 632 165 642 m 370 22 q 363 6 370 13 q 347 0 357 0 q 331 6 338 0 q 325 22 325 13 q 331 37 325 31 q 347 43 338 43 q 363 37 357 43 q 370 22 370 31 m 471 632 q 465 616 471 623 q 449 610 458 610 q 434 616 440 610 q 428 632 428 623 q 434 648 428 642 q 449 654 440 654 q 465 648 458 654 q 471 632 471 642 m 267 632 q 260 616 267 623 q 245 610 254 610 q 230 616 236 610 q 224 632 224 623 q 230 648 224 642 q 245 654 236 654 q 260 648 254 654 q 267 632 267 642 m 673 632 q 667 616 673 623 q 653 610 661 610 q 637 616 644 610 q 631 632 631 623 q 637 648 631 642 q 653 654 644 654 q 667 648 661 654 q 673 632 673 642 m 673 225 q 667 210 673 216 q 653 203 661 203 q 637 210 644 203 q 631 225 631 216 q 637 241 631 235 q 653 248 644 248 q 667 241 661 248 q 673 225 673 235 m 64 225 q 57 210 64 216 q 41 203 51 203 q 27 210 33 203 q 21 225 21 216 q 27 241 21 235 q 41 248 33 248 q 57 241 51 248 q 64 225 64 235 m 64 632 q 57 616 64 623 q 41 610 51 610 q 27 616 33 610 q 21 632 21 623 q 27 648 21 642 q 41 654 33 654 q 57 648 51 654 q 64 632 64 642 m 64 429 q 57 413 64 420 q 41 407 51 407 q 27 413 33 407 q 21 429 21 420 q 27 444 21 437 q 41 450 33 450 q 57 444 51 450 q 64 429 64 437 m 673 429 q 667 413 673 420 q 653 407 661 407 q 637 413 644 407 q 631 429 631 420 q 637 444 631 437 q 653 450 644 450 q 667 444 661 450 q 673 429 673 437 m 572 22 q 566 6 572 13 q 550 0 559 0 q 535 6 542 0 q 529 22 529 13 q 535 37 529 31 q 550 43 542 43 q 566 37 559 43 q 572 22 572 31 m 165 22 q 159 6 165 13 q 144 0 153 0 q 129 6 135 0 q 122 22 122 13 q 129 37 122 31 q 144 43 135 43 q 159 37 153 43 q 165 22 165 31 m 64 22 q 57 6 64 13 q 41 0 51 0 q 27 6 33 0 q 21 22 21 13 q 27 37 21 31 q 41 43 33 43 q 57 37 51 43 q 64 22 64 31 m 673 326 q 667 312 673 318 q 653 306 661 306 q 637 312 644 306 q 631 326 631 318 q 637 342 631 336 q 653 349 644 349 q 667 342 661 349 q 673 326 673 336 m 64 326 q 57 312 64 318 q 41 306 51 306 q 27 312 33 306 q 21 326 21 318 q 27 342 21 336 q 41 349 33 349 q 57 342 51 349 q 64 326 64 336 m 673 22 q 667 6 673 13 q 653 0 661 0 q 637 6 644 0 q 631 22 631 13 q 637 37 631 31 q 653 43 644 43 q 667 37 661 43 q 673 22 673 31 m 267 22 q 260 6 267 13 q 245 0 254 0 q 230 6 236 0 q 224 22 224 13 q 230 37 224 31 q 245 43 236 43 q 260 37 254 43 q 267 22 267 31 m 673 530 q 667 515 673 521 q 653 509 661 509 q 637 515 644 509 q 631 530 631 521 q 637 545 631 539 q 653 551 644 551 q 667 545 661 551 q 673 530 673 539 m 64 530 q 57 515 64 521 q 41 509 51 509 q 27 515 33 509 q 21 530 21 521 q 27 545 21 539 q 41 551 33 551 q 57 545 51 551 q 64 530 64 539 m 64 123 q 57 108 64 114 q 41 102 51 102 q 27 108 33 102 q 21 123 21 114 q 27 138 21 132 q 41 144 33 144 q 57 138 51 144 q 64 123 64 132 m 471 22 q 465 6 471 13 q 449 0 458 0 q 434 6 440 0 q 428 22 428 13 q 434 37 428 31 q 449 43 440 43 q 465 37 458 43 q 471 22 471 31 m 673 123 q 667 108 673 114 q 653 102 661 102 q 637 108 644 102 q 631 123 631 114 q 637 138 631 132 q 653 144 644 144 q 667 138 661 144 q 673 123 673 132 z "},"":{"ha":694,"x_min":21,"x_max":673,"o":"m 429 355 q 422 350 429 350 q 415 354 417 350 l 386 435 l 304 435 l 272 354 q 266 350 271 350 q 260 356 260 350 l 260 358 l 340 564 q 347 569 344 569 q 354 562 352 569 l 428 358 l 429 355 m 280 94 q 273 89 280 89 q 267 93 269 89 l 237 174 l 155 174 l 125 93 q 118 89 123 89 q 111 95 111 89 l 111 97 l 193 302 q 199 308 195 308 q 205 301 203 308 l 279 97 l 280 94 m 578 94 q 575 90 578 92 q 571 87 573 87 l 461 87 q 455 95 455 87 q 461 102 455 102 l 564 102 l 564 191 l 461 191 q 454 197 454 191 l 454 300 q 456 304 454 302 q 461 307 458 307 l 571 307 q 577 300 577 307 q 571 293 577 293 l 468 293 l 468 203 l 571 203 q 575 201 573 203 q 578 197 578 199 l 578 94 m 319 293 l 319 203 l 403 203 q 409 197 409 203 q 408 193 409 195 q 403 191 406 191 l 319 191 l 319 94 q 313 88 319 88 q 306 94 306 88 l 306 300 q 308 304 306 302 q 313 307 309 307 l 427 307 q 434 300 434 307 q 427 293 434 293 l 319 293 m 347 542 l 310 447 l 382 447 l 347 542 m 199 281 l 161 186 l 233 186 l 199 281 m 370 632 q 363 616 370 623 q 347 610 357 610 q 331 616 338 610 q 325 632 325 623 q 331 648 325 642 q 347 654 338 654 q 363 648 357 654 q 370 632 370 642 m 572 632 q 566 616 572 623 q 550 610 559 610 q 535 616 542 610 q 529 632 529 623 q 535 648 529 642 q 550 654 542 654 q 566 648 559 654 q 572 632 572 642 m 165 632 q 159 616 165 623 q 144 610 153 610 q 129 616 135 610 q 122 632 122 623 q 129 648 122 642 q 144 654 135 654 q 159 648 153 654 q 165 632 165 642 m 370 22 q 363 6 370 13 q 347 0 357 0 q 331 6 338 0 q 325 22 325 13 q 331 37 325 31 q 347 43 338 43 q 363 37 357 43 q 370 22 370 31 m 471 632 q 465 616 471 623 q 449 610 458 610 q 434 616 440 610 q 428 632 428 623 q 434 648 428 642 q 449 654 440 654 q 465 648 458 654 q 471 632 471 642 m 267 632 q 260 616 267 623 q 245 610 254 610 q 230 616 236 610 q 224 632 224 623 q 230 648 224 642 q 245 654 236 654 q 260 648 254 654 q 267 632 267 642 m 673 632 q 667 616 673 623 q 653 610 661 610 q 637 616 644 610 q 631 632 631 623 q 637 648 631 642 q 653 654 644 654 q 667 648 661 654 q 673 632 673 642 m 673 225 q 667 210 673 216 q 653 203 661 203 q 637 210 644 203 q 631 225 631 216 q 637 241 631 235 q 653 248 644 248 q 667 241 661 248 q 673 225 673 235 m 64 225 q 57 210 64 216 q 41 203 51 203 q 27 210 33 203 q 21 225 21 216 q 27 241 21 235 q 41 248 33 248 q 57 241 51 248 q 64 225 64 235 m 64 632 q 57 616 64 623 q 41 610 51 610 q 27 616 33 610 q 21 632 21 623 q 27 648 21 642 q 41 654 33 654 q 57 648 51 654 q 64 632 64 642 m 64 429 q 57 413 64 420 q 41 407 51 407 q 27 413 33 407 q 21 429 21 420 q 27 444 21 437 q 41 450 33 450 q 57 444 51 450 q 64 429 64 437 m 673 429 q 667 413 673 420 q 653 407 661 407 q 637 413 644 407 q 631 429 631 420 q 637 444 631 437 q 653 450 644 450 q 667 444 661 450 q 673 429 673 437 m 572 22 q 566 6 572 13 q 550 0 559 0 q 535 6 542 0 q 529 22 529 13 q 535 37 529 31 q 550 43 542 43 q 566 37 559 43 q 572 22 572 31 m 165 22 q 159 6 165 13 q 144 0 153 0 q 129 6 135 0 q 122 22 122 13 q 129 37 122 31 q 144 43 135 43 q 159 37 153 43 q 165 22 165 31 m 673 22 q 667 6 673 13 q 653 0 661 0 q 637 6 644 0 q 631 22 631 13 q 637 37 631 31 q 653 43 644 43 q 667 37 661 43 q 673 22 673 31 m 64 326 q 57 312 64 318 q 41 306 51 306 q 27 312 33 306 q 21 326 21 318 q 27 342 21 336 q 41 349 33 349 q 57 342 51 349 q 64 326 64 336 m 673 326 q 667 312 673 318 q 653 306 661 306 q 637 312 644 306 q 631 326 631 318 q 637 342 631 336 q 653 349 644 349 q 667 342 661 349 q 673 326 673 336 m 64 22 q 57 6 64 13 q 41 0 51 0 q 27 6 33 0 q 21 22 21 13 q 27 37 21 31 q 41 43 33 43 q 57 37 51 43 q 64 22 64 31 m 64 123 q 57 108 64 114 q 41 102 51 102 q 27 108 33 102 q 21 123 21 114 q 27 138 21 132 q 41 144 33 144 q 57 138 51 144 q 64 123 64 132 m 673 123 q 667 108 673 114 q 653 102 661 102 q 637 108 644 102 q 631 123 631 114 q 637 138 631 132 q 653 144 644 144 q 667 138 661 144 q 673 123 673 132 m 471 22 q 465 6 471 13 q 449 0 458 0 q 434 6 440 0 q 428 22 428 13 q 434 37 428 31 q 449 43 440 43 q 465 37 458 43 q 471 22 471 31 m 267 22 q 260 6 267 13 q 245 0 254 0 q 230 6 236 0 q 224 22 224 13 q 230 37 224 31 q 245 43 236 43 q 260 37 254 43 q 267 22 267 31 m 64 530 q 57 515 64 521 q 41 509 51 509 q 27 515 33 509 q 21 530 21 521 q 27 545 21 539 q 41 551 33 551 q 57 545 51 551 q 64 530 64 539 m 673 530 q 667 515 673 521 q 653 509 661 509 q 637 515 644 509 q 631 530 631 521 q 637 545 631 539 q 653 551 644 551 q 667 545 661 551 q 673 530 673 539 z "},"":{"ha":694,"x_min":21,"x_max":673,"o":"m 673 632 q 667 616 673 623 q 653 610 661 610 q 637 616 644 610 q 631 632 631 623 q 637 648 631 642 q 653 654 644 654 q 667 648 661 654 q 673 632 673 642 m 572 632 q 566 616 572 623 q 550 610 559 610 q 535 616 542 610 q 529 632 529 623 q 535 648 529 642 q 550 654 542 654 q 566 648 559 654 q 572 632 572 642 m 673 530 q 667 515 673 521 q 653 509 661 509 q 637 515 644 509 q 631 530 631 521 q 637 545 631 539 q 653 551 644 551 q 667 545 661 551 q 673 530 673 539 m 471 632 q 465 616 471 623 q 449 610 458 610 q 434 616 440 610 q 428 632 428 623 q 434 648 428 642 q 449 654 440 654 q 465 648 458 654 q 471 632 471 642 m 673 429 q 667 413 673 420 q 653 407 661 407 q 637 413 644 407 q 631 429 631 420 q 637 444 631 437 q 653 450 644 450 q 667 444 661 450 q 673 429 673 437 m 370 632 q 363 616 370 623 q 347 610 357 610 q 331 616 338 610 q 325 632 325 623 q 331 648 325 642 q 347 654 338 654 q 363 648 357 654 q 370 632 370 642 m 673 326 q 667 312 673 318 q 653 306 661 306 q 637 312 644 306 q 631 326 631 318 q 637 342 631 336 q 653 349 644 349 q 667 342 661 349 q 673 326 673 336 m 267 632 q 260 616 267 623 q 245 610 254 610 q 230 616 236 610 q 224 632 224 623 q 230 648 224 642 q 245 654 236 654 q 260 648 254 654 q 267 632 267 642 m 673 225 q 667 210 673 216 q 653 203 661 203 q 637 210 644 203 q 631 225 631 216 q 637 241 631 235 q 653 248 644 248 q 667 241 661 248 q 673 225 673 235 m 673 123 q 667 108 673 114 q 653 102 661 102 q 637 108 644 102 q 631 123 631 114 q 637 138 631 132 q 653 144 644 144 q 667 138 661 144 q 673 123 673 132 m 165 632 q 159 616 165 623 q 144 610 153 610 q 129 616 135 610 q 122 632 122 623 q 129 648 122 642 q 144 654 135 654 q 159 648 153 654 q 165 632 165 642 m 64 632 q 57 616 64 623 q 41 610 51 610 q 27 616 33 610 q 21 632 21 623 q 27 648 21 642 q 41 654 33 654 q 57 648 51 654 q 64 632 64 642 m 673 22 q 667 6 673 13 q 653 0 661 0 q 637 6 644 0 q 631 22 631 13 q 637 37 631 31 q 653 43 644 43 q 667 37 661 43 q 673 22 673 31 m 64 530 q 57 515 64 521 q 41 509 51 509 q 27 515 33 509 q 21 530 21 521 q 27 545 21 539 q 41 551 33 551 q 57 545 51 551 q 64 530 64 539 m 572 22 q 566 6 572 13 q 550 0 559 0 q 535 6 542 0 q 529 22 529 13 q 535 37 529 31 q 550 43 542 43 q 566 37 559 43 q 572 22 572 31 m 64 429 q 57 413 64 420 q 41 407 51 407 q 27 413 33 407 q 21 429 21 420 q 27 444 21 437 q 41 450 33 450 q 57 444 51 450 q 64 429 64 437 m 471 22 q 465 6 471 13 q 449 0 458 0 q 434 6 440 0 q 428 22 428 13 q 434 37 428 31 q 449 43 440 43 q 465 37 458 43 q 471 22 471 31 m 64 326 q 57 312 64 318 q 41 306 51 306 q 27 312 33 306 q 21 326 21 318 q 27 342 21 336 q 41 349 33 349 q 57 342 51 349 q 64 326 64 336 m 370 22 q 363 6 370 13 q 347 0 357 0 q 331 6 338 0 q 325 22 325 13 q 331 37 325 31 q 347 43 338 43 q 363 37 357 43 q 370 22 370 31 m 64 225 q 57 210 64 216 q 41 203 51 203 q 27 210 33 203 q 21 225 21 216 q 27 241 21 235 q 41 248 33 248 q 57 241 51 248 q 64 225 64 235 m 267 22 q 260 6 267 13 q 245 0 254 0 q 230 6 236 0 q 224 22 224 13 q 230 37 224 31 q 245 43 236 43 q 260 37 254 43 q 267 22 267 31 m 64 123 q 57 108 64 114 q 41 102 51 102 q 27 108 33 102 q 21 123 21 114 q 27 138 21 132 q 41 144 33 144 q 57 138 51 144 q 64 123 64 132 m 165 22 q 159 6 165 13 q 144 0 153 0 q 129 6 135 0 q 122 22 122 13 q 129 37 122 31 q 144 43 135 43 q 159 37 153 43 q 165 22 165 31 m 64 22 q 57 6 64 13 q 41 0 51 0 q 27 6 33 0 q 21 22 21 13 q 27 37 21 31 q 41 43 33 43 q 57 37 51 43 q 64 22 64 31 m 273 218 q 281 210 281 218 q 273 203 281 203 l 159 203 q 154 206 156 203 q 153 211 153 209 l 153 416 q 159 422 153 422 q 166 416 166 422 l 166 218 l 273 218 m 456 203 q 449 211 449 203 q 456 218 449 218 l 484 218 l 484 409 l 456 409 q 449 416 449 409 q 456 423 449 423 l 526 423 q 533 416 533 423 q 526 409 533 409 l 498 409 l 498 218 l 526 218 q 533 211 533 218 q 526 203 533 203 l 456 203 m 321 212 q 315 204 320 204 q 308 211 309 204 l 308 416 q 315 423 309 423 l 353 423 q 404 405 387 423 q 420 364 420 387 q 409 330 420 346 q 375 307 397 313 l 422 213 q 422 210 422 212 q 416 203 422 203 q 410 207 411 203 l 361 304 l 321 304 l 321 212 m 321 318 l 351 318 q 393 332 379 318 q 408 363 408 346 q 393 395 408 381 q 351 410 379 410 l 321 410 l 321 318 z "},"":{"ha":694,"x_min":21,"x_max":673,"o":"m 673 632 q 667 616 673 623 q 653 610 661 610 q 637 616 644 610 q 631 632 631 623 q 637 648 631 642 q 653 654 644 654 q 667 648 661 654 q 673 632 673 642 m 572 632 q 566 616 572 623 q 550 610 559 610 q 535 616 542 610 q 529 632 529 623 q 535 648 529 642 q 550 654 542 654 q 566 648 559 654 q 572 632 572 642 m 673 530 q 667 515 673 521 q 653 509 661 509 q 637 515 644 509 q 631 530 631 521 q 637 545 631 539 q 653 551 644 551 q 667 545 661 551 q 673 530 673 539 m 471 632 q 465 616 471 623 q 449 610 458 610 q 434 616 440 610 q 428 632 428 623 q 434 648 428 642 q 449 654 440 654 q 465 648 458 654 q 471 632 471 642 m 673 429 q 667 413 673 420 q 653 407 661 407 q 637 413 644 407 q 631 429 631 420 q 637 444 631 437 q 653 450 644 450 q 667 444 661 450 q 673 429 673 437 m 370 632 q 363 616 370 623 q 347 610 357 610 q 331 616 338 610 q 325 632 325 623 q 331 648 325 642 q 347 654 338 654 q 363 648 357 654 q 370 632 370 642 m 673 326 q 667 312 673 318 q 653 306 661 306 q 637 312 644 306 q 631 326 631 318 q 637 342 631 336 q 653 349 644 349 q 667 342 661 349 q 673 326 673 336 m 267 632 q 260 616 267 623 q 245 610 254 610 q 230 616 236 610 q 224 632 224 623 q 230 648 224 642 q 245 654 236 654 q 260 648 254 654 q 267 632 267 642 m 673 225 q 667 210 673 216 q 653 203 661 203 q 637 210 644 203 q 631 225 631 216 q 637 241 631 235 q 653 248 644 248 q 667 241 661 248 q 673 225 673 235 m 673 123 q 667 108 673 114 q 653 102 661 102 q 637 108 644 102 q 631 123 631 114 q 637 138 631 132 q 653 144 644 144 q 667 138 661 144 q 673 123 673 132 m 165 632 q 159 616 165 623 q 144 610 153 610 q 129 616 135 610 q 122 632 122 623 q 129 648 122 642 q 144 654 135 654 q 159 648 153 654 q 165 632 165 642 m 64 632 q 57 616 64 623 q 41 610 51 610 q 27 616 33 610 q 21 632 21 623 q 27 648 21 642 q 41 654 33 654 q 57 648 51 654 q 64 632 64 642 m 673 22 q 667 6 673 13 q 653 0 661 0 q 637 6 644 0 q 631 22 631 13 q 637 37 631 31 q 653 43 644 43 q 667 37 661 43 q 673 22 673 31 m 64 530 q 57 515 64 521 q 41 509 51 509 q 27 515 33 509 q 21 530 21 521 q 27 545 21 539 q 41 551 33 551 q 57 545 51 551 q 64 530 64 539 m 572 22 q 566 6 572 13 q 550 0 559 0 q 535 6 542 0 q 529 22 529 13 q 535 37 529 31 q 550 43 542 43 q 566 37 559 43 q 572 22 572 31 m 64 429 q 57 413 64 420 q 41 407 51 407 q 27 413 33 407 q 21 429 21 420 q 27 444 21 437 q 41 450 33 450 q 57 444 51 450 q 64 429 64 437 m 471 22 q 465 6 471 13 q 449 0 458 0 q 434 6 440 0 q 428 22 428 13 q 434 37 428 31 q 449 43 440 43 q 465 37 458 43 q 471 22 471 31 m 64 326 q 57 312 64 318 q 41 306 51 306 q 27 312 33 306 q 21 326 21 318 q 27 342 21 336 q 41 349 33 349 q 57 342 51 349 q 64 326 64 336 m 370 22 q 363 6 370 13 q 347 0 357 0 q 331 6 338 0 q 325 22 325 13 q 331 37 325 31 q 347 43 338 43 q 363 37 357 43 q 370 22 370 31 m 64 225 q 57 210 64 216 q 41 203 51 203 q 27 210 33 203 q 21 225 21 216 q 27 241 21 235 q 41 248 33 248 q 57 241 51 248 q 64 225 64 235 m 267 22 q 260 6 267 13 q 245 0 254 0 q 230 6 236 0 q 224 22 224 13 q 230 37 224 31 q 245 43 236 43 q 260 37 254 43 q 267 22 267 31 m 64 123 q 57 108 64 114 q 41 102 51 102 q 27 108 33 102 q 21 123 21 114 q 27 138 21 132 q 41 144 33 144 q 57 138 51 144 q 64 123 64 132 m 165 22 q 159 6 165 13 q 144 0 153 0 q 129 6 135 0 q 122 22 122 13 q 129 37 122 31 q 144 43 135 43 q 159 37 153 43 q 165 22 165 31 m 64 22 q 57 6 64 13 q 41 0 51 0 q 27 6 33 0 q 21 22 21 13 q 27 37 21 31 q 41 43 33 43 q 57 37 51 43 q 64 22 64 31 m 416 218 q 423 210 423 218 q 416 203 423 203 l 302 203 q 297 206 298 203 q 295 211 295 209 l 295 416 q 302 422 295 422 q 309 416 309 422 l 309 218 l 416 218 m 456 203 q 449 211 449 203 q 456 218 449 218 l 484 218 l 484 409 l 456 409 q 449 416 449 409 q 456 423 449 423 l 526 423 q 533 416 533 423 q 526 409 533 409 l 498 409 l 498 218 l 526 218 q 533 211 533 218 q 526 203 533 203 l 456 203 m 166 212 q 159 204 165 204 q 153 211 154 204 l 153 416 q 160 423 153 423 l 197 423 q 248 405 231 423 q 265 364 265 387 q 254 330 265 346 q 220 307 242 313 l 267 213 q 267 210 267 212 q 260 203 267 203 q 254 207 256 203 l 206 304 l 166 304 l 166 212 m 166 318 l 195 318 q 238 332 224 318 q 252 363 252 346 q 238 395 252 381 q 195 410 224 410 l 166 410 l 166 318 z "},"":{"ha":694,"x_min":21,"x_max":673,"o":"m 673 632 q 667 616 673 623 q 653 610 661 610 q 637 616 644 610 q 631 632 631 623 q 637 648 631 642 q 653 654 644 654 q 667 648 661 654 q 673 632 673 642 m 572 632 q 566 616 572 623 q 550 610 559 610 q 535 616 542 610 q 529 632 529 623 q 535 648 529 642 q 550 654 542 654 q 566 648 559 654 q 572 632 572 642 m 673 530 q 667 515 673 521 q 653 509 661 509 q 637 515 644 509 q 631 530 631 521 q 637 545 631 539 q 653 551 644 551 q 667 545 661 551 q 673 530 673 539 m 471 632 q 465 616 471 623 q 449 610 458 610 q 434 616 440 610 q 428 632 428 623 q 434 648 428 642 q 449 654 440 654 q 465 648 458 654 q 471 632 471 642 m 673 429 q 667 413 673 420 q 653 407 661 407 q 637 413 644 407 q 631 429 631 420 q 637 444 631 437 q 653 450 644 450 q 667 444 661 450 q 673 429 673 437 m 370 632 q 363 616 370 623 q 347 610 357 610 q 331 616 338 610 q 325 632 325 623 q 331 648 325 642 q 347 654 338 654 q 363 648 357 654 q 370 632 370 642 m 673 326 q 667 312 673 318 q 653 306 661 306 q 637 312 644 306 q 631 326 631 318 q 637 342 631 336 q 653 349 644 349 q 667 342 661 349 q 673 326 673 336 m 267 632 q 260 616 267 623 q 245 610 254 610 q 230 616 236 610 q 224 632 224 623 q 230 648 224 642 q 245 654 236 654 q 260 648 254 654 q 267 632 267 642 m 673 225 q 667 210 673 216 q 653 203 661 203 q 637 210 644 203 q 631 225 631 216 q 637 241 631 235 q 653 248 644 248 q 667 241 661 248 q 673 225 673 235 m 673 123 q 667 108 673 114 q 653 102 661 102 q 637 108 644 102 q 631 123 631 114 q 637 138 631 132 q 653 144 644 144 q 667 138 661 144 q 673 123 673 132 m 165 632 q 159 616 165 623 q 144 610 153 610 q 129 616 135 610 q 122 632 122 623 q 129 648 122 642 q 144 654 135 654 q 159 648 153 654 q 165 632 165 642 m 64 632 q 57 616 64 623 q 41 610 51 610 q 27 616 33 610 q 21 632 21 623 q 27 648 21 642 q 41 654 33 654 q 57 648 51 654 q 64 632 64 642 m 673 22 q 667 6 673 13 q 653 0 661 0 q 637 6 644 0 q 631 22 631 13 q 637 37 631 31 q 653 43 644 43 q 667 37 661 43 q 673 22 673 31 m 64 530 q 57 515 64 521 q 41 509 51 509 q 27 515 33 509 q 21 530 21 521 q 27 545 21 539 q 41 551 33 551 q 57 545 51 551 q 64 530 64 539 m 572 22 q 566 6 572 13 q 550 0 559 0 q 535 6 542 0 q 529 22 529 13 q 535 37 529 31 q 550 43 542 43 q 566 37 559 43 q 572 22 572 31 m 64 429 q 57 413 64 420 q 41 407 51 407 q 27 413 33 407 q 21 429 21 420 q 27 444 21 437 q 41 450 33 450 q 57 444 51 450 q 64 429 64 437 m 471 22 q 465 6 471 13 q 449 0 458 0 q 434 6 440 0 q 428 22 428 13 q 434 37 428 31 q 449 43 440 43 q 465 37 458 43 q 471 22 471 31 m 64 326 q 57 312 64 318 q 41 306 51 306 q 27 312 33 306 q 21 326 21 318 q 27 342 21 336 q 41 349 33 349 q 57 342 51 349 q 64 326 64 336 m 370 22 q 363 6 370 13 q 347 0 357 0 q 331 6 338 0 q 325 22 325 13 q 331 37 325 31 q 347 43 338 43 q 363 37 357 43 q 370 22 370 31 m 64 225 q 57 210 64 216 q 41 203 51 203 q 27 210 33 203 q 21 225 21 216 q 27 241 21 235 q 41 248 33 248 q 57 241 51 248 q 64 225 64 235 m 267 22 q 260 6 267 13 q 245 0 254 0 q 230 6 236 0 q 224 22 224 13 q 230 37 224 31 q 245 43 236 43 q 260 37 254 43 q 267 22 267 31 m 64 123 q 57 108 64 114 q 41 102 51 102 q 27 108 33 102 q 21 123 21 114 q 27 138 21 132 q 41 144 33 144 q 57 138 51 144 q 64 123 64 132 m 165 22 q 159 6 165 13 q 144 0 153 0 q 129 6 135 0 q 122 22 122 13 q 129 37 122 31 q 144 43 135 43 q 159 37 153 43 q 165 22 165 31 m 64 22 q 57 6 64 13 q 41 0 51 0 q 27 6 33 0 q 21 22 21 13 q 27 37 21 31 q 41 43 33 43 q 57 37 51 43 q 64 22 64 31 m 172 409 l 172 319 l 255 319 q 261 313 261 319 q 260 309 261 311 q 255 307 258 307 l 172 307 l 172 210 q 165 204 172 204 q 158 210 158 204 l 158 416 q 160 420 158 418 q 165 423 161 423 l 279 423 q 286 416 286 423 q 279 409 286 409 l 172 409 m 430 210 q 428 206 430 208 q 423 203 425 203 l 313 203 q 307 211 307 203 q 313 218 307 218 l 416 218 l 416 307 l 313 307 q 307 313 307 307 l 307 416 q 308 420 307 418 q 313 423 310 423 l 423 423 q 429 416 429 423 q 423 409 429 409 l 320 409 l 320 319 l 423 319 q 428 317 425 319 q 430 313 430 315 l 430 210 m 464 203 q 456 211 456 203 q 464 218 456 218 l 492 218 l 492 409 l 464 409 q 456 416 456 409 q 464 423 456 423 l 533 423 q 541 416 541 423 q 533 409 541 409 l 505 409 l 505 218 l 533 218 q 541 211 541 218 q 533 203 541 203 l 464 203 z "},"":{"ha":694,"x_min":21,"x_max":673,"o":"m 673 632 q 667 616 673 623 q 653 610 661 610 q 637 616 644 610 q 631 632 631 623 q 637 648 631 642 q 653 654 644 654 q 667 648 661 654 q 673 632 673 642 m 572 632 q 566 616 572 623 q 550 610 559 610 q 535 616 542 610 q 529 632 529 623 q 535 648 529 642 q 550 654 542 654 q 566 648 559 654 q 572 632 572 642 m 673 530 q 667 515 673 521 q 653 509 661 509 q 637 515 644 509 q 631 530 631 521 q 637 545 631 539 q 653 551 644 551 q 667 545 661 551 q 673 530 673 539 m 471 632 q 465 616 471 623 q 449 610 458 610 q 434 616 440 610 q 428 632 428 623 q 434 648 428 642 q 449 654 440 654 q 465 648 458 654 q 471 632 471 642 m 673 429 q 667 413 673 420 q 653 407 661 407 q 637 413 644 407 q 631 429 631 420 q 637 444 631 437 q 653 450 644 450 q 667 444 661 450 q 673 429 673 437 m 370 632 q 363 616 370 623 q 347 610 357 610 q 331 616 338 610 q 325 632 325 623 q 331 648 325 642 q 347 654 338 654 q 363 648 357 654 q 370 632 370 642 m 673 326 q 667 312 673 318 q 653 306 661 306 q 637 312 644 306 q 631 326 631 318 q 637 342 631 336 q 653 349 644 349 q 667 342 661 349 q 673 326 673 336 m 267 632 q 260 616 267 623 q 245 610 254 610 q 230 616 236 610 q 224 632 224 623 q 230 648 224 642 q 245 654 236 654 q 260 648 254 654 q 267 632 267 642 m 673 225 q 667 210 673 216 q 653 203 661 203 q 637 210 644 203 q 631 225 631 216 q 637 241 631 235 q 653 248 644 248 q 667 241 661 248 q 673 225 673 235 m 673 123 q 667 108 673 114 q 653 102 661 102 q 637 108 644 102 q 631 123 631 114 q 637 138 631 132 q 653 144 644 144 q 667 138 661 144 q 673 123 673 132 m 165 632 q 159 616 165 623 q 144 610 153 610 q 129 616 135 610 q 122 632 122 623 q 129 648 122 642 q 144 654 135 654 q 159 648 153 654 q 165 632 165 642 m 64 632 q 57 616 64 623 q 41 610 51 610 q 27 616 33 610 q 21 632 21 623 q 27 648 21 642 q 41 654 33 654 q 57 648 51 654 q 64 632 64 642 m 673 22 q 667 6 673 13 q 653 0 661 0 q 637 6 644 0 q 631 22 631 13 q 637 37 631 31 q 653 43 644 43 q 667 37 661 43 q 673 22 673 31 m 64 530 q 57 515 64 521 q 41 509 51 509 q 27 515 33 509 q 21 530 21 521 q 27 545 21 539 q 41 551 33 551 q 57 545 51 551 q 64 530 64 539 m 572 22 q 566 6 572 13 q 550 0 559 0 q 535 6 542 0 q 529 22 529 13 q 535 37 529 31 q 550 43 542 43 q 566 37 559 43 q 572 22 572 31 m 64 429 q 57 413 64 420 q 41 407 51 407 q 27 413 33 407 q 21 429 21 420 q 27 444 21 437 q 41 450 33 450 q 57 444 51 450 q 64 429 64 437 m 471 22 q 465 6 471 13 q 449 0 458 0 q 434 6 440 0 q 428 22 428 13 q 434 37 428 31 q 449 43 440 43 q 465 37 458 43 q 471 22 471 31 m 64 326 q 57 312 64 318 q 41 306 51 306 q 27 312 33 306 q 21 326 21 318 q 27 342 21 336 q 41 349 33 349 q 57 342 51 349 q 64 326 64 336 m 370 22 q 363 6 370 13 q 347 0 357 0 q 331 6 338 0 q 325 22 325 13 q 331 37 325 31 q 347 43 338 43 q 363 37 357 43 q 370 22 370 31 m 64 225 q 57 210 64 216 q 41 203 51 203 q 27 210 33 203 q 21 225 21 216 q 27 241 21 235 q 41 248 33 248 q 57 241 51 248 q 64 225 64 235 m 267 22 q 260 6 267 13 q 245 0 254 0 q 230 6 236 0 q 224 22 224 13 q 230 37 224 31 q 245 43 236 43 q 260 37 254 43 q 267 22 267 31 m 64 123 q 57 108 64 114 q 41 102 51 102 q 27 108 33 102 q 21 123 21 114 q 27 138 21 132 q 41 144 33 144 q 57 138 51 144 q 64 123 64 132 m 165 22 q 159 6 165 13 q 144 0 153 0 q 129 6 135 0 q 122 22 122 13 q 129 37 122 31 q 144 43 135 43 q 159 37 153 43 q 165 22 165 31 m 64 22 q 57 6 64 13 q 41 0 51 0 q 27 6 33 0 q 21 22 21 13 q 27 37 21 31 q 41 43 33 43 q 57 37 51 43 q 64 22 64 31 m 452 203 q 444 211 444 203 q 452 218 444 218 l 479 218 l 479 409 l 452 409 q 444 416 444 409 q 452 423 444 423 l 521 423 q 528 416 528 423 q 521 409 528 409 l 493 409 l 493 218 l 521 218 q 528 211 528 218 q 521 203 528 203 l 452 203 m 178 212 q 172 204 177 204 q 165 211 166 204 l 165 416 q 172 423 165 423 l 210 423 q 260 405 243 423 q 277 364 277 387 q 260 323 277 342 q 210 304 243 304 l 178 304 l 178 212 m 178 318 l 208 318 q 250 332 236 318 q 264 363 264 346 q 250 395 264 381 q 208 410 236 410 l 178 410 l 178 318 m 304 416 q 312 423 305 423 l 349 423 q 400 405 383 423 q 417 364 417 387 l 417 263 q 400 222 417 241 q 349 203 383 203 l 304 203 l 304 416 m 318 217 l 347 217 q 390 231 376 217 q 404 262 404 245 l 404 363 q 390 395 404 381 q 347 410 376 410 l 318 410 l 318 217 z "},"":{"ha":621,"x_min":25,"x_max":591,"o":"m 25 252 l 25 309 l 591 309 l 591 252 l 25 252 z "},"":{"ha":694,"x_min":46,"x_max":648,"o":"m 567 545 q 561 530 567 536 q 545 524 554 524 q 530 530 536 524 q 524 545 524 536 q 530 561 524 554 q 545 567 536 567 q 561 561 554 567 q 567 545 567 554 m 476 606 q 469 590 476 596 q 454 583 463 583 q 438 590 445 583 q 432 606 432 596 q 438 620 432 614 q 454 627 445 627 q 470 620 464 627 q 476 606 476 614 m 627 454 q 620 438 627 445 q 606 432 614 432 q 590 438 596 432 q 583 454 583 445 q 590 469 583 463 q 606 476 596 476 q 620 470 614 476 q 627 454 627 464 m 370 627 q 363 612 370 618 q 347 606 357 606 q 331 612 338 606 q 325 627 325 618 q 331 642 325 636 q 347 648 338 648 q 363 642 357 648 q 370 627 370 636 m 648 347 q 642 331 648 338 q 627 325 636 325 q 612 331 618 325 q 606 347 606 338 q 612 363 606 357 q 627 370 618 370 q 642 363 636 370 q 648 347 648 357 m 262 606 q 256 590 262 596 q 240 583 250 583 q 225 590 232 583 q 218 606 218 596 q 224 620 218 614 q 240 627 231 627 q 256 620 250 627 q 262 606 262 614 m 627 240 q 620 224 627 231 q 606 218 614 218 q 590 225 596 218 q 583 240 583 232 q 590 256 583 250 q 606 262 596 262 q 620 256 614 262 q 627 240 627 250 m 171 545 q 165 530 171 536 q 150 524 159 524 q 134 530 140 524 q 127 545 127 536 q 134 561 127 554 q 150 567 140 567 q 165 561 159 567 q 171 545 171 554 m 567 150 q 561 134 567 140 q 545 127 554 127 q 530 134 536 127 q 524 150 524 140 q 530 165 524 159 q 545 171 536 171 q 561 165 554 171 q 567 150 567 159 m 111 454 q 105 438 111 445 q 89 432 98 432 q 74 438 81 432 q 68 454 68 445 q 74 470 68 464 q 89 476 81 476 q 105 469 98 476 q 111 454 111 463 m 476 89 q 470 74 476 81 q 454 68 464 68 q 438 74 445 68 q 432 89 432 81 q 438 105 432 98 q 454 111 445 111 q 469 105 463 111 q 476 89 476 98 m 89 347 q 83 331 89 338 q 68 325 77 325 q 52 331 58 325 q 46 347 46 338 q 52 363 46 357 q 68 370 58 370 q 83 363 77 370 q 89 347 89 357 m 370 68 q 363 52 370 58 q 347 46 357 46 q 331 52 338 46 q 325 68 325 58 q 331 83 325 77 q 347 89 338 89 q 363 83 357 89 q 370 68 370 77 m 111 240 q 105 225 111 232 q 89 218 98 218 q 74 224 81 218 q 68 240 68 231 q 74 256 68 250 q 89 262 81 262 q 105 256 98 262 q 111 240 111 250 m 262 89 q 256 74 262 81 q 240 68 250 68 q 224 74 231 68 q 218 89 218 81 q 225 105 218 98 q 240 111 232 111 q 256 105 250 111 q 262 89 262 98 m 171 150 q 165 134 171 140 q 150 127 159 127 q 134 134 140 127 q 127 150 127 140 q 134 165 127 159 q 150 171 140 171 q 165 165 159 171 q 171 150 171 159 z "},"":{"ha":231,"x_min":31,"x_max":231,"o":"m 204 -200 l 204 -26 l 31 -26 l 31 0 l 231 0 l 231 -200 l 204 -200 z "},"":{"ha":231,"x_min":0,"x_max":200,"o":"m 26 -26 l 26 -200 l 0 -200 l 0 0 l 200 0 l 200 -26 l 26 -26 z "},"":{"ha":0,"x_min":0,"x_max":0,"o":""},"":{"ha":242,"x_min":-116,"x_max":387,"o":"m 387 880 q 373 860 387 871 q 334 837 358 848 q 280 814 311 825 q 218 794 250 803 q 158 780 187 785 q 106 775 128 775 q 61 776 83 775 q 23 778 40 777 q -14 781 3 779 q -23 771 -20 781 q -30 750 -26 762 q -38 730 -33 739 q -53 720 -43 720 q -77 730 -66 720 q -97 754 -89 740 q -111 783 -106 768 q -116 811 -116 799 q -112 842 -116 827 q -99 867 -109 857 q -73 885 -90 878 q -31 891 -56 891 q -1 889 -18 891 q 35 884 16 887 q 74 880 54 882 q 115 878 94 878 q 219 882 174 878 q 295 891 264 886 q 345 901 327 897 q 369 905 363 905 q 379 903 376 905 q 385 897 383 901 q 387 889 387 893 q 387 880 387 884 m 188 176 q 184 144 188 163 q 176 105 181 125 q 164 65 171 85 q 152 31 158 46 q 140 5 146 15 q 132 -4 135 -4 q 118 -1 126 -4 q 111 8 111 3 q 112 15 111 10 q 116 31 114 20 q 119 56 117 41 q 121 94 121 72 q 116 150 121 114 q 103 229 111 186 q 87 319 96 273 q 72 406 79 366 q 59 475 64 446 q 54 513 54 504 q 61 551 54 529 q 78 596 67 574 q 102 640 88 619 q 131 671 116 660 q 141 645 138 660 q 144 621 144 631 l 144 571 l 188 176 l 188 176 z "},"":{"ha":242,"x_min":-2,"x_max":235,"o":"m 235 887 q 232 874 235 883 q 224 858 229 866 q 214 843 219 850 q 205 835 209 836 q 188 829 201 833 q 158 818 175 824 q 124 804 142 811 q 93 792 106 797 q 36 768 60 779 q 7 756 12 756 q 1 758 3 756 q -2 765 -2 760 q 0 775 -2 768 q 6 790 3 783 q 13 803 9 797 q 18 811 16 809 q 24 817 20 813 q 35 823 29 820 q 45 828 40 826 q 53 832 50 831 q 41 837 47 833 q 29 847 35 841 q 20 860 24 852 q 16 877 16 867 q 22 903 16 888 q 37 932 28 918 q 56 958 46 946 q 74 979 66 970 q 99 999 87 991 q 121 1010 111 1006 q 140 1015 132 1014 q 156 1016 149 1016 q 172 1013 163 1016 q 186 1004 180 1010 q 198 990 193 998 q 202 973 202 983 q 199 954 202 964 q 193 934 197 943 q 184 919 189 925 q 177 913 180 913 q 167 917 174 913 q 151 927 160 922 q 133 937 142 932 q 115 941 123 941 q 92 933 102 941 q 83 918 83 925 q 91 909 83 916 q 110 896 98 903 q 134 884 121 889 q 157 878 147 878 q 177 883 165 880 q 198 889 188 886 q 217 895 209 892 q 227 897 225 897 q 235 887 235 897 m 188 176 q 184 144 188 163 q 176 105 181 125 q 164 65 171 85 q 152 31 158 46 q 140 5 146 15 q 132 -4 135 -4 q 118 -1 126 -4 q 111 8 111 3 q 112 15 111 10 q 116 31 114 20 q 119 56 117 41 q 121 94 121 72 q 116 150 121 114 q 103 229 111 186 q 87 319 96 273 q 72 406 79 366 q 59 475 64 446 q 54 513 54 504 q 61 551 54 529 q 78 596 67 574 q 102 640 88 619 q 131 671 116 660 q 141 645 138 660 q 144 621 144 631 l 144 571 l 188 176 l 188 176 z "}}}
